M48
; DRILL file {KiCad (5.1.9)-1} date 01/24/21 21:22:59
; FORMAT={-:-/ absolute / inch / decimal}
; #@! TF.CreationDate,2021-01-24T21:22:59+01:00
; #@! TF.GenerationSoftware,Kicad,Pcbnew,(5.1.9)-1
FMAT,2
INCH
T1C0.0157
T2C0.0394
T3C0.1260
%
G90
G05
T1
X0.811Y-3.1142
X0.8386Y-2.5512
X0.874Y-3.4385
X0.9921Y-3.1142
X1.0354Y-2.5512
X1.1319Y-3.7402
X1.1412Y-3.5231
X1.1732Y-3.0669
X1.2293Y-2.5295
X1.2402Y-3.5354
X1.6437Y-3.1102
X1.6559Y-2.5567
X1.6929Y-3.4252
X1.8504Y-3.1102
X1.8504Y-2.5567
X1.8701Y-3.3465
X2.0374Y-3.6122
X2.0547Y-2.5567
X2.0768Y-3.1102
X2.0773Y-3.5635
X2.4606Y-3.1102
X2.4803Y-2.5492
X2.5098Y-3.4291
X2.6575Y-3.1102
X2.6772Y-2.5492
X2.6969Y-3.3563
X2.8543Y-3.6122
X2.8839Y-2.5492
X2.8937Y-3.6122
X2.9035Y-3.1102
X3.2776Y-3.1102
X3.3071Y-2.5492
X3.3366Y-3.4252
X3.4843Y-3.1102
X3.5138Y-2.5492
X3.5236Y-3.3661
X3.5925Y-3.5236
X3.6319Y-3.4843
X3.7106Y-2.5492
X3.7303Y-3.1102
X4.1043Y-3.1102
X4.1354Y-2.5508
X4.1634Y-3.4449
X4.311Y-3.1102
X4.3323Y-2.5508
X4.3504Y-3.3563
X4.4094Y-3.5531
X4.5276Y-3.6122
X4.5374Y-2.5508
X4.5571Y-3.1102
X4.9409Y-3.1102
X4.9705Y-2.5492
X4.9902Y-3.4449
X5.1378Y-3.1102
X5.1575Y-2.5492
X5.1673Y-3.376
X5.3164Y-3.594
X5.3642Y-2.5492
X5.3642Y-3.6122
X5.3839Y-3.1102
X5.7579Y-3.1201
X5.7874Y-2.5591
X5.8071Y-3.4449
X5.9646Y-3.1201
X5.9843Y-2.5591
X6.0039Y-3.3661
X6.1614Y-3.6122
X6.1909Y-2.5591
X6.1988Y-3.5998
X6.2106Y-3.1201
X6.5846Y-3.1201
X6.6043Y-2.5591
X6.6339Y-3.4449
X6.7913Y-3.1201
X6.811Y-2.5591
X6.8307Y-3.3563
X6.9882Y-3.6122
X7.0177Y-2.5591
X7.0276Y-3.1201
X7.0276Y-3.6122
X7.4213Y-3.1201
X7.4409Y-2.5492
X7.4606Y-3.435
X7.6181Y-3.1201
X7.6378Y-2.5492
X7.6673Y-3.376
X7.815Y-3.6122
X7.8445Y-2.5492
X7.8543Y-3.1201
X7.8543Y-3.6122
X8.248Y-3.1201
X8.2579Y-2.5492
X8.2972Y-3.4449
X8.4449Y-3.1201
X8.4646Y-2.5492
X8.4843Y-3.3661
X8.6516Y-3.6122
X8.6713Y-2.5492
X8.6811Y-3.6417
X8.6909Y-3.1201
X9.065Y-3.1201
X9.0846Y-2.5492
X9.124Y-3.435
X9.2717Y-3.1201
X9.2913Y-2.5492
X9.311Y-3.3661
X9.4685Y-3.6122
X9.498Y-2.5492
X9.5079Y-3.6122
X9.5177Y-3.1201
X9.8917Y-3.1201
X9.9114Y-2.5492
X9.9508Y-3.4449
X10.0984Y-3.1201
X10.1181Y-2.5492
X10.1378Y-3.3661
X10.3051Y-3.6122
X10.3248Y-2.5492
X10.3346Y-3.1201
X10.3346Y-3.6417
X10.7283Y-3.1201
X10.7382Y-2.5492
X10.7776Y-3.4547
X10.9252Y-3.1201
X10.9449Y-2.5492
X10.9646Y-3.3661
X11.122Y-3.6122
X11.1516Y-2.5492
X11.1594Y-3.5998
X11.1713Y-3.1201
X11.5551Y-3.1201
X11.565Y-2.5492
X11.6043Y-3.4449
X11.7421Y-3.1201
X11.7717Y-2.5492
X11.7913Y-3.376
X11.9488Y-3.6122
X11.9783Y-2.5492
X11.9882Y-3.6122
X11.998Y-3.1201
X12.372Y-3.1201
X12.3917Y-2.5492
X12.4311Y-3.4449
X12.5787Y-3.1201
X12.5984Y-2.5492
X12.628Y-3.376
X12.7756Y-3.6122
X12.8051Y-2.5492
X12.815Y-3.6122
X12.8248Y-3.1201
X13.2087Y-3.1201
X13.2283Y-2.5492
X13.248Y-3.4252
X13.4055Y-3.1201
X13.4252Y-2.5492
X13.4449Y-3.3957
X13.5925Y-3.622
X13.6319Y-2.5492
X13.6319Y-3.622
X13.6516Y-3.1201
T2
X0.6457Y-2.3512
X0.6457Y-2.4512
X0.6457Y-2.5512
X0.8811Y-2.4705
X0.9811Y-2.4705
X1.0811Y-2.4705
X1.1811Y-2.4705
X1.3228Y-2.3512
X1.3228Y-2.4512
X1.3228Y-2.5512
X1.4724Y-2.3567
X1.4724Y-2.4567
X1.4724Y-2.5567
X1.7079Y-2.4705
X1.8079Y-2.4705
X1.9079Y-2.4705
X2.0079Y-2.4705
X2.1496Y-2.3512
X2.1496Y-2.4512
X2.1496Y-2.5512
X2.2933Y-2.3492
X2.2933Y-2.4492
X2.2933Y-2.5492
X2.5346Y-2.4705
X2.6346Y-2.4705
X2.7346Y-2.4705
X2.8346Y-2.4705
X2.9823Y-2.3492
X2.9823Y-2.4492
X2.9823Y-2.5492
X3.1201Y-2.3492
X3.1201Y-2.4492
X3.1201Y-2.5492
X3.3614Y-2.4705
X3.4614Y-2.4705
X3.5614Y-2.4705
X3.6614Y-2.4705
X3.8091Y-2.3492
X3.8091Y-2.4492
X3.8091Y-2.5492
X3.9469Y-2.3508
X3.9469Y-2.4508
X3.9469Y-2.5508
X4.1882Y-2.4705
X4.2882Y-2.4705
X4.3882Y-2.4705
X4.4882Y-2.4705
X4.6358Y-2.3492
X4.6358Y-2.4492
X4.6358Y-2.5492
X4.7835Y-2.3492
X4.7835Y-2.4492
X4.7835Y-2.5492
X5.015Y-2.4705
X5.115Y-2.4705
X5.215Y-2.4705
X5.315Y-2.4705
X5.4626Y-2.3591
X5.4626Y-2.4591
X5.4626Y-2.5591
X5.6004Y-2.3591
X5.6004Y-2.4591
X5.6004Y-2.5591
X5.8417Y-2.4705
X5.9417Y-2.4705
X6.0417Y-2.4705
X6.1417Y-2.4705
X6.2894Y-2.3591
X6.2894Y-2.4591
X6.2894Y-2.5591
X6.4272Y-2.3591
X6.4272Y-2.4591
X6.4272Y-2.5591
X6.6685Y-2.4705
X6.7685Y-2.4705
X6.8685Y-2.4705
X6.9685Y-2.4705
X7.1161Y-2.3524
X7.1161Y-2.4524
X7.1161Y-2.5524
X7.2539Y-2.3492
X7.2539Y-2.4492
X7.2539Y-2.5492
X7.4953Y-2.4705
X7.5953Y-2.4705
X7.6953Y-2.4705
X7.7953Y-2.4705
X7.9429Y-2.3492
X7.9429Y-2.4492
X7.9429Y-2.5492
X8.0807Y-2.3492
X8.0807Y-2.4492
X8.0807Y-2.5492
X8.322Y-2.4705
X8.422Y-2.4705
X8.522Y-2.4705
X8.622Y-2.4705
X8.7697Y-2.3492
X8.7697Y-2.4492
X8.7697Y-2.5492
X8.9075Y-2.3492
X8.9075Y-2.4492
X8.9075Y-2.5492
X9.1488Y-2.4705
X9.2488Y-2.4705
X9.3488Y-2.4705
X9.4488Y-2.4705
X9.5965Y-2.3492
X9.5965Y-2.4492
X9.5965Y-2.5492
X9.7343Y-2.3492
X9.7343Y-2.4492
X9.7343Y-2.5492
X9.9756Y-2.4705
X10.0756Y-2.4705
X10.1756Y-2.4705
X10.2756Y-2.4705
X10.4232Y-2.3492
X10.4232Y-2.4492
X10.4232Y-2.5492
X10.561Y-2.3492
X10.561Y-2.4492
X10.561Y-2.5492
X10.8024Y-2.4705
X10.9024Y-2.4705
X11.0024Y-2.4705
X11.1024Y-2.4705
X11.25Y-2.3492
X11.25Y-2.4492
X11.25Y-2.5492
X11.3878Y-2.3492
X11.3878Y-2.4492
X11.3878Y-2.5492
X11.6291Y-2.4705
X11.7291Y-2.4705
X11.8291Y-2.4705
X11.9291Y-2.4705
X12.0768Y-2.3492
X12.0768Y-2.4492
X12.0768Y-2.5492
X12.2146Y-2.3492
X12.2146Y-2.4492
X12.2146Y-2.5492
X12.4559Y-2.4705
X12.5559Y-2.4705
X12.6559Y-2.4705
X12.7559Y-2.4705
X12.9035Y-2.3492
X12.9035Y-2.4492
X12.9035Y-2.5492
X13.0413Y-2.3492
X13.0413Y-2.4492
X13.0413Y-2.5492
X13.2827Y-2.4705
X13.3827Y-2.4705
X13.4827Y-2.4705
X13.5827Y-2.4705
X13.7303Y-2.3492
X13.7303Y-2.4492
X13.7303Y-2.5492
T3
X0.7283Y-3.6417
X1.5551Y-3.6417
X2.3819Y-3.6417
X3.2087Y-3.6417
X4.0354Y-3.6417
X4.8622Y-3.6417
X5.689Y-3.6417
X6.5157Y-3.6417
X7.3425Y-3.6417
X8.1693Y-3.6417
X8.9961Y-3.6417
X9.8228Y-3.6417
X10.6496Y-3.6417
X11.4764Y-3.6417
X12.3031Y-3.6417
X13.1299Y-3.6417
T0
M30
