%TF.GenerationSoftware,KiCad,Pcbnew,(5.1.9)-1*%
%TF.CreationDate,2021-01-24T21:22:51+01:00*%
%TF.ProjectId,StripArray,53747269-7041-4727-9261-792e6b696361,rev?*%
%TF.SameCoordinates,Original*%
%TF.FileFunction,Copper,L1,Top*%
%TF.FilePolarity,Positive*%
%FSLAX46Y46*%
G04 Gerber Fmt 4.6, Leading zero omitted, Abs format (unit mm)*
G04 Created by KiCad (PCBNEW (5.1.9)-1) date 2021-01-24 21:22:51*
%MOMM*%
%LPD*%
G01*
G04 APERTURE LIST*
%TA.AperFunction,SMDPad,CuDef*%
%ADD10R,1.200000X0.750000*%
%TD*%
%TA.AperFunction,ComponentPad*%
%ADD11R,1.700000X1.700000*%
%TD*%
%TA.AperFunction,ComponentPad*%
%ADD12O,1.700000X1.700000*%
%TD*%
%TA.AperFunction,ComponentPad*%
%ADD13C,6.400000*%
%TD*%
%TA.AperFunction,SMDPad,CuDef*%
%ADD14R,0.800000X1.900000*%
%TD*%
%TA.AperFunction,SMDPad,CuDef*%
%ADD15R,0.750000X1.200000*%
%TD*%
%TA.AperFunction,SMDPad,CuDef*%
%ADD16R,0.600000X1.550000*%
%TD*%
%TA.AperFunction,ViaPad*%
%ADD17C,0.800000*%
%TD*%
%TA.AperFunction,Conductor*%
%ADD18C,0.250000*%
%TD*%
%TA.AperFunction,Conductor*%
%ADD19C,0.600000*%
%TD*%
G04 APERTURE END LIST*
D10*
%TO.P,Rdin11,1*%
%TO.N,Net-(Rdin11-Pad1)*%
X230450000Y-87250000D03*
%TO.P,Rdin11,2*%
%TO.N,/AddressableLedDriver11/DIN*%
X228550000Y-87250000D03*
%TD*%
%TO.P,Rdin7,1*%
%TO.N,Net-(Rdin7-Pad1)*%
X146200000Y-87500000D03*
%TO.P,Rdin7,2*%
%TO.N,/AddressableLedDriver07/DIN*%
X144300000Y-87500000D03*
%TD*%
%TO.P,Rset16,1*%
%TO.N,Net-(C16-Pad1)*%
X346950000Y-95750000D03*
%TO.P,Rset16,2*%
%TO.N,Net-(Rset16-Pad2)*%
X345050000Y-95750000D03*
%TD*%
%TO.P,Rset15,1*%
%TO.N,Net-(C15-Pad1)*%
X326250000Y-95750000D03*
%TO.P,Rset15,2*%
%TO.N,Net-(Rset15-Pad2)*%
X324350000Y-95750000D03*
%TD*%
%TO.P,Rset14,1*%
%TO.N,Net-(C14-Pad1)*%
X305200000Y-95750000D03*
%TO.P,Rset14,2*%
%TO.N,Net-(Rset14-Pad2)*%
X303300000Y-95750000D03*
%TD*%
%TO.P,Rset13,1*%
%TO.N,Net-(C13-Pad1)*%
X284200000Y-95750000D03*
%TO.P,Rset13,2*%
%TO.N,Net-(Rset13-Pad2)*%
X282300000Y-95750000D03*
%TD*%
%TO.P,Rset12,1*%
%TO.N,Net-(C12-Pad1)*%
X263200000Y-95750000D03*
%TO.P,Rset12,2*%
%TO.N,Net-(Rset12-Pad2)*%
X261300000Y-95750000D03*
%TD*%
%TO.P,Rset11,1*%
%TO.N,Net-(C11-Pad1)*%
X242200000Y-95750000D03*
%TO.P,Rset11,2*%
%TO.N,Net-(Rset11-Pad2)*%
X240300000Y-95750000D03*
%TD*%
%TO.P,Rset10,1*%
%TO.N,Net-(C10-Pad1)*%
X221200000Y-95500000D03*
%TO.P,Rset10,2*%
%TO.N,Net-(Rset10-Pad2)*%
X219300000Y-95500000D03*
%TD*%
%TO.P,Rset9,1*%
%TO.N,Net-(C9-Pad1)*%
X200250000Y-95750000D03*
%TO.P,Rset9,2*%
%TO.N,Net-(Rset9-Pad2)*%
X198350000Y-95750000D03*
%TD*%
%TO.P,Rset8,1*%
%TO.N,Net-(C8-Pad1)*%
X179200000Y-95750000D03*
%TO.P,Rset8,2*%
%TO.N,Net-(Rset8-Pad2)*%
X177300000Y-95750000D03*
%TD*%
%TO.P,Rset7,1*%
%TO.N,Net-(C7-Pad1)*%
X158200000Y-95750000D03*
%TO.P,Rset7,2*%
%TO.N,Net-(Rset7-Pad2)*%
X156300000Y-95750000D03*
%TD*%
%TO.P,Rset6,1*%
%TO.N,Net-(C6-Pad1)*%
X137200000Y-95750000D03*
%TO.P,Rset6,2*%
%TO.N,Net-(Rset6-Pad2)*%
X135300000Y-95750000D03*
%TD*%
%TO.P,Rset5,1*%
%TO.N,Net-(C5-Pad1)*%
X115950000Y-95500000D03*
%TO.P,Rset5,2*%
%TO.N,Net-(Rset5-Pad2)*%
X114050000Y-95500000D03*
%TD*%
%TO.P,Rset4,1*%
%TO.N,Net-(C4-Pad1)*%
X95200000Y-95500000D03*
%TO.P,Rset4,2*%
%TO.N,Net-(Rset4-Pad2)*%
X93300000Y-95500000D03*
%TD*%
%TO.P,Rset3,1*%
%TO.N,Net-(C3-Pad1)*%
X74200000Y-95500000D03*
%TO.P,Rset3,2*%
%TO.N,Net-(Rset3-Pad2)*%
X72300000Y-95500000D03*
%TD*%
%TO.P,Rset2,1*%
%TO.N,Net-(C2-Pad1)*%
X53200000Y-95500000D03*
%TO.P,Rset2,2*%
%TO.N,Net-(Rset2-Pad2)*%
X51300000Y-95500000D03*
%TD*%
%TO.P,Rset1,1*%
%TO.N,Net-(C1-Pad1)*%
X32200000Y-95250000D03*
%TO.P,Rset1,2*%
%TO.N,Net-(Rset1-Pad2)*%
X30300000Y-95250000D03*
%TD*%
D11*
%TO.P,Jrgb16,1*%
%TO.N,/AddressableLedDriver01/VIn*%
X345000000Y-62750000D03*
D12*
%TO.P,Jrgb16,2*%
%TO.N,Net-(Jrgb16-Pad2)*%
X342460000Y-62750000D03*
%TO.P,Jrgb16,3*%
%TO.N,Net-(Jrgb16-Pad3)*%
X339920000Y-62750000D03*
%TO.P,Jrgb16,4*%
%TO.N,Net-(Jrgb16-Pad4)*%
X337380000Y-62750000D03*
%TD*%
D11*
%TO.P,Jrgb15,1*%
%TO.N,/AddressableLedDriver01/VIn*%
X324000000Y-62750000D03*
D12*
%TO.P,Jrgb15,2*%
%TO.N,Net-(Jrgb15-Pad2)*%
X321460000Y-62750000D03*
%TO.P,Jrgb15,3*%
%TO.N,Net-(Jrgb15-Pad3)*%
X318920000Y-62750000D03*
%TO.P,Jrgb15,4*%
%TO.N,Net-(Jrgb15-Pad4)*%
X316380000Y-62750000D03*
%TD*%
D11*
%TO.P,Jrgb14,1*%
%TO.N,/AddressableLedDriver01/VIn*%
X303000000Y-62750000D03*
D12*
%TO.P,Jrgb14,2*%
%TO.N,Net-(Jrgb14-Pad2)*%
X300460000Y-62750000D03*
%TO.P,Jrgb14,3*%
%TO.N,Net-(Jrgb14-Pad3)*%
X297920000Y-62750000D03*
%TO.P,Jrgb14,4*%
%TO.N,Net-(Jrgb14-Pad4)*%
X295380000Y-62750000D03*
%TD*%
D11*
%TO.P,Jrgb13,1*%
%TO.N,/AddressableLedDriver01/VIn*%
X282000000Y-62750000D03*
D12*
%TO.P,Jrgb13,2*%
%TO.N,Net-(Jrgb13-Pad2)*%
X279460000Y-62750000D03*
%TO.P,Jrgb13,3*%
%TO.N,Net-(Jrgb13-Pad3)*%
X276920000Y-62750000D03*
%TO.P,Jrgb13,4*%
%TO.N,Net-(Jrgb13-Pad4)*%
X274380000Y-62750000D03*
%TD*%
D11*
%TO.P,Jrgb12,1*%
%TO.N,/AddressableLedDriver01/VIn*%
X261000000Y-62750000D03*
D12*
%TO.P,Jrgb12,2*%
%TO.N,Net-(Jrgb12-Pad2)*%
X258460000Y-62750000D03*
%TO.P,Jrgb12,3*%
%TO.N,Net-(Jrgb12-Pad3)*%
X255920000Y-62750000D03*
%TO.P,Jrgb12,4*%
%TO.N,Net-(Jrgb12-Pad4)*%
X253380000Y-62750000D03*
%TD*%
D11*
%TO.P,Jrgb11,1*%
%TO.N,/AddressableLedDriver01/VIn*%
X240000000Y-62750000D03*
D12*
%TO.P,Jrgb11,2*%
%TO.N,Net-(Jrgb11-Pad2)*%
X237460000Y-62750000D03*
%TO.P,Jrgb11,3*%
%TO.N,Net-(Jrgb11-Pad3)*%
X234920000Y-62750000D03*
%TO.P,Jrgb11,4*%
%TO.N,Net-(Jrgb11-Pad4)*%
X232380000Y-62750000D03*
%TD*%
D11*
%TO.P,Jrgb10,1*%
%TO.N,/AddressableLedDriver01/VIn*%
X219000000Y-62750000D03*
D12*
%TO.P,Jrgb10,2*%
%TO.N,Net-(Jrgb10-Pad2)*%
X216460000Y-62750000D03*
%TO.P,Jrgb10,3*%
%TO.N,Net-(Jrgb10-Pad3)*%
X213920000Y-62750000D03*
%TO.P,Jrgb10,4*%
%TO.N,Net-(Jrgb10-Pad4)*%
X211380000Y-62750000D03*
%TD*%
D11*
%TO.P,Jrgb9,1*%
%TO.N,/AddressableLedDriver01/VIn*%
X198000000Y-62750000D03*
D12*
%TO.P,Jrgb9,2*%
%TO.N,Net-(Jrgb9-Pad2)*%
X195460000Y-62750000D03*
%TO.P,Jrgb9,3*%
%TO.N,Net-(Jrgb9-Pad3)*%
X192920000Y-62750000D03*
%TO.P,Jrgb9,4*%
%TO.N,Net-(Jrgb9-Pad4)*%
X190380000Y-62750000D03*
%TD*%
D11*
%TO.P,Jrgb8,1*%
%TO.N,/AddressableLedDriver01/VIn*%
X177000000Y-62750000D03*
D12*
%TO.P,Jrgb8,2*%
%TO.N,Net-(Jrgb8-Pad2)*%
X174460000Y-62750000D03*
%TO.P,Jrgb8,3*%
%TO.N,Net-(Jrgb8-Pad3)*%
X171920000Y-62750000D03*
%TO.P,Jrgb8,4*%
%TO.N,Net-(Jrgb8-Pad4)*%
X169380000Y-62750000D03*
%TD*%
D11*
%TO.P,Jrgb7,1*%
%TO.N,/AddressableLedDriver01/VIn*%
X156000000Y-62750000D03*
D12*
%TO.P,Jrgb7,2*%
%TO.N,Net-(Jrgb7-Pad2)*%
X153460000Y-62750000D03*
%TO.P,Jrgb7,3*%
%TO.N,Net-(Jrgb7-Pad3)*%
X150920000Y-62750000D03*
%TO.P,Jrgb7,4*%
%TO.N,Net-(Jrgb7-Pad4)*%
X148380000Y-62750000D03*
%TD*%
D11*
%TO.P,Jrgb6,1*%
%TO.N,/AddressableLedDriver01/VIn*%
X135000000Y-62750000D03*
D12*
%TO.P,Jrgb6,2*%
%TO.N,Net-(Jrgb6-Pad2)*%
X132460000Y-62750000D03*
%TO.P,Jrgb6,3*%
%TO.N,Net-(Jrgb6-Pad3)*%
X129920000Y-62750000D03*
%TO.P,Jrgb6,4*%
%TO.N,Net-(Jrgb6-Pad4)*%
X127380000Y-62750000D03*
%TD*%
D11*
%TO.P,Jrgb5,1*%
%TO.N,/AddressableLedDriver01/VIn*%
X114000000Y-62750000D03*
D12*
%TO.P,Jrgb5,2*%
%TO.N,Net-(Jrgb5-Pad2)*%
X111460000Y-62750000D03*
%TO.P,Jrgb5,3*%
%TO.N,Net-(Jrgb5-Pad3)*%
X108920000Y-62750000D03*
%TO.P,Jrgb5,4*%
%TO.N,Net-(Jrgb5-Pad4)*%
X106380000Y-62750000D03*
%TD*%
D11*
%TO.P,Jrgb4,1*%
%TO.N,/AddressableLedDriver01/VIn*%
X93000000Y-62750000D03*
D12*
%TO.P,Jrgb4,2*%
%TO.N,Net-(Jrgb4-Pad2)*%
X90460000Y-62750000D03*
%TO.P,Jrgb4,3*%
%TO.N,Net-(Jrgb4-Pad3)*%
X87920000Y-62750000D03*
%TO.P,Jrgb4,4*%
%TO.N,Net-(Jrgb4-Pad4)*%
X85380000Y-62750000D03*
%TD*%
D11*
%TO.P,Jrgb3,1*%
%TO.N,/AddressableLedDriver01/VIn*%
X72000000Y-62750000D03*
D12*
%TO.P,Jrgb3,2*%
%TO.N,Net-(Jrgb3-Pad2)*%
X69460000Y-62750000D03*
%TO.P,Jrgb3,3*%
%TO.N,Net-(Jrgb3-Pad3)*%
X66920000Y-62750000D03*
%TO.P,Jrgb3,4*%
%TO.N,Net-(Jrgb3-Pad4)*%
X64380000Y-62750000D03*
%TD*%
D11*
%TO.P,Jrgb2,1*%
%TO.N,/AddressableLedDriver01/VIn*%
X51000000Y-62750000D03*
D12*
%TO.P,Jrgb2,2*%
%TO.N,Net-(Jrgb2-Pad2)*%
X48460000Y-62750000D03*
%TO.P,Jrgb2,3*%
%TO.N,Net-(Jrgb2-Pad3)*%
X45920000Y-62750000D03*
%TO.P,Jrgb2,4*%
%TO.N,Net-(Jrgb2-Pad4)*%
X43380000Y-62750000D03*
%TD*%
D11*
%TO.P,Jrgb1,1*%
%TO.N,/AddressableLedDriver01/VIn*%
X30000000Y-62750000D03*
D12*
%TO.P,Jrgb1,2*%
%TO.N,Net-(Jrgb1-Pad2)*%
X27460000Y-62750000D03*
%TO.P,Jrgb1,3*%
%TO.N,Net-(Jrgb1-Pad3)*%
X24920000Y-62750000D03*
%TO.P,Jrgb1,4*%
%TO.N,Net-(Jrgb1-Pad4)*%
X22380000Y-62750000D03*
%TD*%
D13*
%TO.P,Hbottomleft16,1*%
%TO.N,N/C*%
X333500000Y-92500000D03*
%TD*%
%TO.P,Hbottomleft15,1*%
%TO.N,N/C*%
X312500000Y-92500000D03*
%TD*%
%TO.P,Hbottomleft14,1*%
%TO.N,N/C*%
X291500000Y-92500000D03*
%TD*%
%TO.P,Hbottomleft13,1*%
%TO.N,N/C*%
X270500000Y-92500000D03*
%TD*%
%TO.P,Hbottomleft12,1*%
%TO.N,N/C*%
X249500000Y-92500000D03*
%TD*%
%TO.P,Hbottomleft11,1*%
%TO.N,N/C*%
X228500000Y-92500000D03*
%TD*%
%TO.P,Hbottomleft10,1*%
%TO.N,N/C*%
X207500000Y-92500000D03*
%TD*%
%TO.P,Hbottomleft9,1*%
%TO.N,N/C*%
X186500000Y-92500000D03*
%TD*%
%TO.P,Hbottomleft8,1*%
%TO.N,N/C*%
X165500000Y-92500000D03*
%TD*%
%TO.P,Hbottomleft7,1*%
%TO.N,N/C*%
X144500000Y-92500000D03*
%TD*%
%TO.P,Hbottomleft6,1*%
%TO.N,N/C*%
X123500000Y-92500000D03*
%TD*%
%TO.P,Hbottomleft5,1*%
%TO.N,N/C*%
X102500000Y-92500000D03*
%TD*%
%TO.P,Hbottomleft4,1*%
%TO.N,N/C*%
X81500000Y-92500000D03*
%TD*%
%TO.P,Hbottomleft3,1*%
%TO.N,N/C*%
X60500000Y-92500000D03*
%TD*%
%TO.P,Hbottomleft2,1*%
%TO.N,N/C*%
X39500000Y-92500000D03*
%TD*%
%TO.P,Hbottomleft1,1*%
%TO.N,N/C*%
X18500000Y-92500000D03*
%TD*%
D14*
%TO.P,Qgreeninv1,1*%
%TO.N,Net-(Qgreeninv1-Pad1)*%
X23800000Y-77500000D03*
%TO.P,Qgreeninv1,2*%
%TO.N,/AddressableLedDriver01/GndIn*%
X25700000Y-77500000D03*
%TO.P,Qgreeninv1,3*%
%TO.N,Net-(Qgreeninv1-Pad3)*%
X24750000Y-74500000D03*
%TD*%
D15*
%TO.P,C1,1*%
%TO.N,Net-(C1-Pad1)*%
X30000000Y-93750000D03*
%TO.P,C1,2*%
%TO.N,/AddressableLedDriver01/GndIn*%
X30000000Y-91850000D03*
%TD*%
D14*
%TO.P,Qblueinv1,1*%
%TO.N,Net-(Qblueinv1-Pad1)*%
X18850000Y-77500000D03*
%TO.P,Qblueinv1,2*%
%TO.N,/AddressableLedDriver01/GndIn*%
X20750000Y-77500000D03*
%TO.P,Qblueinv1,3*%
%TO.N,Net-(Qblueinv1-Pad3)*%
X19800000Y-74500000D03*
%TD*%
D10*
%TO.P,Rblueinv1,1*%
%TO.N,Net-(C1-Pad1)*%
X20750000Y-80600000D03*
%TO.P,Rblueinv1,2*%
%TO.N,Net-(Qblueinv1-Pad1)*%
X18850000Y-80600000D03*
%TD*%
D15*
%TO.P,Rblue1,1*%
%TO.N,Net-(Qblueinv1-Pad1)*%
X18800000Y-83550000D03*
%TO.P,Rblue1,2*%
%TO.N,Net-(Rblue1-Pad2)*%
X18800000Y-85450000D03*
%TD*%
D10*
%TO.P,Rblueout1,1*%
%TO.N,Net-(C1-Pad1)*%
X20950000Y-71200000D03*
%TO.P,Rblueout1,2*%
%TO.N,Net-(Qblueinv1-Pad3)*%
X19050000Y-71200000D03*
%TD*%
D14*
%TO.P,Qredinv1,1*%
%TO.N,Net-(Qredinv1-Pad1)*%
X28800000Y-77500000D03*
%TO.P,Qredinv1,2*%
%TO.N,/AddressableLedDriver01/GndIn*%
X30700000Y-77500000D03*
%TO.P,Qredinv1,3*%
%TO.N,Net-(Qredinv1-Pad3)*%
X29750000Y-74500000D03*
%TD*%
D16*
%TO.P,U1,1*%
%TO.N,Net-(Rred1-Pad2)*%
X27343000Y-88384000D03*
%TO.P,U1,2*%
%TO.N,Net-(Rgreen1-Pad2)*%
X26073000Y-88384000D03*
%TO.P,U1,3*%
%TO.N,Net-(Rblue1-Pad2)*%
X24803000Y-88384000D03*
%TO.P,U1,4*%
%TO.N,/AddressableLedDriver01/GndIn*%
X23533000Y-88384000D03*
%TO.P,U1,5*%
%TO.N,/AddressableLedDriver02/DIN*%
X23533000Y-93784000D03*
%TO.P,U1,6*%
%TO.N,Net-(Rdin1-Pad1)*%
X24803000Y-93784000D03*
%TO.P,U1,7*%
%TO.N,Net-(Rset1-Pad2)*%
X26073000Y-93784000D03*
%TO.P,U1,8*%
%TO.N,Net-(C1-Pad1)*%
X27343000Y-93784000D03*
%TD*%
D15*
%TO.P,Rvdd1,1*%
%TO.N,/AddressableLedDriver01/VIn*%
X32400000Y-91850000D03*
%TO.P,Rvdd1,2*%
%TO.N,Net-(C1-Pad1)*%
X32400000Y-93750000D03*
%TD*%
D10*
%TO.P,Rredout1,1*%
%TO.N,Net-(C1-Pad1)*%
X30900000Y-71200000D03*
%TO.P,Rredout1,2*%
%TO.N,Net-(Qredinv1-Pad3)*%
X29000000Y-71200000D03*
%TD*%
%TO.P,Rredinv1,1*%
%TO.N,Net-(C1-Pad1)*%
X30700000Y-80600000D03*
%TO.P,Rredinv1,2*%
%TO.N,Net-(Qredinv1-Pad1)*%
X28800000Y-80600000D03*
%TD*%
D15*
%TO.P,Rred1,1*%
%TO.N,Net-(Qredinv1-Pad1)*%
X28750000Y-83650000D03*
%TO.P,Rred1,2*%
%TO.N,Net-(Rred1-Pad2)*%
X28750000Y-85550000D03*
%TD*%
D10*
%TO.P,Rgreeninv1,1*%
%TO.N,Net-(C1-Pad1)*%
X25750000Y-80600000D03*
%TO.P,Rgreeninv1,2*%
%TO.N,Net-(Qgreeninv1-Pad1)*%
X23850000Y-80600000D03*
%TD*%
%TO.P,Rgreenout1,1*%
%TO.N,Net-(C1-Pad1)*%
X25900000Y-71150000D03*
%TO.P,Rgreenout1,2*%
%TO.N,Net-(Qgreeninv1-Pad3)*%
X24000000Y-71150000D03*
%TD*%
D15*
%TO.P,Rgreen1,1*%
%TO.N,Net-(Qgreeninv1-Pad1)*%
X23800000Y-83550000D03*
%TO.P,Rgreen1,2*%
%TO.N,Net-(Rgreen1-Pad2)*%
X23800000Y-85450000D03*
%TD*%
D10*
%TO.P,Rdin1,1*%
%TO.N,Net-(Rdin1-Pad1)*%
X20950000Y-87500000D03*
%TO.P,Rdin1,2*%
%TO.N,/AddressableLedDriver01/DIN*%
X19050000Y-87500000D03*
%TD*%
D14*
%TO.P,Qgreenout16,1*%
%TO.N,Net-(Qgreeninv16-Pad3)*%
X339050000Y-67750000D03*
%TO.P,Qgreenout16,2*%
%TO.N,/AddressableLedDriver01/GndIn*%
X340950000Y-67750000D03*
%TO.P,Qgreenout16,3*%
%TO.N,Net-(Jrgb16-Pad3)*%
X340000000Y-64750000D03*
%TD*%
%TO.P,Qgreenout15,1*%
%TO.N,Net-(Qgreeninv15-Pad3)*%
X318050000Y-67750000D03*
%TO.P,Qgreenout15,2*%
%TO.N,/AddressableLedDriver01/GndIn*%
X319950000Y-67750000D03*
%TO.P,Qgreenout15,3*%
%TO.N,Net-(Jrgb15-Pad3)*%
X319000000Y-64750000D03*
%TD*%
%TO.P,Qgreenout14,1*%
%TO.N,Net-(Qgreeninv14-Pad3)*%
X297050000Y-67750000D03*
%TO.P,Qgreenout14,2*%
%TO.N,/AddressableLedDriver01/GndIn*%
X298950000Y-67750000D03*
%TO.P,Qgreenout14,3*%
%TO.N,Net-(Jrgb14-Pad3)*%
X298000000Y-64750000D03*
%TD*%
%TO.P,Qgreenout13,1*%
%TO.N,Net-(Qgreeninv13-Pad3)*%
X276050000Y-67750000D03*
%TO.P,Qgreenout13,2*%
%TO.N,/AddressableLedDriver01/GndIn*%
X277950000Y-67750000D03*
%TO.P,Qgreenout13,3*%
%TO.N,Net-(Jrgb13-Pad3)*%
X277000000Y-64750000D03*
%TD*%
%TO.P,Qgreenout12,1*%
%TO.N,Net-(Qgreeninv12-Pad3)*%
X255050000Y-67750000D03*
%TO.P,Qgreenout12,2*%
%TO.N,/AddressableLedDriver01/GndIn*%
X256950000Y-67750000D03*
%TO.P,Qgreenout12,3*%
%TO.N,Net-(Jrgb12-Pad3)*%
X256000000Y-64750000D03*
%TD*%
%TO.P,Qgreenout11,1*%
%TO.N,Net-(Qgreeninv11-Pad3)*%
X234050000Y-67750000D03*
%TO.P,Qgreenout11,2*%
%TO.N,/AddressableLedDriver01/GndIn*%
X235950000Y-67750000D03*
%TO.P,Qgreenout11,3*%
%TO.N,Net-(Jrgb11-Pad3)*%
X235000000Y-64750000D03*
%TD*%
%TO.P,Qgreenout10,1*%
%TO.N,Net-(Qgreeninv10-Pad3)*%
X213050000Y-67750000D03*
%TO.P,Qgreenout10,2*%
%TO.N,/AddressableLedDriver01/GndIn*%
X214950000Y-67750000D03*
%TO.P,Qgreenout10,3*%
%TO.N,Net-(Jrgb10-Pad3)*%
X214000000Y-64750000D03*
%TD*%
%TO.P,Qgreenout9,1*%
%TO.N,Net-(Qgreeninv9-Pad3)*%
X192050000Y-67750000D03*
%TO.P,Qgreenout9,2*%
%TO.N,/AddressableLedDriver01/GndIn*%
X193950000Y-67750000D03*
%TO.P,Qgreenout9,3*%
%TO.N,Net-(Jrgb9-Pad3)*%
X193000000Y-64750000D03*
%TD*%
%TO.P,Qgreenout8,1*%
%TO.N,Net-(Qgreeninv8-Pad3)*%
X171050000Y-67750000D03*
%TO.P,Qgreenout8,2*%
%TO.N,/AddressableLedDriver01/GndIn*%
X172950000Y-67750000D03*
%TO.P,Qgreenout8,3*%
%TO.N,Net-(Jrgb8-Pad3)*%
X172000000Y-64750000D03*
%TD*%
%TO.P,Qgreenout7,1*%
%TO.N,Net-(Qgreeninv7-Pad3)*%
X150050000Y-67750000D03*
%TO.P,Qgreenout7,2*%
%TO.N,/AddressableLedDriver01/GndIn*%
X151950000Y-67750000D03*
%TO.P,Qgreenout7,3*%
%TO.N,Net-(Jrgb7-Pad3)*%
X151000000Y-64750000D03*
%TD*%
%TO.P,Qgreenout6,1*%
%TO.N,Net-(Qgreeninv6-Pad3)*%
X129050000Y-67750000D03*
%TO.P,Qgreenout6,2*%
%TO.N,/AddressableLedDriver01/GndIn*%
X130950000Y-67750000D03*
%TO.P,Qgreenout6,3*%
%TO.N,Net-(Jrgb6-Pad3)*%
X130000000Y-64750000D03*
%TD*%
%TO.P,Qgreenout5,1*%
%TO.N,Net-(Qgreeninv5-Pad3)*%
X108050000Y-67750000D03*
%TO.P,Qgreenout5,2*%
%TO.N,/AddressableLedDriver01/GndIn*%
X109950000Y-67750000D03*
%TO.P,Qgreenout5,3*%
%TO.N,Net-(Jrgb5-Pad3)*%
X109000000Y-64750000D03*
%TD*%
%TO.P,Qgreenout4,1*%
%TO.N,Net-(Qgreeninv4-Pad3)*%
X87050000Y-67750000D03*
%TO.P,Qgreenout4,2*%
%TO.N,/AddressableLedDriver01/GndIn*%
X88950000Y-67750000D03*
%TO.P,Qgreenout4,3*%
%TO.N,Net-(Jrgb4-Pad3)*%
X88000000Y-64750000D03*
%TD*%
%TO.P,Qgreenout3,1*%
%TO.N,Net-(Qgreeninv3-Pad3)*%
X66050000Y-67750000D03*
%TO.P,Qgreenout3,2*%
%TO.N,/AddressableLedDriver01/GndIn*%
X67950000Y-67750000D03*
%TO.P,Qgreenout3,3*%
%TO.N,Net-(Jrgb3-Pad3)*%
X67000000Y-64750000D03*
%TD*%
%TO.P,Qgreenout2,1*%
%TO.N,Net-(Qgreeninv2-Pad3)*%
X45050000Y-67700000D03*
%TO.P,Qgreenout2,2*%
%TO.N,/AddressableLedDriver01/GndIn*%
X46950000Y-67700000D03*
%TO.P,Qgreenout2,3*%
%TO.N,Net-(Jrgb2-Pad3)*%
X46000000Y-64700000D03*
%TD*%
%TO.P,Qgreenout1,1*%
%TO.N,Net-(Qgreeninv1-Pad3)*%
X24000000Y-67700000D03*
%TO.P,Qgreenout1,2*%
%TO.N,/AddressableLedDriver01/GndIn*%
X25900000Y-67700000D03*
%TO.P,Qgreenout1,3*%
%TO.N,Net-(Jrgb1-Pad3)*%
X24950000Y-64700000D03*
%TD*%
%TO.P,Qgreeninv16,1*%
%TO.N,Net-(Qgreeninv16-Pad1)*%
X339050000Y-77500000D03*
%TO.P,Qgreeninv16,2*%
%TO.N,/AddressableLedDriver01/GndIn*%
X340950000Y-77500000D03*
%TO.P,Qgreeninv16,3*%
%TO.N,Net-(Qgreeninv16-Pad3)*%
X340000000Y-74500000D03*
%TD*%
%TO.P,Qgreeninv15,1*%
%TO.N,Net-(Qgreeninv15-Pad1)*%
X318050000Y-77500000D03*
%TO.P,Qgreeninv15,2*%
%TO.N,/AddressableLedDriver01/GndIn*%
X319950000Y-77500000D03*
%TO.P,Qgreeninv15,3*%
%TO.N,Net-(Qgreeninv15-Pad3)*%
X319000000Y-74500000D03*
%TD*%
%TO.P,Qgreeninv14,1*%
%TO.N,Net-(Qgreeninv14-Pad1)*%
X297050000Y-77500000D03*
%TO.P,Qgreeninv14,2*%
%TO.N,/AddressableLedDriver01/GndIn*%
X298950000Y-77500000D03*
%TO.P,Qgreeninv14,3*%
%TO.N,Net-(Qgreeninv14-Pad3)*%
X298000000Y-74500000D03*
%TD*%
%TO.P,Qgreeninv13,1*%
%TO.N,Net-(Qgreeninv13-Pad1)*%
X276050000Y-77500000D03*
%TO.P,Qgreeninv13,2*%
%TO.N,/AddressableLedDriver01/GndIn*%
X277950000Y-77500000D03*
%TO.P,Qgreeninv13,3*%
%TO.N,Net-(Qgreeninv13-Pad3)*%
X277000000Y-74500000D03*
%TD*%
%TO.P,Qgreeninv12,1*%
%TO.N,Net-(Qgreeninv12-Pad1)*%
X255050000Y-77500000D03*
%TO.P,Qgreeninv12,2*%
%TO.N,/AddressableLedDriver01/GndIn*%
X256950000Y-77500000D03*
%TO.P,Qgreeninv12,3*%
%TO.N,Net-(Qgreeninv12-Pad3)*%
X256000000Y-74500000D03*
%TD*%
%TO.P,Qgreeninv11,1*%
%TO.N,Net-(Qgreeninv11-Pad1)*%
X234050000Y-77500000D03*
%TO.P,Qgreeninv11,2*%
%TO.N,/AddressableLedDriver01/GndIn*%
X235950000Y-77500000D03*
%TO.P,Qgreeninv11,3*%
%TO.N,Net-(Qgreeninv11-Pad3)*%
X235000000Y-74500000D03*
%TD*%
%TO.P,Qgreeninv10,1*%
%TO.N,Net-(Qgreeninv10-Pad1)*%
X213050000Y-77500000D03*
%TO.P,Qgreeninv10,2*%
%TO.N,/AddressableLedDriver01/GndIn*%
X214950000Y-77500000D03*
%TO.P,Qgreeninv10,3*%
%TO.N,Net-(Qgreeninv10-Pad3)*%
X214000000Y-74500000D03*
%TD*%
%TO.P,Qgreeninv9,1*%
%TO.N,Net-(Qgreeninv9-Pad1)*%
X192050000Y-77500000D03*
%TO.P,Qgreeninv9,2*%
%TO.N,/AddressableLedDriver01/GndIn*%
X193950000Y-77500000D03*
%TO.P,Qgreeninv9,3*%
%TO.N,Net-(Qgreeninv9-Pad3)*%
X193000000Y-74500000D03*
%TD*%
%TO.P,Qgreeninv8,1*%
%TO.N,Net-(Qgreeninv8-Pad1)*%
X171050000Y-77500000D03*
%TO.P,Qgreeninv8,2*%
%TO.N,/AddressableLedDriver01/GndIn*%
X172950000Y-77500000D03*
%TO.P,Qgreeninv8,3*%
%TO.N,Net-(Qgreeninv8-Pad3)*%
X172000000Y-74500000D03*
%TD*%
%TO.P,Qgreeninv7,1*%
%TO.N,Net-(Qgreeninv7-Pad1)*%
X150050000Y-77500000D03*
%TO.P,Qgreeninv7,2*%
%TO.N,/AddressableLedDriver01/GndIn*%
X151950000Y-77500000D03*
%TO.P,Qgreeninv7,3*%
%TO.N,Net-(Qgreeninv7-Pad3)*%
X151000000Y-74500000D03*
%TD*%
%TO.P,Qgreeninv6,1*%
%TO.N,Net-(Qgreeninv6-Pad1)*%
X129050000Y-77500000D03*
%TO.P,Qgreeninv6,2*%
%TO.N,/AddressableLedDriver01/GndIn*%
X130950000Y-77500000D03*
%TO.P,Qgreeninv6,3*%
%TO.N,Net-(Qgreeninv6-Pad3)*%
X130000000Y-74500000D03*
%TD*%
%TO.P,Qgreeninv5,1*%
%TO.N,Net-(Qgreeninv5-Pad1)*%
X108050000Y-77500000D03*
%TO.P,Qgreeninv5,2*%
%TO.N,/AddressableLedDriver01/GndIn*%
X109950000Y-77500000D03*
%TO.P,Qgreeninv5,3*%
%TO.N,Net-(Qgreeninv5-Pad3)*%
X109000000Y-74500000D03*
%TD*%
%TO.P,Qgreeninv4,1*%
%TO.N,Net-(Qgreeninv4-Pad1)*%
X87050000Y-77500000D03*
%TO.P,Qgreeninv4,2*%
%TO.N,/AddressableLedDriver01/GndIn*%
X88950000Y-77500000D03*
%TO.P,Qgreeninv4,3*%
%TO.N,Net-(Qgreeninv4-Pad3)*%
X88000000Y-74500000D03*
%TD*%
%TO.P,Qgreeninv3,1*%
%TO.N,Net-(Qgreeninv3-Pad1)*%
X66050000Y-77500000D03*
%TO.P,Qgreeninv3,2*%
%TO.N,/AddressableLedDriver01/GndIn*%
X67950000Y-77500000D03*
%TO.P,Qgreeninv3,3*%
%TO.N,Net-(Qgreeninv3-Pad3)*%
X67000000Y-74500000D03*
%TD*%
%TO.P,Qgreeninv2,1*%
%TO.N,Net-(Qgreeninv2-Pad1)*%
X45050000Y-77500000D03*
%TO.P,Qgreeninv2,2*%
%TO.N,/AddressableLedDriver01/GndIn*%
X46950000Y-77500000D03*
%TO.P,Qgreeninv2,3*%
%TO.N,Net-(Qgreeninv2-Pad3)*%
X46000000Y-74500000D03*
%TD*%
%TO.P,Qblueout16,1*%
%TO.N,Net-(Qblueinv16-Pad3)*%
X333800000Y-67750000D03*
%TO.P,Qblueout16,2*%
%TO.N,/AddressableLedDriver01/GndIn*%
X335700000Y-67750000D03*
%TO.P,Qblueout16,3*%
%TO.N,Net-(Jrgb16-Pad4)*%
X334750000Y-64750000D03*
%TD*%
%TO.P,Qblueout15,1*%
%TO.N,Net-(Qblueinv15-Pad3)*%
X312800000Y-67750000D03*
%TO.P,Qblueout15,2*%
%TO.N,/AddressableLedDriver01/GndIn*%
X314700000Y-67750000D03*
%TO.P,Qblueout15,3*%
%TO.N,Net-(Jrgb15-Pad4)*%
X313750000Y-64750000D03*
%TD*%
%TO.P,Qblueout14,1*%
%TO.N,Net-(Qblueinv14-Pad3)*%
X291800000Y-67750000D03*
%TO.P,Qblueout14,2*%
%TO.N,/AddressableLedDriver01/GndIn*%
X293700000Y-67750000D03*
%TO.P,Qblueout14,3*%
%TO.N,Net-(Jrgb14-Pad4)*%
X292750000Y-64750000D03*
%TD*%
%TO.P,Qblueout13,1*%
%TO.N,Net-(Qblueinv13-Pad3)*%
X270800000Y-67750000D03*
%TO.P,Qblueout13,2*%
%TO.N,/AddressableLedDriver01/GndIn*%
X272700000Y-67750000D03*
%TO.P,Qblueout13,3*%
%TO.N,Net-(Jrgb13-Pad4)*%
X271750000Y-64750000D03*
%TD*%
%TO.P,Qblueout12,1*%
%TO.N,Net-(Qblueinv12-Pad3)*%
X249800000Y-67750000D03*
%TO.P,Qblueout12,2*%
%TO.N,/AddressableLedDriver01/GndIn*%
X251700000Y-67750000D03*
%TO.P,Qblueout12,3*%
%TO.N,Net-(Jrgb12-Pad4)*%
X250750000Y-64750000D03*
%TD*%
%TO.P,Qblueout11,1*%
%TO.N,Net-(Qblueinv11-Pad3)*%
X228800000Y-67750000D03*
%TO.P,Qblueout11,2*%
%TO.N,/AddressableLedDriver01/GndIn*%
X230700000Y-67750000D03*
%TO.P,Qblueout11,3*%
%TO.N,Net-(Jrgb11-Pad4)*%
X229750000Y-64750000D03*
%TD*%
%TO.P,Qblueout10,1*%
%TO.N,Net-(Qblueinv10-Pad3)*%
X207800000Y-67750000D03*
%TO.P,Qblueout10,2*%
%TO.N,/AddressableLedDriver01/GndIn*%
X209700000Y-67750000D03*
%TO.P,Qblueout10,3*%
%TO.N,Net-(Jrgb10-Pad4)*%
X208750000Y-64750000D03*
%TD*%
%TO.P,Qblueout9,1*%
%TO.N,Net-(Qblueinv9-Pad3)*%
X186800000Y-67750000D03*
%TO.P,Qblueout9,2*%
%TO.N,/AddressableLedDriver01/GndIn*%
X188700000Y-67750000D03*
%TO.P,Qblueout9,3*%
%TO.N,Net-(Jrgb9-Pad4)*%
X187750000Y-64750000D03*
%TD*%
%TO.P,Qblueout8,1*%
%TO.N,Net-(Qblueinv8-Pad3)*%
X165800000Y-67750000D03*
%TO.P,Qblueout8,2*%
%TO.N,/AddressableLedDriver01/GndIn*%
X167700000Y-67750000D03*
%TO.P,Qblueout8,3*%
%TO.N,Net-(Jrgb8-Pad4)*%
X166750000Y-64750000D03*
%TD*%
%TO.P,Qblueout7,1*%
%TO.N,Net-(Qblueinv7-Pad3)*%
X144800000Y-67750000D03*
%TO.P,Qblueout7,2*%
%TO.N,/AddressableLedDriver01/GndIn*%
X146700000Y-67750000D03*
%TO.P,Qblueout7,3*%
%TO.N,Net-(Jrgb7-Pad4)*%
X145750000Y-64750000D03*
%TD*%
%TO.P,Qblueout6,1*%
%TO.N,Net-(Qblueinv6-Pad3)*%
X124050000Y-67750000D03*
%TO.P,Qblueout6,2*%
%TO.N,/AddressableLedDriver01/GndIn*%
X125950000Y-67750000D03*
%TO.P,Qblueout6,3*%
%TO.N,Net-(Jrgb6-Pad4)*%
X125000000Y-64750000D03*
%TD*%
%TO.P,Qblueout5,1*%
%TO.N,Net-(Qblueinv5-Pad3)*%
X103050000Y-67750000D03*
%TO.P,Qblueout5,2*%
%TO.N,/AddressableLedDriver01/GndIn*%
X104950000Y-67750000D03*
%TO.P,Qblueout5,3*%
%TO.N,Net-(Jrgb5-Pad4)*%
X104000000Y-64750000D03*
%TD*%
%TO.P,Qblueout4,1*%
%TO.N,Net-(Qblueinv4-Pad3)*%
X81800000Y-67750000D03*
%TO.P,Qblueout4,2*%
%TO.N,/AddressableLedDriver01/GndIn*%
X83700000Y-67750000D03*
%TO.P,Qblueout4,3*%
%TO.N,Net-(Jrgb4-Pad4)*%
X82750000Y-64750000D03*
%TD*%
%TO.P,Qblueout3,1*%
%TO.N,Net-(Qblueinv3-Pad3)*%
X60800000Y-67750000D03*
%TO.P,Qblueout3,2*%
%TO.N,/AddressableLedDriver01/GndIn*%
X62700000Y-67750000D03*
%TO.P,Qblueout3,3*%
%TO.N,Net-(Jrgb3-Pad4)*%
X61750000Y-64750000D03*
%TD*%
%TO.P,Qblueout2,1*%
%TO.N,Net-(Qblueinv2-Pad3)*%
X40050000Y-67700000D03*
%TO.P,Qblueout2,2*%
%TO.N,/AddressableLedDriver01/GndIn*%
X41950000Y-67700000D03*
%TO.P,Qblueout2,3*%
%TO.N,Net-(Jrgb2-Pad4)*%
X41000000Y-64700000D03*
%TD*%
%TO.P,Qblueout1,1*%
%TO.N,Net-(Qblueinv1-Pad3)*%
X19050000Y-67700000D03*
%TO.P,Qblueout1,2*%
%TO.N,/AddressableLedDriver01/GndIn*%
X20950000Y-67700000D03*
%TO.P,Qblueout1,3*%
%TO.N,Net-(Jrgb1-Pad4)*%
X20000000Y-64700000D03*
%TD*%
%TO.P,Qblueinv16,1*%
%TO.N,Net-(Qblueinv16-Pad1)*%
X333800000Y-77500000D03*
%TO.P,Qblueinv16,2*%
%TO.N,/AddressableLedDriver01/GndIn*%
X335700000Y-77500000D03*
%TO.P,Qblueinv16,3*%
%TO.N,Net-(Qblueinv16-Pad3)*%
X334750000Y-74500000D03*
%TD*%
%TO.P,Qblueinv15,1*%
%TO.N,Net-(Qblueinv15-Pad1)*%
X312800000Y-77500000D03*
%TO.P,Qblueinv15,2*%
%TO.N,/AddressableLedDriver01/GndIn*%
X314700000Y-77500000D03*
%TO.P,Qblueinv15,3*%
%TO.N,Net-(Qblueinv15-Pad3)*%
X313750000Y-74500000D03*
%TD*%
%TO.P,Qblueinv14,1*%
%TO.N,Net-(Qblueinv14-Pad1)*%
X291800000Y-77500000D03*
%TO.P,Qblueinv14,2*%
%TO.N,/AddressableLedDriver01/GndIn*%
X293700000Y-77500000D03*
%TO.P,Qblueinv14,3*%
%TO.N,Net-(Qblueinv14-Pad3)*%
X292750000Y-74500000D03*
%TD*%
%TO.P,Qblueinv13,1*%
%TO.N,Net-(Qblueinv13-Pad1)*%
X270800000Y-77500000D03*
%TO.P,Qblueinv13,2*%
%TO.N,/AddressableLedDriver01/GndIn*%
X272700000Y-77500000D03*
%TO.P,Qblueinv13,3*%
%TO.N,Net-(Qblueinv13-Pad3)*%
X271750000Y-74500000D03*
%TD*%
%TO.P,Qblueinv12,1*%
%TO.N,Net-(Qblueinv12-Pad1)*%
X249800000Y-77500000D03*
%TO.P,Qblueinv12,2*%
%TO.N,/AddressableLedDriver01/GndIn*%
X251700000Y-77500000D03*
%TO.P,Qblueinv12,3*%
%TO.N,Net-(Qblueinv12-Pad3)*%
X250750000Y-74500000D03*
%TD*%
%TO.P,Qblueinv11,1*%
%TO.N,Net-(Qblueinv11-Pad1)*%
X228800000Y-77500000D03*
%TO.P,Qblueinv11,2*%
%TO.N,/AddressableLedDriver01/GndIn*%
X230700000Y-77500000D03*
%TO.P,Qblueinv11,3*%
%TO.N,Net-(Qblueinv11-Pad3)*%
X229750000Y-74500000D03*
%TD*%
%TO.P,Qblueinv10,1*%
%TO.N,Net-(Qblueinv10-Pad1)*%
X207800000Y-77500000D03*
%TO.P,Qblueinv10,2*%
%TO.N,/AddressableLedDriver01/GndIn*%
X209700000Y-77500000D03*
%TO.P,Qblueinv10,3*%
%TO.N,Net-(Qblueinv10-Pad3)*%
X208750000Y-74500000D03*
%TD*%
%TO.P,Qblueinv9,1*%
%TO.N,Net-(Qblueinv9-Pad1)*%
X186800000Y-77500000D03*
%TO.P,Qblueinv9,2*%
%TO.N,/AddressableLedDriver01/GndIn*%
X188700000Y-77500000D03*
%TO.P,Qblueinv9,3*%
%TO.N,Net-(Qblueinv9-Pad3)*%
X187750000Y-74500000D03*
%TD*%
%TO.P,Qblueinv8,1*%
%TO.N,Net-(Qblueinv8-Pad1)*%
X165800000Y-77500000D03*
%TO.P,Qblueinv8,2*%
%TO.N,/AddressableLedDriver01/GndIn*%
X167700000Y-77500000D03*
%TO.P,Qblueinv8,3*%
%TO.N,Net-(Qblueinv8-Pad3)*%
X166750000Y-74500000D03*
%TD*%
%TO.P,Qblueinv7,1*%
%TO.N,Net-(Qblueinv7-Pad1)*%
X144800000Y-77500000D03*
%TO.P,Qblueinv7,2*%
%TO.N,/AddressableLedDriver01/GndIn*%
X146700000Y-77500000D03*
%TO.P,Qblueinv7,3*%
%TO.N,Net-(Qblueinv7-Pad3)*%
X145750000Y-74500000D03*
%TD*%
%TO.P,Qblueinv6,1*%
%TO.N,Net-(Qblueinv6-Pad1)*%
X124050000Y-77500000D03*
%TO.P,Qblueinv6,2*%
%TO.N,/AddressableLedDriver01/GndIn*%
X125950000Y-77500000D03*
%TO.P,Qblueinv6,3*%
%TO.N,Net-(Qblueinv6-Pad3)*%
X125000000Y-74500000D03*
%TD*%
%TO.P,Qblueinv5,1*%
%TO.N,Net-(Qblueinv5-Pad1)*%
X103050000Y-77500000D03*
%TO.P,Qblueinv5,2*%
%TO.N,/AddressableLedDriver01/GndIn*%
X104950000Y-77500000D03*
%TO.P,Qblueinv5,3*%
%TO.N,Net-(Qblueinv5-Pad3)*%
X104000000Y-74500000D03*
%TD*%
%TO.P,Qblueinv4,1*%
%TO.N,Net-(Qblueinv4-Pad1)*%
X81800000Y-77500000D03*
%TO.P,Qblueinv4,2*%
%TO.N,/AddressableLedDriver01/GndIn*%
X83700000Y-77500000D03*
%TO.P,Qblueinv4,3*%
%TO.N,Net-(Qblueinv4-Pad3)*%
X82750000Y-74500000D03*
%TD*%
%TO.P,Qblueinv3,1*%
%TO.N,Net-(Qblueinv3-Pad1)*%
X61050000Y-77500000D03*
%TO.P,Qblueinv3,2*%
%TO.N,/AddressableLedDriver01/GndIn*%
X62950000Y-77500000D03*
%TO.P,Qblueinv3,3*%
%TO.N,Net-(Qblueinv3-Pad3)*%
X62000000Y-74500000D03*
%TD*%
%TO.P,Qblueinv2,1*%
%TO.N,Net-(Qblueinv2-Pad1)*%
X40250000Y-77500000D03*
%TO.P,Qblueinv2,2*%
%TO.N,/AddressableLedDriver01/GndIn*%
X42150000Y-77500000D03*
%TO.P,Qblueinv2,3*%
%TO.N,Net-(Qblueinv2-Pad3)*%
X41200000Y-74500000D03*
%TD*%
%TO.P,Qredout16,1*%
%TO.N,Net-(Qredinv16-Pad3)*%
X344300000Y-67750000D03*
%TO.P,Qredout16,2*%
%TO.N,/AddressableLedDriver01/GndIn*%
X346200000Y-67750000D03*
%TO.P,Qredout16,3*%
%TO.N,Net-(Jrgb16-Pad2)*%
X345250000Y-64750000D03*
%TD*%
%TO.P,Qredout15,1*%
%TO.N,Net-(Qredinv15-Pad3)*%
X323300000Y-67750000D03*
%TO.P,Qredout15,2*%
%TO.N,/AddressableLedDriver01/GndIn*%
X325200000Y-67750000D03*
%TO.P,Qredout15,3*%
%TO.N,Net-(Jrgb15-Pad2)*%
X324250000Y-64750000D03*
%TD*%
%TO.P,Qredout14,1*%
%TO.N,Net-(Qredinv14-Pad3)*%
X302300000Y-67750000D03*
%TO.P,Qredout14,2*%
%TO.N,/AddressableLedDriver01/GndIn*%
X304200000Y-67750000D03*
%TO.P,Qredout14,3*%
%TO.N,Net-(Jrgb14-Pad2)*%
X303250000Y-64750000D03*
%TD*%
%TO.P,Qredout13,1*%
%TO.N,Net-(Qredinv13-Pad3)*%
X281300000Y-67750000D03*
%TO.P,Qredout13,2*%
%TO.N,/AddressableLedDriver01/GndIn*%
X283200000Y-67750000D03*
%TO.P,Qredout13,3*%
%TO.N,Net-(Jrgb13-Pad2)*%
X282250000Y-64750000D03*
%TD*%
%TO.P,Qredout12,1*%
%TO.N,Net-(Qredinv12-Pad3)*%
X260300000Y-67750000D03*
%TO.P,Qredout12,2*%
%TO.N,/AddressableLedDriver01/GndIn*%
X262200000Y-67750000D03*
%TO.P,Qredout12,3*%
%TO.N,Net-(Jrgb12-Pad2)*%
X261250000Y-64750000D03*
%TD*%
%TO.P,Qredout11,1*%
%TO.N,Net-(Qredinv11-Pad3)*%
X239300000Y-67750000D03*
%TO.P,Qredout11,2*%
%TO.N,/AddressableLedDriver01/GndIn*%
X241200000Y-67750000D03*
%TO.P,Qredout11,3*%
%TO.N,Net-(Jrgb11-Pad2)*%
X240250000Y-64750000D03*
%TD*%
%TO.P,Qredout10,1*%
%TO.N,Net-(Qredinv10-Pad3)*%
X218300000Y-67750000D03*
%TO.P,Qredout10,2*%
%TO.N,/AddressableLedDriver01/GndIn*%
X220200000Y-67750000D03*
%TO.P,Qredout10,3*%
%TO.N,Net-(Jrgb10-Pad2)*%
X219250000Y-64750000D03*
%TD*%
%TO.P,Qredout9,1*%
%TO.N,Net-(Qredinv9-Pad3)*%
X197210000Y-67750000D03*
%TO.P,Qredout9,2*%
%TO.N,/AddressableLedDriver01/GndIn*%
X199110000Y-67750000D03*
%TO.P,Qredout9,3*%
%TO.N,Net-(Jrgb9-Pad2)*%
X198160000Y-64750000D03*
%TD*%
%TO.P,Qredout8,1*%
%TO.N,Net-(Qredinv8-Pad3)*%
X176300000Y-67750000D03*
%TO.P,Qredout8,2*%
%TO.N,/AddressableLedDriver01/GndIn*%
X178200000Y-67750000D03*
%TO.P,Qredout8,3*%
%TO.N,Net-(Jrgb8-Pad2)*%
X177250000Y-64750000D03*
%TD*%
%TO.P,Qredout7,1*%
%TO.N,Net-(Qredinv7-Pad3)*%
X155280000Y-67800000D03*
%TO.P,Qredout7,2*%
%TO.N,/AddressableLedDriver01/GndIn*%
X157180000Y-67800000D03*
%TO.P,Qredout7,3*%
%TO.N,Net-(Jrgb7-Pad2)*%
X156230000Y-64800000D03*
%TD*%
%TO.P,Qredout6,1*%
%TO.N,Net-(Qredinv6-Pad3)*%
X134300000Y-67830000D03*
%TO.P,Qredout6,2*%
%TO.N,/AddressableLedDriver01/GndIn*%
X136200000Y-67830000D03*
%TO.P,Qredout6,3*%
%TO.N,Net-(Jrgb6-Pad2)*%
X135250000Y-64830000D03*
%TD*%
%TO.P,Qredout5,1*%
%TO.N,Net-(Qredinv5-Pad3)*%
X113300000Y-67750000D03*
%TO.P,Qredout5,2*%
%TO.N,/AddressableLedDriver01/GndIn*%
X115200000Y-67750000D03*
%TO.P,Qredout5,3*%
%TO.N,Net-(Jrgb5-Pad2)*%
X114250000Y-64750000D03*
%TD*%
%TO.P,Qredout4,1*%
%TO.N,Net-(Qredinv4-Pad3)*%
X92300000Y-67750000D03*
%TO.P,Qredout4,2*%
%TO.N,/AddressableLedDriver01/GndIn*%
X94200000Y-67750000D03*
%TO.P,Qredout4,3*%
%TO.N,Net-(Jrgb4-Pad2)*%
X93250000Y-64750000D03*
%TD*%
%TO.P,Qredout3,1*%
%TO.N,Net-(Qredinv3-Pad3)*%
X71300000Y-67750000D03*
%TO.P,Qredout3,2*%
%TO.N,/AddressableLedDriver01/GndIn*%
X73200000Y-67750000D03*
%TO.P,Qredout3,3*%
%TO.N,Net-(Jrgb3-Pad2)*%
X72250000Y-64750000D03*
%TD*%
%TO.P,Qredout2,1*%
%TO.N,Net-(Qredinv2-Pad3)*%
X50050000Y-68000000D03*
%TO.P,Qredout2,2*%
%TO.N,/AddressableLedDriver01/GndIn*%
X51950000Y-68000000D03*
%TO.P,Qredout2,3*%
%TO.N,Net-(Jrgb2-Pad2)*%
X51000000Y-65000000D03*
%TD*%
%TO.P,Qredout1,1*%
%TO.N,Net-(Qredinv1-Pad3)*%
X29000000Y-68000000D03*
%TO.P,Qredout1,2*%
%TO.N,/AddressableLedDriver01/GndIn*%
X30900000Y-68000000D03*
%TO.P,Qredout1,3*%
%TO.N,Net-(Jrgb1-Pad2)*%
X29950000Y-65000000D03*
%TD*%
%TO.P,Qredinv16,1*%
%TO.N,Net-(Qredinv16-Pad1)*%
X344300000Y-77500000D03*
%TO.P,Qredinv16,2*%
%TO.N,/AddressableLedDriver01/GndIn*%
X346200000Y-77500000D03*
%TO.P,Qredinv16,3*%
%TO.N,Net-(Qredinv16-Pad3)*%
X345250000Y-74500000D03*
%TD*%
%TO.P,Qredinv15,1*%
%TO.N,Net-(Qredinv15-Pad1)*%
X323300000Y-77500000D03*
%TO.P,Qredinv15,2*%
%TO.N,/AddressableLedDriver01/GndIn*%
X325200000Y-77500000D03*
%TO.P,Qredinv15,3*%
%TO.N,Net-(Qredinv15-Pad3)*%
X324250000Y-74500000D03*
%TD*%
%TO.P,Qredinv14,1*%
%TO.N,Net-(Qredinv14-Pad1)*%
X302300000Y-77500000D03*
%TO.P,Qredinv14,2*%
%TO.N,/AddressableLedDriver01/GndIn*%
X304200000Y-77500000D03*
%TO.P,Qredinv14,3*%
%TO.N,Net-(Qredinv14-Pad3)*%
X303250000Y-74500000D03*
%TD*%
%TO.P,Qredinv13,1*%
%TO.N,Net-(Qredinv13-Pad1)*%
X281300000Y-77500000D03*
%TO.P,Qredinv13,2*%
%TO.N,/AddressableLedDriver01/GndIn*%
X283200000Y-77500000D03*
%TO.P,Qredinv13,3*%
%TO.N,Net-(Qredinv13-Pad3)*%
X282250000Y-74500000D03*
%TD*%
%TO.P,Qredinv12,1*%
%TO.N,Net-(Qredinv12-Pad1)*%
X260300000Y-77500000D03*
%TO.P,Qredinv12,2*%
%TO.N,/AddressableLedDriver01/GndIn*%
X262200000Y-77500000D03*
%TO.P,Qredinv12,3*%
%TO.N,Net-(Qredinv12-Pad3)*%
X261250000Y-74500000D03*
%TD*%
%TO.P,Qredinv11,1*%
%TO.N,Net-(Qredinv11-Pad1)*%
X239300000Y-77500000D03*
%TO.P,Qredinv11,2*%
%TO.N,/AddressableLedDriver01/GndIn*%
X241200000Y-77500000D03*
%TO.P,Qredinv11,3*%
%TO.N,Net-(Qredinv11-Pad3)*%
X240250000Y-74500000D03*
%TD*%
%TO.P,Qredinv10,1*%
%TO.N,Net-(Qredinv10-Pad1)*%
X218300000Y-77500000D03*
%TO.P,Qredinv10,2*%
%TO.N,/AddressableLedDriver01/GndIn*%
X220200000Y-77500000D03*
%TO.P,Qredinv10,3*%
%TO.N,Net-(Qredinv10-Pad3)*%
X219250000Y-74500000D03*
%TD*%
%TO.P,Qredinv9,1*%
%TO.N,Net-(Qredinv9-Pad1)*%
X197300000Y-77500000D03*
%TO.P,Qredinv9,2*%
%TO.N,/AddressableLedDriver01/GndIn*%
X199200000Y-77500000D03*
%TO.P,Qredinv9,3*%
%TO.N,Net-(Qredinv9-Pad3)*%
X198250000Y-74500000D03*
%TD*%
%TO.P,Qredinv8,1*%
%TO.N,Net-(Qredinv8-Pad1)*%
X176300000Y-77500000D03*
%TO.P,Qredinv8,2*%
%TO.N,/AddressableLedDriver01/GndIn*%
X178200000Y-77500000D03*
%TO.P,Qredinv8,3*%
%TO.N,Net-(Qredinv8-Pad3)*%
X177250000Y-74500000D03*
%TD*%
%TO.P,Qredinv7,1*%
%TO.N,Net-(Qredinv7-Pad1)*%
X155280000Y-77500000D03*
%TO.P,Qredinv7,2*%
%TO.N,/AddressableLedDriver01/GndIn*%
X157180000Y-77500000D03*
%TO.P,Qredinv7,3*%
%TO.N,Net-(Qredinv7-Pad3)*%
X156230000Y-74500000D03*
%TD*%
%TO.P,Qredinv6,1*%
%TO.N,Net-(Qredinv6-Pad1)*%
X134300000Y-77500000D03*
%TO.P,Qredinv6,2*%
%TO.N,/AddressableLedDriver01/GndIn*%
X136200000Y-77500000D03*
%TO.P,Qredinv6,3*%
%TO.N,Net-(Qredinv6-Pad3)*%
X135250000Y-74500000D03*
%TD*%
%TO.P,Qredinv5,1*%
%TO.N,Net-(Qredinv5-Pad1)*%
X113300000Y-77500000D03*
%TO.P,Qredinv5,2*%
%TO.N,/AddressableLedDriver01/GndIn*%
X115200000Y-77500000D03*
%TO.P,Qredinv5,3*%
%TO.N,Net-(Qredinv5-Pad3)*%
X114250000Y-74500000D03*
%TD*%
%TO.P,Qredinv4,1*%
%TO.N,Net-(Qredinv4-Pad1)*%
X92550000Y-77500000D03*
%TO.P,Qredinv4,2*%
%TO.N,/AddressableLedDriver01/GndIn*%
X94450000Y-77500000D03*
%TO.P,Qredinv4,3*%
%TO.N,Net-(Qredinv4-Pad3)*%
X93500000Y-74500000D03*
%TD*%
%TO.P,Qredinv3,1*%
%TO.N,Net-(Qredinv3-Pad1)*%
X71550000Y-77500000D03*
%TO.P,Qredinv3,2*%
%TO.N,/AddressableLedDriver01/GndIn*%
X73450000Y-77500000D03*
%TO.P,Qredinv3,3*%
%TO.N,Net-(Qredinv3-Pad3)*%
X72500000Y-74500000D03*
%TD*%
%TO.P,Qredinv2,1*%
%TO.N,Net-(Qredinv2-Pad1)*%
X50250000Y-77500000D03*
%TO.P,Qredinv2,2*%
%TO.N,/AddressableLedDriver01/GndIn*%
X52150000Y-77500000D03*
%TO.P,Qredinv2,3*%
%TO.N,Net-(Qredinv2-Pad3)*%
X51200000Y-74500000D03*
%TD*%
D16*
%TO.P,U16,1*%
%TO.N,Net-(Rred16-Pad2)*%
X341405000Y-88550000D03*
%TO.P,U16,2*%
%TO.N,Net-(Rgreen16-Pad2)*%
X340135000Y-88550000D03*
%TO.P,U16,3*%
%TO.N,Net-(Rblue16-Pad2)*%
X338865000Y-88550000D03*
%TO.P,U16,4*%
%TO.N,/AddressableLedDriver01/GndIn*%
X337595000Y-88550000D03*
%TO.P,U16,5*%
%TO.N,/AddressableLedDriver16/DOUT*%
X337595000Y-93950000D03*
%TO.P,U16,6*%
%TO.N,Net-(Rdin16-Pad1)*%
X338865000Y-93950000D03*
%TO.P,U16,7*%
%TO.N,Net-(Rset16-Pad2)*%
X340135000Y-93950000D03*
%TO.P,U16,8*%
%TO.N,Net-(C16-Pad1)*%
X341405000Y-93950000D03*
%TD*%
%TO.P,U15,1*%
%TO.N,Net-(Rred15-Pad2)*%
X320655000Y-88550000D03*
%TO.P,U15,2*%
%TO.N,Net-(Rgreen15-Pad2)*%
X319385000Y-88550000D03*
%TO.P,U15,3*%
%TO.N,Net-(Rblue15-Pad2)*%
X318115000Y-88550000D03*
%TO.P,U15,4*%
%TO.N,/AddressableLedDriver01/GndIn*%
X316845000Y-88550000D03*
%TO.P,U15,5*%
%TO.N,/AddressableLedDriver16/DIN*%
X316845000Y-93950000D03*
%TO.P,U15,6*%
%TO.N,Net-(Rdin15-Pad1)*%
X318115000Y-93950000D03*
%TO.P,U15,7*%
%TO.N,Net-(Rset15-Pad2)*%
X319385000Y-93950000D03*
%TO.P,U15,8*%
%TO.N,Net-(C15-Pad1)*%
X320655000Y-93950000D03*
%TD*%
%TO.P,U14,1*%
%TO.N,Net-(Rred14-Pad2)*%
X299655000Y-88550000D03*
%TO.P,U14,2*%
%TO.N,Net-(Rgreen14-Pad2)*%
X298385000Y-88550000D03*
%TO.P,U14,3*%
%TO.N,Net-(Rblue14-Pad2)*%
X297115000Y-88550000D03*
%TO.P,U14,4*%
%TO.N,/AddressableLedDriver01/GndIn*%
X295845000Y-88550000D03*
%TO.P,U14,5*%
%TO.N,/AddressableLedDriver15/DIN*%
X295845000Y-93950000D03*
%TO.P,U14,6*%
%TO.N,Net-(Rdin14-Pad1)*%
X297115000Y-93950000D03*
%TO.P,U14,7*%
%TO.N,Net-(Rset14-Pad2)*%
X298385000Y-93950000D03*
%TO.P,U14,8*%
%TO.N,Net-(C14-Pad1)*%
X299655000Y-93950000D03*
%TD*%
%TO.P,U13,1*%
%TO.N,Net-(Rred13-Pad2)*%
X278655000Y-88550000D03*
%TO.P,U13,2*%
%TO.N,Net-(Rgreen13-Pad2)*%
X277385000Y-88550000D03*
%TO.P,U13,3*%
%TO.N,Net-(Rblue13-Pad2)*%
X276115000Y-88550000D03*
%TO.P,U13,4*%
%TO.N,/AddressableLedDriver01/GndIn*%
X274845000Y-88550000D03*
%TO.P,U13,5*%
%TO.N,/AddressableLedDriver14/DIN*%
X274845000Y-93950000D03*
%TO.P,U13,6*%
%TO.N,Net-(Rdin13-Pad1)*%
X276115000Y-93950000D03*
%TO.P,U13,7*%
%TO.N,Net-(Rset13-Pad2)*%
X277385000Y-93950000D03*
%TO.P,U13,8*%
%TO.N,Net-(C13-Pad1)*%
X278655000Y-93950000D03*
%TD*%
%TO.P,U12,1*%
%TO.N,Net-(Rred12-Pad2)*%
X257655000Y-88550000D03*
%TO.P,U12,2*%
%TO.N,Net-(Rgreen12-Pad2)*%
X256385000Y-88550000D03*
%TO.P,U12,3*%
%TO.N,Net-(Rblue12-Pad2)*%
X255115000Y-88550000D03*
%TO.P,U12,4*%
%TO.N,/AddressableLedDriver01/GndIn*%
X253845000Y-88550000D03*
%TO.P,U12,5*%
%TO.N,/AddressableLedDriver13/DIN*%
X253845000Y-93950000D03*
%TO.P,U12,6*%
%TO.N,Net-(Rdin12-Pad1)*%
X255115000Y-93950000D03*
%TO.P,U12,7*%
%TO.N,Net-(Rset12-Pad2)*%
X256385000Y-93950000D03*
%TO.P,U12,8*%
%TO.N,Net-(C12-Pad1)*%
X257655000Y-93950000D03*
%TD*%
%TO.P,U11,1*%
%TO.N,Net-(Rred11-Pad2)*%
X236655000Y-88550000D03*
%TO.P,U11,2*%
%TO.N,Net-(Rgreen11-Pad2)*%
X235385000Y-88550000D03*
%TO.P,U11,3*%
%TO.N,Net-(Rblue11-Pad2)*%
X234115000Y-88550000D03*
%TO.P,U11,4*%
%TO.N,/AddressableLedDriver01/GndIn*%
X232845000Y-88550000D03*
%TO.P,U11,5*%
%TO.N,/AddressableLedDriver12/DIN*%
X232845000Y-93950000D03*
%TO.P,U11,6*%
%TO.N,Net-(Rdin11-Pad1)*%
X234115000Y-93950000D03*
%TO.P,U11,7*%
%TO.N,Net-(Rset11-Pad2)*%
X235385000Y-93950000D03*
%TO.P,U11,8*%
%TO.N,Net-(C11-Pad1)*%
X236655000Y-93950000D03*
%TD*%
%TO.P,U10,1*%
%TO.N,Net-(Rred10-Pad2)*%
X215655000Y-88550000D03*
%TO.P,U10,2*%
%TO.N,Net-(Rgreen10-Pad2)*%
X214385000Y-88550000D03*
%TO.P,U10,3*%
%TO.N,Net-(Rblue10-Pad2)*%
X213115000Y-88550000D03*
%TO.P,U10,4*%
%TO.N,/AddressableLedDriver01/GndIn*%
X211845000Y-88550000D03*
%TO.P,U10,5*%
%TO.N,/AddressableLedDriver11/DIN*%
X211845000Y-93950000D03*
%TO.P,U10,6*%
%TO.N,Net-(Rdin10-Pad1)*%
X213115000Y-93950000D03*
%TO.P,U10,7*%
%TO.N,Net-(Rset10-Pad2)*%
X214385000Y-93950000D03*
%TO.P,U10,8*%
%TO.N,Net-(C10-Pad1)*%
X215655000Y-93950000D03*
%TD*%
%TO.P,U9,1*%
%TO.N,Net-(Rred9-Pad2)*%
X194655000Y-88550000D03*
%TO.P,U9,2*%
%TO.N,Net-(Rgreen9-Pad2)*%
X193385000Y-88550000D03*
%TO.P,U9,3*%
%TO.N,Net-(Rblue9-Pad2)*%
X192115000Y-88550000D03*
%TO.P,U9,4*%
%TO.N,/AddressableLedDriver01/GndIn*%
X190845000Y-88550000D03*
%TO.P,U9,5*%
%TO.N,/AddressableLedDriver10/DIN*%
X190845000Y-93950000D03*
%TO.P,U9,6*%
%TO.N,Net-(Rdin9-Pad1)*%
X192115000Y-93950000D03*
%TO.P,U9,7*%
%TO.N,Net-(Rset9-Pad2)*%
X193385000Y-93950000D03*
%TO.P,U9,8*%
%TO.N,Net-(C9-Pad1)*%
X194655000Y-93950000D03*
%TD*%
%TO.P,U8,1*%
%TO.N,Net-(Rred8-Pad2)*%
X173655000Y-88550000D03*
%TO.P,U8,2*%
%TO.N,Net-(Rgreen8-Pad2)*%
X172385000Y-88550000D03*
%TO.P,U8,3*%
%TO.N,Net-(Rblue8-Pad2)*%
X171115000Y-88550000D03*
%TO.P,U8,4*%
%TO.N,/AddressableLedDriver01/GndIn*%
X169845000Y-88550000D03*
%TO.P,U8,5*%
%TO.N,/AddressableLedDriver09/DIN*%
X169845000Y-93950000D03*
%TO.P,U8,6*%
%TO.N,Net-(Rdin8-Pad1)*%
X171115000Y-93950000D03*
%TO.P,U8,7*%
%TO.N,Net-(Rset8-Pad2)*%
X172385000Y-93950000D03*
%TO.P,U8,8*%
%TO.N,Net-(C8-Pad1)*%
X173655000Y-93950000D03*
%TD*%
%TO.P,U7,1*%
%TO.N,Net-(Rred7-Pad2)*%
X152655000Y-88550000D03*
%TO.P,U7,2*%
%TO.N,Net-(Rgreen7-Pad2)*%
X151385000Y-88550000D03*
%TO.P,U7,3*%
%TO.N,Net-(Rblue7-Pad2)*%
X150115000Y-88550000D03*
%TO.P,U7,4*%
%TO.N,/AddressableLedDriver01/GndIn*%
X148845000Y-88550000D03*
%TO.P,U7,5*%
%TO.N,/AddressableLedDriver08/DIN*%
X148845000Y-93950000D03*
%TO.P,U7,6*%
%TO.N,Net-(Rdin7-Pad1)*%
X150115000Y-93950000D03*
%TO.P,U7,7*%
%TO.N,Net-(Rset7-Pad2)*%
X151385000Y-93950000D03*
%TO.P,U7,8*%
%TO.N,Net-(C7-Pad1)*%
X152655000Y-93950000D03*
%TD*%
%TO.P,U6,1*%
%TO.N,Net-(Rred6-Pad2)*%
X131655000Y-88550000D03*
%TO.P,U6,2*%
%TO.N,Net-(Rgreen6-Pad2)*%
X130385000Y-88550000D03*
%TO.P,U6,3*%
%TO.N,Net-(Rblue6-Pad2)*%
X129115000Y-88550000D03*
%TO.P,U6,4*%
%TO.N,/AddressableLedDriver01/GndIn*%
X127845000Y-88550000D03*
%TO.P,U6,5*%
%TO.N,/AddressableLedDriver07/DIN*%
X127845000Y-93950000D03*
%TO.P,U6,6*%
%TO.N,Net-(Rdin6-Pad1)*%
X129115000Y-93950000D03*
%TO.P,U6,7*%
%TO.N,Net-(Rset6-Pad2)*%
X130385000Y-93950000D03*
%TO.P,U6,8*%
%TO.N,Net-(C6-Pad1)*%
X131655000Y-93950000D03*
%TD*%
%TO.P,U5,1*%
%TO.N,Net-(Rred5-Pad2)*%
X110655000Y-88300000D03*
%TO.P,U5,2*%
%TO.N,Net-(Rgreen5-Pad2)*%
X109385000Y-88300000D03*
%TO.P,U5,3*%
%TO.N,Net-(Rblue5-Pad2)*%
X108115000Y-88300000D03*
%TO.P,U5,4*%
%TO.N,/AddressableLedDriver01/GndIn*%
X106845000Y-88300000D03*
%TO.P,U5,5*%
%TO.N,/AddressableLedDriver06/DIN*%
X106845000Y-93700000D03*
%TO.P,U5,6*%
%TO.N,Net-(Rdin5-Pad1)*%
X108115000Y-93700000D03*
%TO.P,U5,7*%
%TO.N,Net-(Rset5-Pad2)*%
X109385000Y-93700000D03*
%TO.P,U5,8*%
%TO.N,Net-(C5-Pad1)*%
X110655000Y-93700000D03*
%TD*%
%TO.P,U4,1*%
%TO.N,Net-(Rred4-Pad2)*%
X89655000Y-88300000D03*
%TO.P,U4,2*%
%TO.N,Net-(Rgreen4-Pad2)*%
X88385000Y-88300000D03*
%TO.P,U4,3*%
%TO.N,Net-(Rblue4-Pad2)*%
X87115000Y-88300000D03*
%TO.P,U4,4*%
%TO.N,/AddressableLedDriver01/GndIn*%
X85845000Y-88300000D03*
%TO.P,U4,5*%
%TO.N,/AddressableLedDriver05/DIN*%
X85845000Y-93700000D03*
%TO.P,U4,6*%
%TO.N,Net-(Rdin4-Pad1)*%
X87115000Y-93700000D03*
%TO.P,U4,7*%
%TO.N,Net-(Rset4-Pad2)*%
X88385000Y-93700000D03*
%TO.P,U4,8*%
%TO.N,Net-(C4-Pad1)*%
X89655000Y-93700000D03*
%TD*%
%TO.P,U3,1*%
%TO.N,Net-(Rred3-Pad2)*%
X68655000Y-88300000D03*
%TO.P,U3,2*%
%TO.N,Net-(Rgreen3-Pad2)*%
X67385000Y-88300000D03*
%TO.P,U3,3*%
%TO.N,Net-(Rblue3-Pad2)*%
X66115000Y-88300000D03*
%TO.P,U3,4*%
%TO.N,/AddressableLedDriver01/GndIn*%
X64845000Y-88300000D03*
%TO.P,U3,5*%
%TO.N,/AddressableLedDriver04/DIN*%
X64845000Y-93700000D03*
%TO.P,U3,6*%
%TO.N,Net-(Rdin3-Pad1)*%
X66115000Y-93700000D03*
%TO.P,U3,7*%
%TO.N,Net-(Rset3-Pad2)*%
X67385000Y-93700000D03*
%TO.P,U3,8*%
%TO.N,Net-(C3-Pad1)*%
X68655000Y-93700000D03*
%TD*%
%TO.P,U2,1*%
%TO.N,Net-(Rred2-Pad2)*%
X47955000Y-88350000D03*
%TO.P,U2,2*%
%TO.N,Net-(Rgreen2-Pad2)*%
X46685000Y-88350000D03*
%TO.P,U2,3*%
%TO.N,Net-(Rblue2-Pad2)*%
X45415000Y-88350000D03*
%TO.P,U2,4*%
%TO.N,/AddressableLedDriver01/GndIn*%
X44145000Y-88350000D03*
%TO.P,U2,5*%
%TO.N,/AddressableLedDriver03/DIN*%
X44145000Y-93750000D03*
%TO.P,U2,6*%
%TO.N,Net-(Rdin2-Pad1)*%
X45415000Y-93750000D03*
%TO.P,U2,7*%
%TO.N,Net-(Rset2-Pad2)*%
X46685000Y-93750000D03*
%TO.P,U2,8*%
%TO.N,Net-(C2-Pad1)*%
X47955000Y-93750000D03*
%TD*%
D15*
%TO.P,Rvdd16,1*%
%TO.N,/AddressableLedDriver01/VIn*%
X347250000Y-92300000D03*
%TO.P,Rvdd16,2*%
%TO.N,Net-(C16-Pad1)*%
X347250000Y-94200000D03*
%TD*%
%TO.P,Rvdd15,1*%
%TO.N,/AddressableLedDriver01/VIn*%
X326500000Y-92300000D03*
%TO.P,Rvdd15,2*%
%TO.N,Net-(C15-Pad1)*%
X326500000Y-94200000D03*
%TD*%
%TO.P,Rvdd14,1*%
%TO.N,/AddressableLedDriver01/VIn*%
X305500000Y-92300000D03*
%TO.P,Rvdd14,2*%
%TO.N,Net-(C14-Pad1)*%
X305500000Y-94200000D03*
%TD*%
%TO.P,Rvdd13,1*%
%TO.N,/AddressableLedDriver01/VIn*%
X284500000Y-92300000D03*
%TO.P,Rvdd13,2*%
%TO.N,Net-(C13-Pad1)*%
X284500000Y-94200000D03*
%TD*%
%TO.P,Rvdd12,1*%
%TO.N,/AddressableLedDriver01/VIn*%
X263500000Y-92300000D03*
%TO.P,Rvdd12,2*%
%TO.N,Net-(C12-Pad1)*%
X263500000Y-94200000D03*
%TD*%
%TO.P,Rvdd11,1*%
%TO.N,/AddressableLedDriver01/VIn*%
X242500000Y-92300000D03*
%TO.P,Rvdd11,2*%
%TO.N,Net-(C11-Pad1)*%
X242500000Y-94200000D03*
%TD*%
%TO.P,Rvdd10,1*%
%TO.N,/AddressableLedDriver01/VIn*%
X221500000Y-92050000D03*
%TO.P,Rvdd10,2*%
%TO.N,Net-(C10-Pad1)*%
X221500000Y-93950000D03*
%TD*%
%TO.P,Rvdd9,1*%
%TO.N,/AddressableLedDriver01/VIn*%
X200500000Y-92300000D03*
%TO.P,Rvdd9,2*%
%TO.N,Net-(C9-Pad1)*%
X200500000Y-94200000D03*
%TD*%
%TO.P,Rvdd8,1*%
%TO.N,/AddressableLedDriver01/VIn*%
X179500000Y-92300000D03*
%TO.P,Rvdd8,2*%
%TO.N,Net-(C8-Pad1)*%
X179500000Y-94200000D03*
%TD*%
%TO.P,Rvdd7,1*%
%TO.N,/AddressableLedDriver01/VIn*%
X158500000Y-92300000D03*
%TO.P,Rvdd7,2*%
%TO.N,Net-(C7-Pad1)*%
X158500000Y-94200000D03*
%TD*%
%TO.P,Rvdd6,1*%
%TO.N,/AddressableLedDriver01/VIn*%
X137500000Y-92300000D03*
%TO.P,Rvdd6,2*%
%TO.N,Net-(C6-Pad1)*%
X137500000Y-94200000D03*
%TD*%
%TO.P,Rvdd5,1*%
%TO.N,/AddressableLedDriver01/VIn*%
X116250000Y-92050000D03*
%TO.P,Rvdd5,2*%
%TO.N,Net-(C5-Pad1)*%
X116250000Y-93950000D03*
%TD*%
%TO.P,Rvdd4,1*%
%TO.N,/AddressableLedDriver01/VIn*%
X95500000Y-92050000D03*
%TO.P,Rvdd4,2*%
%TO.N,Net-(C4-Pad1)*%
X95500000Y-93950000D03*
%TD*%
%TO.P,Rvdd3,1*%
%TO.N,/AddressableLedDriver01/VIn*%
X74500000Y-92050000D03*
%TO.P,Rvdd3,2*%
%TO.N,Net-(C3-Pad1)*%
X74500000Y-93950000D03*
%TD*%
%TO.P,Rvdd2,1*%
%TO.N,/AddressableLedDriver01/VIn*%
X53500000Y-92050000D03*
%TO.P,Rvdd2,2*%
%TO.N,Net-(C2-Pad1)*%
X53500000Y-93950000D03*
%TD*%
D10*
%TO.P,Rredout16,1*%
%TO.N,Net-(C16-Pad1)*%
X346200000Y-71250000D03*
%TO.P,Rredout16,2*%
%TO.N,Net-(Qredinv16-Pad3)*%
X344300000Y-71250000D03*
%TD*%
%TO.P,Rredout15,1*%
%TO.N,Net-(C15-Pad1)*%
X325200000Y-71250000D03*
%TO.P,Rredout15,2*%
%TO.N,Net-(Qredinv15-Pad3)*%
X323300000Y-71250000D03*
%TD*%
%TO.P,Rredout14,1*%
%TO.N,Net-(C14-Pad1)*%
X304200000Y-71250000D03*
%TO.P,Rredout14,2*%
%TO.N,Net-(Qredinv14-Pad3)*%
X302300000Y-71250000D03*
%TD*%
%TO.P,Rredout13,1*%
%TO.N,Net-(C13-Pad1)*%
X283200000Y-71250000D03*
%TO.P,Rredout13,2*%
%TO.N,Net-(Qredinv13-Pad3)*%
X281300000Y-71250000D03*
%TD*%
%TO.P,Rredout12,1*%
%TO.N,Net-(C12-Pad1)*%
X262200000Y-71250000D03*
%TO.P,Rredout12,2*%
%TO.N,Net-(Qredinv12-Pad3)*%
X260300000Y-71250000D03*
%TD*%
%TO.P,Rredout11,1*%
%TO.N,Net-(C11-Pad1)*%
X241200000Y-71250000D03*
%TO.P,Rredout11,2*%
%TO.N,Net-(Qredinv11-Pad3)*%
X239300000Y-71250000D03*
%TD*%
%TO.P,Rredout10,1*%
%TO.N,Net-(C10-Pad1)*%
X220200000Y-71250000D03*
%TO.P,Rredout10,2*%
%TO.N,Net-(Qredinv10-Pad3)*%
X218300000Y-71250000D03*
%TD*%
%TO.P,Rredout9,1*%
%TO.N,Net-(C9-Pad1)*%
X199200000Y-71250000D03*
%TO.P,Rredout9,2*%
%TO.N,Net-(Qredinv9-Pad3)*%
X197300000Y-71250000D03*
%TD*%
%TO.P,Rredout8,1*%
%TO.N,Net-(C8-Pad1)*%
X178200000Y-71250000D03*
%TO.P,Rredout8,2*%
%TO.N,Net-(Qredinv8-Pad3)*%
X176300000Y-71250000D03*
%TD*%
%TO.P,Rredout7,1*%
%TO.N,Net-(C7-Pad1)*%
X157200000Y-71250000D03*
%TO.P,Rredout7,2*%
%TO.N,Net-(Qredinv7-Pad3)*%
X155300000Y-71250000D03*
%TD*%
%TO.P,Rredout6,1*%
%TO.N,Net-(C6-Pad1)*%
X136200000Y-71250000D03*
%TO.P,Rredout6,2*%
%TO.N,Net-(Qredinv6-Pad3)*%
X134300000Y-71250000D03*
%TD*%
%TO.P,Rredout5,1*%
%TO.N,Net-(C5-Pad1)*%
X115200000Y-71250000D03*
%TO.P,Rredout5,2*%
%TO.N,Net-(Qredinv5-Pad3)*%
X113300000Y-71250000D03*
%TD*%
%TO.P,Rredout4,1*%
%TO.N,Net-(C4-Pad1)*%
X94450000Y-71250000D03*
%TO.P,Rredout4,2*%
%TO.N,Net-(Qredinv4-Pad3)*%
X92550000Y-71250000D03*
%TD*%
%TO.P,Rredout3,1*%
%TO.N,Net-(C3-Pad1)*%
X73450000Y-71250000D03*
%TO.P,Rredout3,2*%
%TO.N,Net-(Qredinv3-Pad3)*%
X71550000Y-71250000D03*
%TD*%
%TO.P,Rredout2,1*%
%TO.N,Net-(C2-Pad1)*%
X52150000Y-71200000D03*
%TO.P,Rredout2,2*%
%TO.N,Net-(Qredinv2-Pad3)*%
X50250000Y-71200000D03*
%TD*%
%TO.P,Rredinv16,1*%
%TO.N,Net-(C16-Pad1)*%
X346200000Y-80750000D03*
%TO.P,Rredinv16,2*%
%TO.N,Net-(Qredinv16-Pad1)*%
X344300000Y-80750000D03*
%TD*%
%TO.P,Rredinv15,1*%
%TO.N,Net-(C15-Pad1)*%
X325200000Y-80750000D03*
%TO.P,Rredinv15,2*%
%TO.N,Net-(Qredinv15-Pad1)*%
X323300000Y-80750000D03*
%TD*%
%TO.P,Rredinv14,1*%
%TO.N,Net-(C14-Pad1)*%
X304200000Y-80750000D03*
%TO.P,Rredinv14,2*%
%TO.N,Net-(Qredinv14-Pad1)*%
X302300000Y-80750000D03*
%TD*%
%TO.P,Rredinv13,1*%
%TO.N,Net-(C13-Pad1)*%
X283200000Y-80750000D03*
%TO.P,Rredinv13,2*%
%TO.N,Net-(Qredinv13-Pad1)*%
X281300000Y-80750000D03*
%TD*%
%TO.P,Rredinv12,1*%
%TO.N,Net-(C12-Pad1)*%
X262200000Y-80750000D03*
%TO.P,Rredinv12,2*%
%TO.N,Net-(Qredinv12-Pad1)*%
X260300000Y-80750000D03*
%TD*%
%TO.P,Rredinv11,1*%
%TO.N,Net-(C11-Pad1)*%
X241200000Y-80750000D03*
%TO.P,Rredinv11,2*%
%TO.N,Net-(Qredinv11-Pad1)*%
X239300000Y-80750000D03*
%TD*%
%TO.P,Rredinv10,1*%
%TO.N,Net-(C10-Pad1)*%
X220200000Y-80750000D03*
%TO.P,Rredinv10,2*%
%TO.N,Net-(Qredinv10-Pad1)*%
X218300000Y-80750000D03*
%TD*%
%TO.P,Rredinv9,1*%
%TO.N,Net-(C9-Pad1)*%
X199200000Y-80750000D03*
%TO.P,Rredinv9,2*%
%TO.N,Net-(Qredinv9-Pad1)*%
X197300000Y-80750000D03*
%TD*%
%TO.P,Rredinv8,1*%
%TO.N,Net-(C8-Pad1)*%
X178200000Y-80750000D03*
%TO.P,Rredinv8,2*%
%TO.N,Net-(Qredinv8-Pad1)*%
X176300000Y-80750000D03*
%TD*%
%TO.P,Rredinv7,1*%
%TO.N,Net-(C7-Pad1)*%
X157200000Y-80750000D03*
%TO.P,Rredinv7,2*%
%TO.N,Net-(Qredinv7-Pad1)*%
X155300000Y-80750000D03*
%TD*%
%TO.P,Rredinv6,1*%
%TO.N,Net-(C6-Pad1)*%
X136200000Y-80750000D03*
%TO.P,Rredinv6,2*%
%TO.N,Net-(Qredinv6-Pad1)*%
X134300000Y-80750000D03*
%TD*%
%TO.P,Rredinv5,1*%
%TO.N,Net-(C5-Pad1)*%
X115200000Y-80750000D03*
%TO.P,Rredinv5,2*%
%TO.N,Net-(Qredinv5-Pad1)*%
X113300000Y-80750000D03*
%TD*%
%TO.P,Rredinv4,1*%
%TO.N,Net-(C4-Pad1)*%
X94450000Y-80750000D03*
%TO.P,Rredinv4,2*%
%TO.N,Net-(Qredinv4-Pad1)*%
X92550000Y-80750000D03*
%TD*%
%TO.P,Rredinv3,1*%
%TO.N,Net-(C3-Pad1)*%
X73700000Y-80750000D03*
%TO.P,Rredinv3,2*%
%TO.N,Net-(Qredinv3-Pad1)*%
X71800000Y-80750000D03*
%TD*%
%TO.P,Rredinv2,1*%
%TO.N,Net-(C2-Pad1)*%
X52150000Y-80750000D03*
%TO.P,Rredinv2,2*%
%TO.N,Net-(Qredinv2-Pad1)*%
X50250000Y-80750000D03*
%TD*%
D15*
%TO.P,Rred16,1*%
%TO.N,Net-(Qredinv16-Pad1)*%
X344250000Y-83550000D03*
%TO.P,Rred16,2*%
%TO.N,Net-(Rred16-Pad2)*%
X344250000Y-85450000D03*
%TD*%
%TO.P,Rred15,1*%
%TO.N,Net-(Qredinv15-Pad1)*%
X323250000Y-83550000D03*
%TO.P,Rred15,2*%
%TO.N,Net-(Rred15-Pad2)*%
X323250000Y-85450000D03*
%TD*%
%TO.P,Rred14,1*%
%TO.N,Net-(Qredinv14-Pad1)*%
X302250000Y-83550000D03*
%TO.P,Rred14,2*%
%TO.N,Net-(Rred14-Pad2)*%
X302250000Y-85450000D03*
%TD*%
%TO.P,Rred13,1*%
%TO.N,Net-(Qredinv13-Pad1)*%
X281250000Y-83550000D03*
%TO.P,Rred13,2*%
%TO.N,Net-(Rred13-Pad2)*%
X281250000Y-85450000D03*
%TD*%
%TO.P,Rred12,1*%
%TO.N,Net-(Qredinv12-Pad1)*%
X260250000Y-83550000D03*
%TO.P,Rred12,2*%
%TO.N,Net-(Rred12-Pad2)*%
X260250000Y-85450000D03*
%TD*%
%TO.P,Rred11,1*%
%TO.N,Net-(Qredinv11-Pad1)*%
X239250000Y-83550000D03*
%TO.P,Rred11,2*%
%TO.N,Net-(Rred11-Pad2)*%
X239250000Y-85450000D03*
%TD*%
%TO.P,Rred10,1*%
%TO.N,Net-(Qredinv10-Pad1)*%
X218250000Y-83550000D03*
%TO.P,Rred10,2*%
%TO.N,Net-(Rred10-Pad2)*%
X218250000Y-85450000D03*
%TD*%
%TO.P,Rred9,1*%
%TO.N,Net-(Qredinv9-Pad1)*%
X197250000Y-83550000D03*
%TO.P,Rred9,2*%
%TO.N,Net-(Rred9-Pad2)*%
X197250000Y-85450000D03*
%TD*%
%TO.P,Rred8,1*%
%TO.N,Net-(Qredinv8-Pad1)*%
X176250000Y-83550000D03*
%TO.P,Rred8,2*%
%TO.N,Net-(Rred8-Pad2)*%
X176250000Y-85450000D03*
%TD*%
%TO.P,Rred7,1*%
%TO.N,Net-(Qredinv7-Pad1)*%
X155250000Y-83550000D03*
%TO.P,Rred7,2*%
%TO.N,Net-(Rred7-Pad2)*%
X155250000Y-85450000D03*
%TD*%
%TO.P,Rred6,1*%
%TO.N,Net-(Qredinv6-Pad1)*%
X134250000Y-83550000D03*
%TO.P,Rred6,2*%
%TO.N,Net-(Rred6-Pad2)*%
X134250000Y-85450000D03*
%TD*%
%TO.P,Rred5,1*%
%TO.N,Net-(Qredinv5-Pad1)*%
X113250000Y-83550000D03*
%TO.P,Rred5,2*%
%TO.N,Net-(Rred5-Pad2)*%
X113250000Y-85450000D03*
%TD*%
%TO.P,Rred4,1*%
%TO.N,Net-(Qredinv4-Pad1)*%
X92500000Y-83550000D03*
%TO.P,Rred4,2*%
%TO.N,Net-(Rred4-Pad2)*%
X92500000Y-85450000D03*
%TD*%
%TO.P,Rred3,1*%
%TO.N,Net-(Qredinv3-Pad1)*%
X71750000Y-83550000D03*
%TO.P,Rred3,2*%
%TO.N,Net-(Rred3-Pad2)*%
X71750000Y-85450000D03*
%TD*%
%TO.P,Rred2,1*%
%TO.N,Net-(Qredinv2-Pad1)*%
X50200000Y-83600000D03*
%TO.P,Rred2,2*%
%TO.N,Net-(Rred2-Pad2)*%
X50200000Y-85500000D03*
%TD*%
D10*
%TO.P,Rgreenout16,1*%
%TO.N,Net-(C16-Pad1)*%
X340950000Y-71250000D03*
%TO.P,Rgreenout16,2*%
%TO.N,Net-(Qgreeninv16-Pad3)*%
X339050000Y-71250000D03*
%TD*%
%TO.P,Rgreenout15,1*%
%TO.N,Net-(C15-Pad1)*%
X319950000Y-71250000D03*
%TO.P,Rgreenout15,2*%
%TO.N,Net-(Qgreeninv15-Pad3)*%
X318050000Y-71250000D03*
%TD*%
%TO.P,Rgreenout14,1*%
%TO.N,Net-(C14-Pad1)*%
X298950000Y-71250000D03*
%TO.P,Rgreenout14,2*%
%TO.N,Net-(Qgreeninv14-Pad3)*%
X297050000Y-71250000D03*
%TD*%
%TO.P,Rgreenout13,1*%
%TO.N,Net-(C13-Pad1)*%
X277950000Y-71250000D03*
%TO.P,Rgreenout13,2*%
%TO.N,Net-(Qgreeninv13-Pad3)*%
X276050000Y-71250000D03*
%TD*%
%TO.P,Rgreenout12,1*%
%TO.N,Net-(C12-Pad1)*%
X256950000Y-71250000D03*
%TO.P,Rgreenout12,2*%
%TO.N,Net-(Qgreeninv12-Pad3)*%
X255050000Y-71250000D03*
%TD*%
%TO.P,Rgreenout11,1*%
%TO.N,Net-(C11-Pad1)*%
X235950000Y-71250000D03*
%TO.P,Rgreenout11,2*%
%TO.N,Net-(Qgreeninv11-Pad3)*%
X234050000Y-71250000D03*
%TD*%
%TO.P,Rgreenout10,1*%
%TO.N,Net-(C10-Pad1)*%
X214950000Y-71250000D03*
%TO.P,Rgreenout10,2*%
%TO.N,Net-(Qgreeninv10-Pad3)*%
X213050000Y-71250000D03*
%TD*%
%TO.P,Rgreenout9,1*%
%TO.N,Net-(C9-Pad1)*%
X193950000Y-71250000D03*
%TO.P,Rgreenout9,2*%
%TO.N,Net-(Qgreeninv9-Pad3)*%
X192050000Y-71250000D03*
%TD*%
%TO.P,Rgreenout8,1*%
%TO.N,Net-(C8-Pad1)*%
X172950000Y-71250000D03*
%TO.P,Rgreenout8,2*%
%TO.N,Net-(Qgreeninv8-Pad3)*%
X171050000Y-71250000D03*
%TD*%
%TO.P,Rgreenout7,1*%
%TO.N,Net-(C7-Pad1)*%
X151950000Y-71250000D03*
%TO.P,Rgreenout7,2*%
%TO.N,Net-(Qgreeninv7-Pad3)*%
X150050000Y-71250000D03*
%TD*%
%TO.P,Rgreenout6,1*%
%TO.N,Net-(C6-Pad1)*%
X130950000Y-71250000D03*
%TO.P,Rgreenout6,2*%
%TO.N,Net-(Qgreeninv6-Pad3)*%
X129050000Y-71250000D03*
%TD*%
%TO.P,Rgreenout5,1*%
%TO.N,Net-(C5-Pad1)*%
X109950000Y-71250000D03*
%TO.P,Rgreenout5,2*%
%TO.N,Net-(Qgreeninv5-Pad3)*%
X108050000Y-71250000D03*
%TD*%
%TO.P,Rgreenout4,1*%
%TO.N,Net-(C4-Pad1)*%
X88950000Y-71250000D03*
%TO.P,Rgreenout4,2*%
%TO.N,Net-(Qgreeninv4-Pad3)*%
X87050000Y-71250000D03*
%TD*%
%TO.P,Rgreenout3,1*%
%TO.N,Net-(C3-Pad1)*%
X68200000Y-71250000D03*
%TO.P,Rgreenout3,2*%
%TO.N,Net-(Qgreeninv3-Pad3)*%
X66300000Y-71250000D03*
%TD*%
%TO.P,Rgreenout2,1*%
%TO.N,Net-(C2-Pad1)*%
X46950000Y-71200000D03*
%TO.P,Rgreenout2,2*%
%TO.N,Net-(Qgreeninv2-Pad3)*%
X45050000Y-71200000D03*
%TD*%
%TO.P,Rgreeninv16,1*%
%TO.N,Net-(C16-Pad1)*%
X340950000Y-80750000D03*
%TO.P,Rgreeninv16,2*%
%TO.N,Net-(Qgreeninv16-Pad1)*%
X339050000Y-80750000D03*
%TD*%
%TO.P,Rgreeninv15,1*%
%TO.N,Net-(C15-Pad1)*%
X319950000Y-80750000D03*
%TO.P,Rgreeninv15,2*%
%TO.N,Net-(Qgreeninv15-Pad1)*%
X318050000Y-80750000D03*
%TD*%
%TO.P,Rgreeninv14,1*%
%TO.N,Net-(C14-Pad1)*%
X298950000Y-80750000D03*
%TO.P,Rgreeninv14,2*%
%TO.N,Net-(Qgreeninv14-Pad1)*%
X297050000Y-80750000D03*
%TD*%
%TO.P,Rgreeninv13,1*%
%TO.N,Net-(C13-Pad1)*%
X277950000Y-80750000D03*
%TO.P,Rgreeninv13,2*%
%TO.N,Net-(Qgreeninv13-Pad1)*%
X276050000Y-80750000D03*
%TD*%
%TO.P,Rgreeninv12,1*%
%TO.N,Net-(C12-Pad1)*%
X256950000Y-80750000D03*
%TO.P,Rgreeninv12,2*%
%TO.N,Net-(Qgreeninv12-Pad1)*%
X255050000Y-80750000D03*
%TD*%
%TO.P,Rgreeninv11,1*%
%TO.N,Net-(C11-Pad1)*%
X235950000Y-80750000D03*
%TO.P,Rgreeninv11,2*%
%TO.N,Net-(Qgreeninv11-Pad1)*%
X234050000Y-80750000D03*
%TD*%
%TO.P,Rgreeninv10,1*%
%TO.N,Net-(C10-Pad1)*%
X214950000Y-80750000D03*
%TO.P,Rgreeninv10,2*%
%TO.N,Net-(Qgreeninv10-Pad1)*%
X213050000Y-80750000D03*
%TD*%
%TO.P,Rgreeninv9,1*%
%TO.N,Net-(C9-Pad1)*%
X193950000Y-80750000D03*
%TO.P,Rgreeninv9,2*%
%TO.N,Net-(Qgreeninv9-Pad1)*%
X192050000Y-80750000D03*
%TD*%
%TO.P,Rgreeninv8,1*%
%TO.N,Net-(C8-Pad1)*%
X172950000Y-80750000D03*
%TO.P,Rgreeninv8,2*%
%TO.N,Net-(Qgreeninv8-Pad1)*%
X171050000Y-80750000D03*
%TD*%
%TO.P,Rgreeninv7,1*%
%TO.N,Net-(C7-Pad1)*%
X151950000Y-80750000D03*
%TO.P,Rgreeninv7,2*%
%TO.N,Net-(Qgreeninv7-Pad1)*%
X150050000Y-80750000D03*
%TD*%
%TO.P,Rgreeninv6,1*%
%TO.N,Net-(C6-Pad1)*%
X130950000Y-80750000D03*
%TO.P,Rgreeninv6,2*%
%TO.N,Net-(Qgreeninv6-Pad1)*%
X129050000Y-80750000D03*
%TD*%
%TO.P,Rgreeninv5,1*%
%TO.N,Net-(C5-Pad1)*%
X109950000Y-80750000D03*
%TO.P,Rgreeninv5,2*%
%TO.N,Net-(Qgreeninv5-Pad1)*%
X108050000Y-80750000D03*
%TD*%
%TO.P,Rgreeninv4,1*%
%TO.N,Net-(C4-Pad1)*%
X88950000Y-80750000D03*
%TO.P,Rgreeninv4,2*%
%TO.N,Net-(Qgreeninv4-Pad1)*%
X87050000Y-80750000D03*
%TD*%
%TO.P,Rgreeninv3,1*%
%TO.N,Net-(C3-Pad1)*%
X68200000Y-80750000D03*
%TO.P,Rgreeninv3,2*%
%TO.N,Net-(Qgreeninv3-Pad1)*%
X66300000Y-80750000D03*
%TD*%
%TO.P,Rgreeninv2,1*%
%TO.N,Net-(C2-Pad1)*%
X47150000Y-80750000D03*
%TO.P,Rgreeninv2,2*%
%TO.N,Net-(Qgreeninv2-Pad1)*%
X45250000Y-80750000D03*
%TD*%
D15*
%TO.P,Rgreen16,1*%
%TO.N,Net-(Qgreeninv16-Pad1)*%
X339000000Y-83550000D03*
%TO.P,Rgreen16,2*%
%TO.N,Net-(Rgreen16-Pad2)*%
X339000000Y-85450000D03*
%TD*%
%TO.P,Rgreen15,1*%
%TO.N,Net-(Qgreeninv15-Pad1)*%
X318000000Y-83550000D03*
%TO.P,Rgreen15,2*%
%TO.N,Net-(Rgreen15-Pad2)*%
X318000000Y-85450000D03*
%TD*%
%TO.P,Rgreen14,1*%
%TO.N,Net-(Qgreeninv14-Pad1)*%
X297000000Y-83550000D03*
%TO.P,Rgreen14,2*%
%TO.N,Net-(Rgreen14-Pad2)*%
X297000000Y-85450000D03*
%TD*%
%TO.P,Rgreen13,1*%
%TO.N,Net-(Qgreeninv13-Pad1)*%
X276000000Y-83550000D03*
%TO.P,Rgreen13,2*%
%TO.N,Net-(Rgreen13-Pad2)*%
X276000000Y-85450000D03*
%TD*%
%TO.P,Rgreen12,1*%
%TO.N,Net-(Qgreeninv12-Pad1)*%
X255000000Y-83550000D03*
%TO.P,Rgreen12,2*%
%TO.N,Net-(Rgreen12-Pad2)*%
X255000000Y-85450000D03*
%TD*%
%TO.P,Rgreen11,1*%
%TO.N,Net-(Qgreeninv11-Pad1)*%
X234000000Y-83550000D03*
%TO.P,Rgreen11,2*%
%TO.N,Net-(Rgreen11-Pad2)*%
X234000000Y-85450000D03*
%TD*%
%TO.P,Rgreen10,1*%
%TO.N,Net-(Qgreeninv10-Pad1)*%
X213000000Y-83500000D03*
%TO.P,Rgreen10,2*%
%TO.N,Net-(Rgreen10-Pad2)*%
X213000000Y-85400000D03*
%TD*%
%TO.P,Rgreen9,1*%
%TO.N,Net-(Qgreeninv9-Pad1)*%
X192000000Y-83550000D03*
%TO.P,Rgreen9,2*%
%TO.N,Net-(Rgreen9-Pad2)*%
X192000000Y-85450000D03*
%TD*%
%TO.P,Rgreen8,1*%
%TO.N,Net-(Qgreeninv8-Pad1)*%
X171000000Y-83550000D03*
%TO.P,Rgreen8,2*%
%TO.N,Net-(Rgreen8-Pad2)*%
X171000000Y-85450000D03*
%TD*%
%TO.P,Rgreen7,1*%
%TO.N,Net-(Qgreeninv7-Pad1)*%
X150000000Y-83550000D03*
%TO.P,Rgreen7,2*%
%TO.N,Net-(Rgreen7-Pad2)*%
X150000000Y-85450000D03*
%TD*%
%TO.P,Rgreen6,1*%
%TO.N,Net-(Qgreeninv6-Pad1)*%
X129000000Y-83550000D03*
%TO.P,Rgreen6,2*%
%TO.N,Net-(Rgreen6-Pad2)*%
X129000000Y-85450000D03*
%TD*%
%TO.P,Rgreen5,1*%
%TO.N,Net-(Qgreeninv5-Pad1)*%
X108000000Y-83550000D03*
%TO.P,Rgreen5,2*%
%TO.N,Net-(Rgreen5-Pad2)*%
X108000000Y-85450000D03*
%TD*%
%TO.P,Rgreen4,1*%
%TO.N,Net-(Qgreeninv4-Pad1)*%
X87000000Y-83550000D03*
%TO.P,Rgreen4,2*%
%TO.N,Net-(Rgreen4-Pad2)*%
X87000000Y-85450000D03*
%TD*%
%TO.P,Rgreen3,1*%
%TO.N,Net-(Qgreeninv3-Pad1)*%
X66000000Y-83550000D03*
%TO.P,Rgreen3,2*%
%TO.N,Net-(Rgreen3-Pad2)*%
X66000000Y-85450000D03*
%TD*%
%TO.P,Rgreen2,1*%
%TO.N,Net-(Qgreeninv2-Pad1)*%
X45200000Y-83600000D03*
%TO.P,Rgreen2,2*%
%TO.N,Net-(Rgreen2-Pad2)*%
X45200000Y-85500000D03*
%TD*%
D10*
%TO.P,Rdin16,1*%
%TO.N,Net-(Rdin16-Pad1)*%
X335200000Y-87250000D03*
%TO.P,Rdin16,2*%
%TO.N,/AddressableLedDriver16/DIN*%
X333300000Y-87250000D03*
%TD*%
%TO.P,Rdin15,1*%
%TO.N,Net-(Rdin15-Pad1)*%
X314200000Y-87250000D03*
%TO.P,Rdin15,2*%
%TO.N,/AddressableLedDriver15/DIN*%
X312300000Y-87250000D03*
%TD*%
%TO.P,Rdin14,1*%
%TO.N,Net-(Rdin14-Pad1)*%
X293200000Y-87000000D03*
%TO.P,Rdin14,2*%
%TO.N,/AddressableLedDriver14/DIN*%
X291300000Y-87000000D03*
%TD*%
%TO.P,Rdin13,1*%
%TO.N,Net-(Rdin13-Pad1)*%
X272450000Y-87250000D03*
%TO.P,Rdin13,2*%
%TO.N,/AddressableLedDriver13/DIN*%
X270550000Y-87250000D03*
%TD*%
%TO.P,Rdin12,1*%
%TO.N,Net-(Rdin12-Pad1)*%
X251450000Y-87500000D03*
%TO.P,Rdin12,2*%
%TO.N,/AddressableLedDriver12/DIN*%
X249550000Y-87500000D03*
%TD*%
%TO.P,Rdin10,1*%
%TO.N,Net-(Rdin10-Pad1)*%
X209450000Y-87250000D03*
%TO.P,Rdin10,2*%
%TO.N,/AddressableLedDriver10/DIN*%
X207550000Y-87250000D03*
%TD*%
%TO.P,Rdin9,1*%
%TO.N,Net-(Rdin9-Pad1)*%
X188200000Y-87250000D03*
%TO.P,Rdin9,2*%
%TO.N,/AddressableLedDriver09/DIN*%
X186300000Y-87250000D03*
%TD*%
%TO.P,Rdin8,1*%
%TO.N,Net-(Rdin8-Pad1)*%
X167200000Y-87500000D03*
%TO.P,Rdin8,2*%
%TO.N,/AddressableLedDriver08/DIN*%
X165300000Y-87500000D03*
%TD*%
%TO.P,Rdin6,1*%
%TO.N,Net-(Rdin6-Pad1)*%
X125450000Y-87000000D03*
%TO.P,Rdin6,2*%
%TO.N,/AddressableLedDriver06/DIN*%
X123550000Y-87000000D03*
%TD*%
%TO.P,Rdin5,1*%
%TO.N,Net-(Rdin5-Pad1)*%
X104450000Y-87250000D03*
%TO.P,Rdin5,2*%
%TO.N,/AddressableLedDriver05/DIN*%
X102550000Y-87250000D03*
%TD*%
%TO.P,Rdin4,1*%
%TO.N,Net-(Rdin4-Pad1)*%
X83450000Y-87250000D03*
%TO.P,Rdin4,2*%
%TO.N,/AddressableLedDriver04/DIN*%
X81550000Y-87250000D03*
%TD*%
%TO.P,Rdin3,1*%
%TO.N,Net-(Rdin3-Pad1)*%
X62450000Y-87250000D03*
%TO.P,Rdin3,2*%
%TO.N,/AddressableLedDriver03/DIN*%
X60550000Y-87250000D03*
%TD*%
%TO.P,Rdin2,1*%
%TO.N,Net-(Rdin2-Pad1)*%
X41450000Y-87250000D03*
%TO.P,Rdin2,2*%
%TO.N,/AddressableLedDriver02/DIN*%
X39550000Y-87250000D03*
%TD*%
%TO.P,Rblueout16,1*%
%TO.N,Net-(C16-Pad1)*%
X335700000Y-71250000D03*
%TO.P,Rblueout16,2*%
%TO.N,Net-(Qblueinv16-Pad3)*%
X333800000Y-71250000D03*
%TD*%
%TO.P,Rblueout15,1*%
%TO.N,Net-(C15-Pad1)*%
X314700000Y-71250000D03*
%TO.P,Rblueout15,2*%
%TO.N,Net-(Qblueinv15-Pad3)*%
X312800000Y-71250000D03*
%TD*%
%TO.P,Rblueout14,1*%
%TO.N,Net-(C14-Pad1)*%
X293700000Y-71250000D03*
%TO.P,Rblueout14,2*%
%TO.N,Net-(Qblueinv14-Pad3)*%
X291800000Y-71250000D03*
%TD*%
%TO.P,Rblueout13,1*%
%TO.N,Net-(C13-Pad1)*%
X272700000Y-71250000D03*
%TO.P,Rblueout13,2*%
%TO.N,Net-(Qblueinv13-Pad3)*%
X270800000Y-71250000D03*
%TD*%
%TO.P,Rblueout12,1*%
%TO.N,Net-(C12-Pad1)*%
X251700000Y-71250000D03*
%TO.P,Rblueout12,2*%
%TO.N,Net-(Qblueinv12-Pad3)*%
X249800000Y-71250000D03*
%TD*%
%TO.P,Rblueout11,1*%
%TO.N,Net-(C11-Pad1)*%
X230700000Y-71250000D03*
%TO.P,Rblueout11,2*%
%TO.N,Net-(Qblueinv11-Pad3)*%
X228800000Y-71250000D03*
%TD*%
%TO.P,Rblueout10,1*%
%TO.N,Net-(C10-Pad1)*%
X209700000Y-71250000D03*
%TO.P,Rblueout10,2*%
%TO.N,Net-(Qblueinv10-Pad3)*%
X207800000Y-71250000D03*
%TD*%
%TO.P,Rblueout9,1*%
%TO.N,Net-(C9-Pad1)*%
X188700000Y-71250000D03*
%TO.P,Rblueout9,2*%
%TO.N,Net-(Qblueinv9-Pad3)*%
X186800000Y-71250000D03*
%TD*%
%TO.P,Rblueout8,1*%
%TO.N,Net-(C8-Pad1)*%
X167700000Y-71250000D03*
%TO.P,Rblueout8,2*%
%TO.N,Net-(Qblueinv8-Pad3)*%
X165800000Y-71250000D03*
%TD*%
%TO.P,Rblueout7,1*%
%TO.N,Net-(C7-Pad1)*%
X146700000Y-71250000D03*
%TO.P,Rblueout7,2*%
%TO.N,Net-(Qblueinv7-Pad3)*%
X144800000Y-71250000D03*
%TD*%
%TO.P,Rblueout6,1*%
%TO.N,Net-(C6-Pad1)*%
X125950000Y-71250000D03*
%TO.P,Rblueout6,2*%
%TO.N,Net-(Qblueinv6-Pad3)*%
X124050000Y-71250000D03*
%TD*%
%TO.P,Rblueout5,1*%
%TO.N,Net-(C5-Pad1)*%
X104950000Y-71250000D03*
%TO.P,Rblueout5,2*%
%TO.N,Net-(Qblueinv5-Pad3)*%
X103050000Y-71250000D03*
%TD*%
%TO.P,Rblueout4,1*%
%TO.N,Net-(C4-Pad1)*%
X83700000Y-71250000D03*
%TO.P,Rblueout4,2*%
%TO.N,Net-(Qblueinv4-Pad3)*%
X81800000Y-71250000D03*
%TD*%
%TO.P,Rblueout3,1*%
%TO.N,Net-(C3-Pad1)*%
X62950000Y-71250000D03*
%TO.P,Rblueout3,2*%
%TO.N,Net-(Qblueinv3-Pad3)*%
X61050000Y-71250000D03*
%TD*%
%TO.P,Rblueout2,1*%
%TO.N,Net-(C2-Pad1)*%
X42150000Y-71200000D03*
%TO.P,Rblueout2,2*%
%TO.N,Net-(Qblueinv2-Pad3)*%
X40250000Y-71200000D03*
%TD*%
%TO.P,Rblueinv16,1*%
%TO.N,Net-(C16-Pad1)*%
X335700000Y-80750000D03*
%TO.P,Rblueinv16,2*%
%TO.N,Net-(Qblueinv16-Pad1)*%
X333800000Y-80750000D03*
%TD*%
%TO.P,Rblueinv15,1*%
%TO.N,Net-(C15-Pad1)*%
X314700000Y-80750000D03*
%TO.P,Rblueinv15,2*%
%TO.N,Net-(Qblueinv15-Pad1)*%
X312800000Y-80750000D03*
%TD*%
%TO.P,Rblueinv14,1*%
%TO.N,Net-(C14-Pad1)*%
X293700000Y-80750000D03*
%TO.P,Rblueinv14,2*%
%TO.N,Net-(Qblueinv14-Pad1)*%
X291800000Y-80750000D03*
%TD*%
%TO.P,Rblueinv13,1*%
%TO.N,Net-(C13-Pad1)*%
X272700000Y-80750000D03*
%TO.P,Rblueinv13,2*%
%TO.N,Net-(Qblueinv13-Pad1)*%
X270800000Y-80750000D03*
%TD*%
%TO.P,Rblueinv12,1*%
%TO.N,Net-(C12-Pad1)*%
X251700000Y-80750000D03*
%TO.P,Rblueinv12,2*%
%TO.N,Net-(Qblueinv12-Pad1)*%
X249800000Y-80750000D03*
%TD*%
%TO.P,Rblueinv11,1*%
%TO.N,Net-(C11-Pad1)*%
X230700000Y-80750000D03*
%TO.P,Rblueinv11,2*%
%TO.N,Net-(Qblueinv11-Pad1)*%
X228800000Y-80750000D03*
%TD*%
%TO.P,Rblueinv10,1*%
%TO.N,Net-(C10-Pad1)*%
X209700000Y-80750000D03*
%TO.P,Rblueinv10,2*%
%TO.N,Net-(Qblueinv10-Pad1)*%
X207800000Y-80750000D03*
%TD*%
%TO.P,Rblueinv9,1*%
%TO.N,Net-(C9-Pad1)*%
X188700000Y-80750000D03*
%TO.P,Rblueinv9,2*%
%TO.N,Net-(Qblueinv9-Pad1)*%
X186800000Y-80750000D03*
%TD*%
%TO.P,Rblueinv8,1*%
%TO.N,Net-(C8-Pad1)*%
X167700000Y-80750000D03*
%TO.P,Rblueinv8,2*%
%TO.N,Net-(Qblueinv8-Pad1)*%
X165800000Y-80750000D03*
%TD*%
%TO.P,Rblueinv7,1*%
%TO.N,Net-(C7-Pad1)*%
X146700000Y-80750000D03*
%TO.P,Rblueinv7,2*%
%TO.N,Net-(Qblueinv7-Pad1)*%
X144800000Y-80750000D03*
%TD*%
%TO.P,Rblueinv6,1*%
%TO.N,Net-(C6-Pad1)*%
X125950000Y-80750000D03*
%TO.P,Rblueinv6,2*%
%TO.N,Net-(Qblueinv6-Pad1)*%
X124050000Y-80750000D03*
%TD*%
%TO.P,Rblueinv5,1*%
%TO.N,Net-(C5-Pad1)*%
X104950000Y-80750000D03*
%TO.P,Rblueinv5,2*%
%TO.N,Net-(Qblueinv5-Pad1)*%
X103050000Y-80750000D03*
%TD*%
%TO.P,Rblueinv4,1*%
%TO.N,Net-(C4-Pad1)*%
X83700000Y-80750000D03*
%TO.P,Rblueinv4,2*%
%TO.N,Net-(Qblueinv4-Pad1)*%
X81800000Y-80750000D03*
%TD*%
%TO.P,Rblueinv3,1*%
%TO.N,Net-(C3-Pad1)*%
X63200000Y-80750000D03*
%TO.P,Rblueinv3,2*%
%TO.N,Net-(Qblueinv3-Pad1)*%
X61300000Y-80750000D03*
%TD*%
%TO.P,Rblueinv2,1*%
%TO.N,Net-(C2-Pad1)*%
X42150000Y-80750000D03*
%TO.P,Rblueinv2,2*%
%TO.N,Net-(Qblueinv2-Pad1)*%
X40250000Y-80750000D03*
%TD*%
D15*
%TO.P,Rblue16,1*%
%TO.N,Net-(Qblueinv16-Pad1)*%
X333750000Y-83550000D03*
%TO.P,Rblue16,2*%
%TO.N,Net-(Rblue16-Pad2)*%
X333750000Y-85450000D03*
%TD*%
%TO.P,Rblue15,1*%
%TO.N,Net-(Qblueinv15-Pad1)*%
X312750000Y-83550000D03*
%TO.P,Rblue15,2*%
%TO.N,Net-(Rblue15-Pad2)*%
X312750000Y-85450000D03*
%TD*%
%TO.P,Rblue14,1*%
%TO.N,Net-(Qblueinv14-Pad1)*%
X291750000Y-83550000D03*
%TO.P,Rblue14,2*%
%TO.N,Net-(Rblue14-Pad2)*%
X291750000Y-85450000D03*
%TD*%
%TO.P,Rblue13,1*%
%TO.N,Net-(Qblueinv13-Pad1)*%
X270750000Y-83550000D03*
%TO.P,Rblue13,2*%
%TO.N,Net-(Rblue13-Pad2)*%
X270750000Y-85450000D03*
%TD*%
%TO.P,Rblue12,1*%
%TO.N,Net-(Qblueinv12-Pad1)*%
X249750000Y-83800000D03*
%TO.P,Rblue12,2*%
%TO.N,Net-(Rblue12-Pad2)*%
X249750000Y-85700000D03*
%TD*%
%TO.P,Rblue11,1*%
%TO.N,Net-(Qblueinv11-Pad1)*%
X228750000Y-83550000D03*
%TO.P,Rblue11,2*%
%TO.N,Net-(Rblue11-Pad2)*%
X228750000Y-85450000D03*
%TD*%
%TO.P,Rblue10,1*%
%TO.N,Net-(Qblueinv10-Pad1)*%
X207750000Y-83550000D03*
%TO.P,Rblue10,2*%
%TO.N,Net-(Rblue10-Pad2)*%
X207750000Y-85450000D03*
%TD*%
%TO.P,Rblue9,1*%
%TO.N,Net-(Qblueinv9-Pad1)*%
X186750000Y-83550000D03*
%TO.P,Rblue9,2*%
%TO.N,Net-(Rblue9-Pad2)*%
X186750000Y-85450000D03*
%TD*%
%TO.P,Rblue8,1*%
%TO.N,Net-(Qblueinv8-Pad1)*%
X165750000Y-83550000D03*
%TO.P,Rblue8,2*%
%TO.N,Net-(Rblue8-Pad2)*%
X165750000Y-85450000D03*
%TD*%
%TO.P,Rblue7,1*%
%TO.N,Net-(Qblueinv7-Pad1)*%
X144750000Y-83550000D03*
%TO.P,Rblue7,2*%
%TO.N,Net-(Rblue7-Pad2)*%
X144750000Y-85450000D03*
%TD*%
%TO.P,Rblue6,1*%
%TO.N,Net-(Qblueinv6-Pad1)*%
X124000000Y-83550000D03*
%TO.P,Rblue6,2*%
%TO.N,Net-(Rblue6-Pad2)*%
X124000000Y-85450000D03*
%TD*%
%TO.P,Rblue5,1*%
%TO.N,Net-(Qblueinv5-Pad1)*%
X103000000Y-83550000D03*
%TO.P,Rblue5,2*%
%TO.N,Net-(Rblue5-Pad2)*%
X103000000Y-85450000D03*
%TD*%
%TO.P,Rblue4,1*%
%TO.N,Net-(Qblueinv4-Pad1)*%
X81750000Y-83550000D03*
%TO.P,Rblue4,2*%
%TO.N,Net-(Rblue4-Pad2)*%
X81750000Y-85450000D03*
%TD*%
%TO.P,Rblue3,1*%
%TO.N,Net-(Qblueinv3-Pad1)*%
X61000000Y-83550000D03*
%TO.P,Rblue3,2*%
%TO.N,Net-(Rblue3-Pad2)*%
X61000000Y-85450000D03*
%TD*%
%TO.P,Rblue2,1*%
%TO.N,Net-(Qblueinv2-Pad1)*%
X40200000Y-83600000D03*
%TO.P,Rblue2,2*%
%TO.N,Net-(Rblue2-Pad2)*%
X40200000Y-85500000D03*
%TD*%
D11*
%TO.P,Jout16,1*%
%TO.N,/AddressableLedDriver01/GndIn*%
X348750000Y-64750000D03*
D12*
%TO.P,Jout16,2*%
%TO.N,/AddressableLedDriver16/DOUT*%
X348750000Y-62210000D03*
%TO.P,Jout16,3*%
%TO.N,/AddressableLedDriver01/VIn*%
X348750000Y-59670000D03*
%TD*%
D11*
%TO.P,Jout15,1*%
%TO.N,/AddressableLedDriver01/GndIn*%
X327750000Y-64750000D03*
D12*
%TO.P,Jout15,2*%
%TO.N,/AddressableLedDriver16/DIN*%
X327750000Y-62210000D03*
%TO.P,Jout15,3*%
%TO.N,/AddressableLedDriver01/VIn*%
X327750000Y-59670000D03*
%TD*%
D11*
%TO.P,Jout14,1*%
%TO.N,/AddressableLedDriver01/GndIn*%
X306750000Y-64750000D03*
D12*
%TO.P,Jout14,2*%
%TO.N,/AddressableLedDriver15/DIN*%
X306750000Y-62210000D03*
%TO.P,Jout14,3*%
%TO.N,/AddressableLedDriver01/VIn*%
X306750000Y-59670000D03*
%TD*%
D11*
%TO.P,Jout13,1*%
%TO.N,/AddressableLedDriver01/GndIn*%
X285750000Y-64750000D03*
D12*
%TO.P,Jout13,2*%
%TO.N,/AddressableLedDriver14/DIN*%
X285750000Y-62210000D03*
%TO.P,Jout13,3*%
%TO.N,/AddressableLedDriver01/VIn*%
X285750000Y-59670000D03*
%TD*%
D11*
%TO.P,Jout12,1*%
%TO.N,/AddressableLedDriver01/GndIn*%
X264750000Y-64750000D03*
D12*
%TO.P,Jout12,2*%
%TO.N,/AddressableLedDriver13/DIN*%
X264750000Y-62210000D03*
%TO.P,Jout12,3*%
%TO.N,/AddressableLedDriver01/VIn*%
X264750000Y-59670000D03*
%TD*%
D11*
%TO.P,Jout11,1*%
%TO.N,/AddressableLedDriver01/GndIn*%
X243750000Y-64750000D03*
D12*
%TO.P,Jout11,2*%
%TO.N,/AddressableLedDriver12/DIN*%
X243750000Y-62210000D03*
%TO.P,Jout11,3*%
%TO.N,/AddressableLedDriver01/VIn*%
X243750000Y-59670000D03*
%TD*%
D11*
%TO.P,Jout10,1*%
%TO.N,/AddressableLedDriver01/GndIn*%
X222750000Y-64750000D03*
D12*
%TO.P,Jout10,2*%
%TO.N,/AddressableLedDriver11/DIN*%
X222750000Y-62210000D03*
%TO.P,Jout10,3*%
%TO.N,/AddressableLedDriver01/VIn*%
X222750000Y-59670000D03*
%TD*%
D11*
%TO.P,Jout9,1*%
%TO.N,/AddressableLedDriver01/GndIn*%
X201750000Y-64750000D03*
D12*
%TO.P,Jout9,2*%
%TO.N,/AddressableLedDriver10/DIN*%
X201750000Y-62210000D03*
%TO.P,Jout9,3*%
%TO.N,/AddressableLedDriver01/VIn*%
X201750000Y-59670000D03*
%TD*%
D11*
%TO.P,Jout8,1*%
%TO.N,/AddressableLedDriver01/GndIn*%
X180750000Y-64830000D03*
D12*
%TO.P,Jout8,2*%
%TO.N,/AddressableLedDriver09/DIN*%
X180750000Y-62290000D03*
%TO.P,Jout8,3*%
%TO.N,/AddressableLedDriver01/VIn*%
X180750000Y-59750000D03*
%TD*%
D11*
%TO.P,Jout7,1*%
%TO.N,/AddressableLedDriver01/GndIn*%
X159750000Y-65000000D03*
D12*
%TO.P,Jout7,2*%
%TO.N,/AddressableLedDriver08/DIN*%
X159750000Y-62460000D03*
%TO.P,Jout7,3*%
%TO.N,/AddressableLedDriver01/VIn*%
X159750000Y-59920000D03*
%TD*%
D11*
%TO.P,Jout6,1*%
%TO.N,/AddressableLedDriver01/GndIn*%
X138750000Y-65000000D03*
D12*
%TO.P,Jout6,2*%
%TO.N,/AddressableLedDriver07/DIN*%
X138750000Y-62460000D03*
%TO.P,Jout6,3*%
%TO.N,/AddressableLedDriver01/VIn*%
X138750000Y-59920000D03*
%TD*%
D11*
%TO.P,Jout5,1*%
%TO.N,/AddressableLedDriver01/GndIn*%
X117750000Y-64750000D03*
D12*
%TO.P,Jout5,2*%
%TO.N,/AddressableLedDriver06/DIN*%
X117750000Y-62210000D03*
%TO.P,Jout5,3*%
%TO.N,/AddressableLedDriver01/VIn*%
X117750000Y-59670000D03*
%TD*%
D11*
%TO.P,Jout4,1*%
%TO.N,/AddressableLedDriver01/GndIn*%
X96750000Y-64750000D03*
D12*
%TO.P,Jout4,2*%
%TO.N,/AddressableLedDriver05/DIN*%
X96750000Y-62210000D03*
%TO.P,Jout4,3*%
%TO.N,/AddressableLedDriver01/VIn*%
X96750000Y-59670000D03*
%TD*%
D11*
%TO.P,Jout3,1*%
%TO.N,/AddressableLedDriver01/GndIn*%
X75750000Y-64750000D03*
D12*
%TO.P,Jout3,2*%
%TO.N,/AddressableLedDriver04/DIN*%
X75750000Y-62210000D03*
%TO.P,Jout3,3*%
%TO.N,/AddressableLedDriver01/VIn*%
X75750000Y-59670000D03*
%TD*%
D11*
%TO.P,Jout2,1*%
%TO.N,/AddressableLedDriver01/GndIn*%
X54600000Y-64800000D03*
D12*
%TO.P,Jout2,2*%
%TO.N,/AddressableLedDriver03/DIN*%
X54600000Y-62260000D03*
%TO.P,Jout2,3*%
%TO.N,/AddressableLedDriver01/VIn*%
X54600000Y-59720000D03*
%TD*%
D11*
%TO.P,Jout1,1*%
%TO.N,/AddressableLedDriver01/GndIn*%
X33600000Y-64800000D03*
D12*
%TO.P,Jout1,2*%
%TO.N,/AddressableLedDriver02/DIN*%
X33600000Y-62260000D03*
%TO.P,Jout1,3*%
%TO.N,/AddressableLedDriver01/VIn*%
X33600000Y-59720000D03*
%TD*%
D11*
%TO.P,Jin16,1*%
%TO.N,/AddressableLedDriver01/GndIn*%
X331250000Y-64750000D03*
D12*
%TO.P,Jin16,2*%
%TO.N,/AddressableLedDriver16/DIN*%
X331250000Y-62210000D03*
%TO.P,Jin16,3*%
%TO.N,/AddressableLedDriver01/VIn*%
X331250000Y-59670000D03*
%TD*%
D11*
%TO.P,Jin15,1*%
%TO.N,/AddressableLedDriver01/GndIn*%
X310250000Y-64750000D03*
D12*
%TO.P,Jin15,2*%
%TO.N,/AddressableLedDriver15/DIN*%
X310250000Y-62210000D03*
%TO.P,Jin15,3*%
%TO.N,/AddressableLedDriver01/VIn*%
X310250000Y-59670000D03*
%TD*%
D11*
%TO.P,Jin14,1*%
%TO.N,/AddressableLedDriver01/GndIn*%
X289250000Y-64750000D03*
D12*
%TO.P,Jin14,2*%
%TO.N,/AddressableLedDriver14/DIN*%
X289250000Y-62210000D03*
%TO.P,Jin14,3*%
%TO.N,/AddressableLedDriver01/VIn*%
X289250000Y-59670000D03*
%TD*%
D11*
%TO.P,Jin13,1*%
%TO.N,/AddressableLedDriver01/GndIn*%
X268250000Y-64750000D03*
D12*
%TO.P,Jin13,2*%
%TO.N,/AddressableLedDriver13/DIN*%
X268250000Y-62210000D03*
%TO.P,Jin13,3*%
%TO.N,/AddressableLedDriver01/VIn*%
X268250000Y-59670000D03*
%TD*%
D11*
%TO.P,Jin12,1*%
%TO.N,/AddressableLedDriver01/GndIn*%
X247250000Y-64750000D03*
D12*
%TO.P,Jin12,2*%
%TO.N,/AddressableLedDriver12/DIN*%
X247250000Y-62210000D03*
%TO.P,Jin12,3*%
%TO.N,/AddressableLedDriver01/VIn*%
X247250000Y-59670000D03*
%TD*%
D11*
%TO.P,Jin11,1*%
%TO.N,/AddressableLedDriver01/GndIn*%
X226250000Y-64750000D03*
D12*
%TO.P,Jin11,2*%
%TO.N,/AddressableLedDriver11/DIN*%
X226250000Y-62210000D03*
%TO.P,Jin11,3*%
%TO.N,/AddressableLedDriver01/VIn*%
X226250000Y-59670000D03*
%TD*%
D11*
%TO.P,Jin10,1*%
%TO.N,/AddressableLedDriver01/GndIn*%
X205250000Y-64750000D03*
D12*
%TO.P,Jin10,2*%
%TO.N,/AddressableLedDriver10/DIN*%
X205250000Y-62210000D03*
%TO.P,Jin10,3*%
%TO.N,/AddressableLedDriver01/VIn*%
X205250000Y-59670000D03*
%TD*%
D11*
%TO.P,Jin9,1*%
%TO.N,/AddressableLedDriver01/GndIn*%
X184250000Y-64750000D03*
D12*
%TO.P,Jin9,2*%
%TO.N,/AddressableLedDriver09/DIN*%
X184250000Y-62210000D03*
%TO.P,Jin9,3*%
%TO.N,/AddressableLedDriver01/VIn*%
X184250000Y-59670000D03*
%TD*%
D11*
%TO.P,Jin8,1*%
%TO.N,/AddressableLedDriver01/GndIn*%
X163250000Y-65000000D03*
D12*
%TO.P,Jin8,2*%
%TO.N,/AddressableLedDriver08/DIN*%
X163250000Y-62460000D03*
%TO.P,Jin8,3*%
%TO.N,/AddressableLedDriver01/VIn*%
X163250000Y-59920000D03*
%TD*%
D11*
%TO.P,Jin7,1*%
%TO.N,/AddressableLedDriver01/GndIn*%
X142250000Y-65000000D03*
D12*
%TO.P,Jin7,2*%
%TO.N,/AddressableLedDriver07/DIN*%
X142250000Y-62460000D03*
%TO.P,Jin7,3*%
%TO.N,/AddressableLedDriver01/VIn*%
X142250000Y-59920000D03*
%TD*%
D11*
%TO.P,Jin6,1*%
%TO.N,/AddressableLedDriver01/GndIn*%
X121500000Y-64750000D03*
D12*
%TO.P,Jin6,2*%
%TO.N,/AddressableLedDriver06/DIN*%
X121500000Y-62210000D03*
%TO.P,Jin6,3*%
%TO.N,/AddressableLedDriver01/VIn*%
X121500000Y-59670000D03*
%TD*%
D11*
%TO.P,Jin5,1*%
%TO.N,/AddressableLedDriver01/GndIn*%
X100250000Y-64790000D03*
D12*
%TO.P,Jin5,2*%
%TO.N,/AddressableLedDriver05/DIN*%
X100250000Y-62250000D03*
%TO.P,Jin5,3*%
%TO.N,/AddressableLedDriver01/VIn*%
X100250000Y-59710000D03*
%TD*%
D11*
%TO.P,Jin4,1*%
%TO.N,/AddressableLedDriver01/GndIn*%
X79250000Y-64750000D03*
D12*
%TO.P,Jin4,2*%
%TO.N,/AddressableLedDriver04/DIN*%
X79250000Y-62210000D03*
%TO.P,Jin4,3*%
%TO.N,/AddressableLedDriver01/VIn*%
X79250000Y-59670000D03*
%TD*%
D11*
%TO.P,Jin3,1*%
%TO.N,/AddressableLedDriver01/GndIn*%
X58250000Y-64750000D03*
D12*
%TO.P,Jin3,2*%
%TO.N,/AddressableLedDriver03/DIN*%
X58250000Y-62210000D03*
%TO.P,Jin3,3*%
%TO.N,/AddressableLedDriver01/VIn*%
X58250000Y-59670000D03*
%TD*%
D11*
%TO.P,Jin2,1*%
%TO.N,/AddressableLedDriver01/GndIn*%
X37400000Y-64940000D03*
D12*
%TO.P,Jin2,2*%
%TO.N,/AddressableLedDriver02/DIN*%
X37400000Y-62400000D03*
%TO.P,Jin2,3*%
%TO.N,/AddressableLedDriver01/VIn*%
X37400000Y-59860000D03*
%TD*%
D11*
%TO.P,Jin1,1*%
%TO.N,/AddressableLedDriver01/GndIn*%
X16400000Y-64800000D03*
D12*
%TO.P,Jin1,2*%
%TO.N,/AddressableLedDriver01/DIN*%
X16400000Y-62260000D03*
%TO.P,Jin1,3*%
%TO.N,/AddressableLedDriver01/VIn*%
X16400000Y-59720000D03*
%TD*%
D15*
%TO.P,C16,1*%
%TO.N,Net-(C16-Pad1)*%
X344250000Y-94200000D03*
%TO.P,C16,2*%
%TO.N,/AddressableLedDriver01/GndIn*%
X344250000Y-92300000D03*
%TD*%
%TO.P,C15,1*%
%TO.N,Net-(C15-Pad1)*%
X323500000Y-94200000D03*
%TO.P,C15,2*%
%TO.N,/AddressableLedDriver01/GndIn*%
X323500000Y-92300000D03*
%TD*%
%TO.P,C14,1*%
%TO.N,Net-(C14-Pad1)*%
X302500000Y-94200000D03*
%TO.P,C14,2*%
%TO.N,/AddressableLedDriver01/GndIn*%
X302500000Y-92300000D03*
%TD*%
%TO.P,C13,1*%
%TO.N,Net-(C13-Pad1)*%
X281500000Y-94200000D03*
%TO.P,C13,2*%
%TO.N,/AddressableLedDriver01/GndIn*%
X281500000Y-92300000D03*
%TD*%
%TO.P,C12,1*%
%TO.N,Net-(C12-Pad1)*%
X260500000Y-94200000D03*
%TO.P,C12,2*%
%TO.N,/AddressableLedDriver01/GndIn*%
X260500000Y-92300000D03*
%TD*%
%TO.P,C11,1*%
%TO.N,Net-(C11-Pad1)*%
X239500000Y-94200000D03*
%TO.P,C11,2*%
%TO.N,/AddressableLedDriver01/GndIn*%
X239500000Y-92300000D03*
%TD*%
%TO.P,C10,1*%
%TO.N,Net-(C10-Pad1)*%
X218750000Y-93950000D03*
%TO.P,C10,2*%
%TO.N,/AddressableLedDriver01/GndIn*%
X218750000Y-92050000D03*
%TD*%
%TO.P,C9,1*%
%TO.N,Net-(C9-Pad1)*%
X197500000Y-94200000D03*
%TO.P,C9,2*%
%TO.N,/AddressableLedDriver01/GndIn*%
X197500000Y-92300000D03*
%TD*%
%TO.P,C8,1*%
%TO.N,Net-(C8-Pad1)*%
X176500000Y-94200000D03*
%TO.P,C8,2*%
%TO.N,/AddressableLedDriver01/GndIn*%
X176500000Y-92300000D03*
%TD*%
%TO.P,C7,1*%
%TO.N,Net-(C7-Pad1)*%
X155500000Y-94200000D03*
%TO.P,C7,2*%
%TO.N,/AddressableLedDriver01/GndIn*%
X155500000Y-92300000D03*
%TD*%
%TO.P,C6,1*%
%TO.N,Net-(C6-Pad1)*%
X134500000Y-94200000D03*
%TO.P,C6,2*%
%TO.N,/AddressableLedDriver01/GndIn*%
X134500000Y-92300000D03*
%TD*%
%TO.P,C5,1*%
%TO.N,Net-(C5-Pad1)*%
X113500000Y-93950000D03*
%TO.P,C5,2*%
%TO.N,/AddressableLedDriver01/GndIn*%
X113500000Y-92050000D03*
%TD*%
%TO.P,C4,1*%
%TO.N,Net-(C4-Pad1)*%
X92500000Y-93950000D03*
%TO.P,C4,2*%
%TO.N,/AddressableLedDriver01/GndIn*%
X92500000Y-92050000D03*
%TD*%
%TO.P,C3,1*%
%TO.N,Net-(C3-Pad1)*%
X71500000Y-93950000D03*
%TO.P,C3,2*%
%TO.N,/AddressableLedDriver01/GndIn*%
X71500000Y-92050000D03*
%TD*%
%TO.P,C2,1*%
%TO.N,Net-(C2-Pad1)*%
X50750000Y-93950000D03*
%TO.P,C2,2*%
%TO.N,/AddressableLedDriver01/GndIn*%
X50750000Y-92050000D03*
%TD*%
D17*
%TO.N,Net-(C1-Pad1)*%
X28987347Y-89487347D03*
X28750000Y-95000000D03*
%TO.N,Net-(C2-Pad1)*%
X47500000Y-85000000D03*
X52762653Y-90512653D03*
%TO.N,Net-(C3-Pad1)*%
X73500000Y-91750000D03*
X68500000Y-85250000D03*
%TO.N,Net-(C4-Pad1)*%
X92250000Y-88500000D03*
X89500000Y-85500000D03*
%TO.N,Net-(C5-Pad1)*%
X115000000Y-91750000D03*
X110500000Y-85250000D03*
%TO.N,Net-(C6-Pad1)*%
X136250000Y-91750000D03*
X131250000Y-85750000D03*
%TO.N,Net-(C7-Pad1)*%
X157448685Y-91433772D03*
X152500000Y-85500000D03*
%TO.N,Net-(C8-Pad1)*%
X178500003Y-91750000D03*
X173500000Y-85250000D03*
%TO.N,Net-(C9-Pad1)*%
X199500000Y-91750000D03*
X194750000Y-85750000D03*
%TO.N,Net-(C10-Pad1)*%
X220500000Y-92500000D03*
X215500000Y-85500000D03*
%TO.N,Net-(C11-Pad1)*%
X241500003Y-91750000D03*
X236500000Y-85500000D03*
%TO.N,Net-(C12-Pad1)*%
X262500000Y-92500000D03*
X257500000Y-85500000D03*
%TO.N,Net-(C13-Pad1)*%
X283448685Y-91433772D03*
X278500000Y-85500000D03*
%TO.N,Net-(C14-Pad1)*%
X304500000Y-91750000D03*
X299500000Y-85750000D03*
%TO.N,Net-(C15-Pad1)*%
X325500003Y-91750000D03*
X320750000Y-85750000D03*
%TO.N,Net-(C16-Pad1)*%
X346250000Y-92000000D03*
X341500000Y-86250000D03*
%TO.N,/AddressableLedDriver01/GndIn*%
X26300000Y-64800000D03*
X21300000Y-64800000D03*
X20600000Y-79100000D03*
X25200000Y-79100000D03*
X29800000Y-77900000D03*
X31500000Y-89800000D03*
X22200000Y-87339000D03*
X42060000Y-64940000D03*
X47000002Y-64940000D03*
X52190000Y-64940000D03*
X63000000Y-64750000D03*
X68000000Y-64750000D03*
X73250000Y-64750000D03*
X84000000Y-64750000D03*
X89250000Y-64750000D03*
X94250000Y-64750000D03*
X105040000Y-64790000D03*
X110040000Y-64790000D03*
X115250002Y-64790000D03*
X126250000Y-64750000D03*
X131000000Y-64750000D03*
X136250000Y-64750000D03*
X147000000Y-65000000D03*
X152000000Y-65000000D03*
X157250000Y-65000000D03*
X167750000Y-65000000D03*
X173000000Y-65000000D03*
X189000000Y-64750000D03*
X194000000Y-64750000D03*
X199250000Y-64750000D03*
X209750000Y-64750000D03*
X215000000Y-64750000D03*
X220250000Y-64750000D03*
X230750000Y-64750000D03*
X236000000Y-64750000D03*
X241250000Y-64750000D03*
X251750000Y-64750000D03*
X257000000Y-64750000D03*
X262250000Y-64750000D03*
X272750000Y-64750000D03*
X278000000Y-64750000D03*
X283250000Y-64750000D03*
X293750000Y-64750000D03*
X299000000Y-64750000D03*
X304250000Y-64750000D03*
X314750000Y-64750000D03*
X320000000Y-64750000D03*
X325250000Y-64750000D03*
X336000000Y-64750000D03*
X341000000Y-64750000D03*
X346250000Y-64750000D03*
X43000000Y-87000000D03*
X41750000Y-79000000D03*
X47000000Y-79000000D03*
X52750000Y-79000000D03*
X62500000Y-79000000D03*
X67500000Y-79000000D03*
X73750000Y-79000000D03*
X83250000Y-79000000D03*
X88500000Y-79000000D03*
X104250000Y-79000000D03*
X109500000Y-79000000D03*
X115750000Y-79000000D03*
X125500000Y-79000000D03*
X130500000Y-79000000D03*
X136750000Y-79000000D03*
X146250000Y-79250000D03*
X151500000Y-79250000D03*
X157750000Y-79250000D03*
X167250000Y-79250000D03*
X172500000Y-79250000D03*
X178500000Y-79250000D03*
X188500000Y-79250000D03*
X193500000Y-79250000D03*
X199500000Y-79250000D03*
X209500000Y-79250000D03*
X214500000Y-79250000D03*
X230250000Y-79250000D03*
X235500000Y-79250000D03*
X241750000Y-79250000D03*
X251250000Y-79250000D03*
X256500000Y-79250000D03*
X272500000Y-79250000D03*
X277500000Y-79250000D03*
X293500000Y-79250000D03*
X298250000Y-79250000D03*
X304750000Y-79250000D03*
X314250000Y-79250000D03*
X319500000Y-79250000D03*
X325750000Y-79250000D03*
X335500000Y-79250000D03*
X340500000Y-79250000D03*
X346750000Y-79250000D03*
X94750000Y-79000000D03*
X178250000Y-65000000D03*
X220750000Y-79250000D03*
X283750000Y-79250000D03*
X262500000Y-79250000D03*
X63750000Y-87100001D03*
X72500000Y-91750000D03*
X84750000Y-87000000D03*
X91250000Y-89500000D03*
X112000000Y-90249999D03*
X126750000Y-87500000D03*
X135037652Y-91287652D03*
X147500000Y-87500000D03*
X156500000Y-91750000D03*
X168500000Y-87500000D03*
X177500000Y-91750000D03*
X189500000Y-87250000D03*
X198500000Y-91750000D03*
X210750000Y-87500000D03*
X219750000Y-91750000D03*
X231750000Y-87250000D03*
X240500000Y-91750000D03*
X252750000Y-87500000D03*
X261750000Y-91750000D03*
X273750000Y-87750000D03*
X282500000Y-91750000D03*
X294750000Y-87500000D03*
X303500000Y-91750000D03*
X315750000Y-87500000D03*
X324500000Y-91750000D03*
X336500000Y-87000000D03*
X345250000Y-92000000D03*
X51750000Y-91750000D03*
X31224990Y-64250000D03*
X105750000Y-87500000D03*
%TD*%
D18*
%TO.N,Net-(C1-Pad1)*%
X27343000Y-93784000D02*
X27343000Y-93943000D01*
X30950000Y-93750000D02*
X31000000Y-93700000D01*
X29366000Y-93784000D02*
X29400000Y-93750000D01*
X29966000Y-93784000D02*
X30000000Y-93750000D01*
X27343000Y-93784000D02*
X29966000Y-93784000D01*
X30000000Y-93750000D02*
X32400000Y-93750000D01*
X21475001Y-71725001D02*
X20950000Y-71200000D01*
X20750000Y-80600000D02*
X21475001Y-79874999D01*
X26425001Y-71675001D02*
X25900000Y-71150000D01*
X25750000Y-80600000D02*
X26425001Y-79924999D01*
X31425001Y-71725001D02*
X30900000Y-71200000D01*
X30700000Y-80600000D02*
X31425001Y-79874999D01*
X26425001Y-75925001D02*
X26425001Y-71675001D01*
X26425001Y-79924999D02*
X26425001Y-75925001D01*
X26425001Y-75925001D02*
X30260001Y-75925001D01*
X31425001Y-75925001D02*
X31425001Y-71725001D01*
X30260001Y-75925001D02*
X31425001Y-75925001D01*
X31425001Y-79874999D02*
X31425001Y-75925001D01*
X21525001Y-75925001D02*
X21475001Y-75875001D01*
X26425001Y-75925001D02*
X21525001Y-75925001D01*
X21475001Y-75875001D02*
X21475001Y-71725001D01*
X21475001Y-79874999D02*
X21475001Y-75875001D01*
X30700000Y-87774694D02*
X28987347Y-89487347D01*
X30700000Y-80600000D02*
X30700000Y-87774694D01*
X29250000Y-94500000D02*
X30000000Y-93750000D01*
X28750000Y-95000000D02*
X29250000Y-94500000D01*
X32200000Y-93950000D02*
X32400000Y-93750000D01*
X32200000Y-95250000D02*
X32200000Y-93950000D01*
%TO.N,/AddressableLedDriver02/DIN*%
X31949990Y-62707929D02*
X31949990Y-87550010D01*
X32397919Y-62260000D02*
X31949990Y-62707929D01*
X33600000Y-62260000D02*
X32397919Y-62260000D01*
X31949990Y-87550010D02*
X28000000Y-91500000D01*
X23533000Y-94809000D02*
X23533000Y-93784000D01*
X25363001Y-94884001D02*
X23608001Y-94884001D01*
X25447999Y-92552001D02*
X25447999Y-94799003D01*
X23608001Y-94884001D02*
X23533000Y-94809000D01*
X25447999Y-94799003D02*
X25363001Y-94884001D01*
X26500000Y-91500000D02*
X25447999Y-92552001D01*
X28000000Y-91500000D02*
X26500000Y-91500000D01*
X39324999Y-64324999D02*
X37400000Y-62400000D01*
X39324999Y-87024999D02*
X39324999Y-64324999D01*
X39550000Y-87250000D02*
X39324999Y-87024999D01*
%TO.N,Net-(C2-Pad1)*%
X50550000Y-93750000D02*
X50750000Y-93950000D01*
X47955000Y-93750000D02*
X50550000Y-93750000D01*
X50750000Y-93950000D02*
X53500000Y-93950000D01*
X42875001Y-80024999D02*
X42150000Y-80750000D01*
X42150000Y-71200000D02*
X42875001Y-71925001D01*
X47725001Y-76339999D02*
X47725001Y-80174999D01*
X47725001Y-80174999D02*
X47150000Y-80750000D01*
X46950000Y-71200000D02*
X46950000Y-75564998D01*
X46875001Y-75874999D02*
X47067501Y-75682499D01*
X42875001Y-75874999D02*
X46875001Y-75874999D01*
X46950000Y-75564998D02*
X47067501Y-75682499D01*
X42875001Y-71925001D02*
X42875001Y-75874999D01*
X47067501Y-75682499D02*
X47725001Y-76339999D01*
X42875001Y-75874999D02*
X42875001Y-80024999D01*
X47067501Y-75682499D02*
X50367501Y-75682499D01*
X47500000Y-81100000D02*
X47150000Y-80750000D01*
X47500000Y-85000000D02*
X47500000Y-81100000D01*
X53200000Y-94250000D02*
X53500000Y-93950000D01*
X53200000Y-95500000D02*
X53200000Y-94250000D01*
X52762653Y-93212653D02*
X52762653Y-90512653D01*
X53500000Y-93950000D02*
X52762653Y-93212653D01*
X52150000Y-75485002D02*
X52150000Y-71200000D01*
X51860001Y-75775001D02*
X52150000Y-75485002D01*
X50460003Y-75775001D02*
X51860001Y-75775001D01*
X50367501Y-75682499D02*
X50460003Y-75775001D01*
X51424999Y-76210003D02*
X51860001Y-75775001D01*
X51424999Y-80024999D02*
X51424999Y-76210003D01*
X52150000Y-80750000D02*
X51424999Y-80024999D01*
%TO.N,Net-(C3-Pad1)*%
X71250000Y-93700000D02*
X71500000Y-93950000D01*
X68655000Y-93700000D02*
X71250000Y-93700000D01*
X71500000Y-93950000D02*
X74500000Y-93950000D01*
X62950000Y-71250000D02*
X63750000Y-71250000D01*
X63750000Y-80200000D02*
X63200000Y-80750000D01*
X68200000Y-71250000D02*
X68750000Y-71250000D01*
X68750000Y-80200000D02*
X68200000Y-80750000D01*
X73450000Y-71250000D02*
X74000000Y-71250000D01*
X66339999Y-75775001D02*
X68724999Y-75775001D01*
X68724999Y-75775001D02*
X68750000Y-75750000D01*
X63750000Y-75750000D02*
X66314998Y-75750000D01*
X68750000Y-71250000D02*
X68750000Y-75750000D01*
X68750000Y-75750000D02*
X68750000Y-80200000D01*
X63750000Y-71250000D02*
X63750000Y-75750000D01*
X66314998Y-75750000D02*
X66339999Y-75775001D01*
X63750000Y-75750000D02*
X63750000Y-80200000D01*
X72724999Y-79774999D02*
X73700000Y-80750000D01*
X72724999Y-76289999D02*
X72724999Y-79774999D01*
X73450000Y-75564998D02*
X72724999Y-76289999D01*
X73450000Y-71250000D02*
X73450000Y-75564998D01*
X68724999Y-75775001D02*
X73224999Y-75775001D01*
X73500000Y-92950000D02*
X73500000Y-91750000D01*
X74500000Y-93950000D02*
X73500000Y-92950000D01*
X68500000Y-81050000D02*
X68200000Y-80750000D01*
X68500000Y-85250000D02*
X68500000Y-81050000D01*
X74200000Y-94250000D02*
X74500000Y-93950000D01*
X74200000Y-95500000D02*
X74200000Y-94250000D01*
%TO.N,Net-(C4-Pad1)*%
X92250000Y-93700000D02*
X92500000Y-93950000D01*
X89655000Y-93700000D02*
X92250000Y-93700000D01*
X92500000Y-93950000D02*
X95500000Y-93950000D01*
X83700000Y-71250000D02*
X84250000Y-71250000D01*
X84425001Y-80024999D02*
X83700000Y-80750000D01*
X84250000Y-71250000D02*
X84425001Y-71425001D01*
X88950000Y-71250000D02*
X89750000Y-71250000D01*
X89750000Y-79950000D02*
X88950000Y-80750000D01*
X94450000Y-71250000D02*
X94500000Y-71250000D01*
X94450000Y-71250000D02*
X95000000Y-71250000D01*
X89724999Y-75775001D02*
X89750000Y-75750000D01*
X89750000Y-75750000D02*
X89750000Y-79950000D01*
X89750000Y-71250000D02*
X89750000Y-75750000D01*
X84425001Y-71425001D02*
X84425001Y-75574999D01*
X84425001Y-75574999D02*
X84625003Y-75775001D01*
X84425001Y-75574999D02*
X84425001Y-80024999D01*
X92814998Y-75750000D02*
X92839999Y-75775001D01*
X93724999Y-80024999D02*
X94450000Y-80750000D01*
X93724999Y-76210003D02*
X93724999Y-80024999D01*
X94450000Y-71250000D02*
X94450000Y-75485002D01*
X94025001Y-75775001D02*
X94092501Y-75842501D01*
X89525001Y-75775001D02*
X94025001Y-75775001D01*
X94450000Y-75485002D02*
X94092501Y-75842501D01*
X94092501Y-75842501D02*
X93724999Y-76210003D01*
X84625003Y-75775001D02*
X89525001Y-75775001D01*
X89525001Y-75775001D02*
X89724999Y-75775001D01*
X94799999Y-91049999D02*
X92250000Y-88500000D01*
X94799999Y-93249999D02*
X94799999Y-91049999D01*
X95500000Y-93950000D02*
X94799999Y-93249999D01*
X89500000Y-81300000D02*
X88950000Y-80750000D01*
X89500000Y-85500000D02*
X89500000Y-81300000D01*
X95200000Y-94250000D02*
X95500000Y-93950000D01*
X95200000Y-95500000D02*
X95200000Y-94250000D01*
%TO.N,Net-(C5-Pad1)*%
X113250000Y-93700000D02*
X113500000Y-93950000D01*
X110655000Y-93700000D02*
X113250000Y-93700000D01*
X113500000Y-93950000D02*
X116250000Y-93950000D01*
X104950000Y-71250000D02*
X105500000Y-71250000D01*
X105675001Y-80024999D02*
X104950000Y-80750000D01*
X105500000Y-71250000D02*
X105675001Y-71425001D01*
X109950000Y-71250000D02*
X110500000Y-71250000D01*
X110675001Y-80024999D02*
X109950000Y-80750000D01*
X110500000Y-71250000D02*
X110675001Y-71425001D01*
X105675001Y-75824999D02*
X110675001Y-75824999D01*
X110675001Y-75824999D02*
X110675001Y-80024999D01*
X110675001Y-71425001D02*
X110675001Y-75824999D01*
X105675001Y-71425001D02*
X105675001Y-75824999D01*
X105675001Y-75824999D02*
X105675001Y-80024999D01*
X114474999Y-80024999D02*
X115200000Y-80750000D01*
X114474999Y-76289999D02*
X114474999Y-80024999D01*
X115200000Y-71250000D02*
X115200000Y-75564998D01*
X114824999Y-75824999D02*
X114882499Y-75882499D01*
X110675001Y-75824999D02*
X114824999Y-75824999D01*
X114882499Y-75882499D02*
X114474999Y-76289999D01*
X115200000Y-75564998D02*
X114882499Y-75882499D01*
X115000000Y-92700000D02*
X115000000Y-91750000D01*
X116250000Y-93950000D02*
X115000000Y-92700000D01*
X109950000Y-84700000D02*
X109950000Y-80750000D01*
X110500000Y-85250000D02*
X109950000Y-84700000D01*
X115950000Y-94250000D02*
X116250000Y-93950000D01*
X115950000Y-95500000D02*
X115950000Y-94250000D01*
%TO.N,Net-(C6-Pad1)*%
X134250000Y-93950000D02*
X134500000Y-94200000D01*
X131655000Y-93950000D02*
X134250000Y-93950000D01*
X134500000Y-94200000D02*
X137500000Y-94200000D01*
X125950000Y-71250000D02*
X126500000Y-71250000D01*
X126675001Y-80024999D02*
X125950000Y-80750000D01*
X126500000Y-71250000D02*
X126675001Y-71425001D01*
X130950000Y-71250000D02*
X131250000Y-71250000D01*
X131675001Y-80024999D02*
X130950000Y-80750000D01*
X131250000Y-71250000D02*
X131675001Y-71675001D01*
X129324999Y-75925001D02*
X131675001Y-75925001D01*
X126675001Y-75925001D02*
X129324999Y-75925001D01*
X131675001Y-75925001D02*
X131675001Y-80024999D01*
X126675001Y-71425001D02*
X126675001Y-75925001D01*
X126675001Y-75925001D02*
X126675001Y-80024999D01*
X135474999Y-80024999D02*
X136200000Y-80750000D01*
X135474999Y-76289999D02*
X135474999Y-80024999D01*
X136200000Y-71250000D02*
X136200000Y-75564998D01*
X132007499Y-76007499D02*
X135757499Y-76007499D01*
X131675001Y-75675001D02*
X132007499Y-76007499D01*
X135757499Y-76007499D02*
X135474999Y-76289999D01*
X136200000Y-75564998D02*
X135757499Y-76007499D01*
X131675001Y-71675001D02*
X131675001Y-75675001D01*
X131675001Y-75675001D02*
X131675001Y-75925001D01*
X136250000Y-92950000D02*
X136250000Y-91750000D01*
X137500000Y-94200000D02*
X136250000Y-92950000D01*
X131250000Y-81050000D02*
X130950000Y-80750000D01*
X131250000Y-85750000D02*
X131250000Y-81050000D01*
X137200000Y-94500000D02*
X137500000Y-94200000D01*
X137200000Y-95750000D02*
X137200000Y-94500000D01*
%TO.N,Net-(C7-Pad1)*%
X155250000Y-93950000D02*
X155500000Y-94200000D01*
X152655000Y-93950000D02*
X155250000Y-93950000D01*
X155500000Y-94200000D02*
X158500000Y-94200000D01*
X146700000Y-71250000D02*
X147250000Y-71250000D01*
X147425001Y-80024999D02*
X146700000Y-80750000D01*
X147250000Y-71250000D02*
X147425001Y-71425001D01*
X151950000Y-71250000D02*
X152250000Y-71250000D01*
X152675001Y-80024999D02*
X151950000Y-80750000D01*
X152250000Y-71250000D02*
X152675001Y-71675001D01*
X150175001Y-76074999D02*
X152675001Y-76074999D01*
X147425001Y-76074999D02*
X150175001Y-76074999D01*
X152675001Y-76074999D02*
X152675001Y-80024999D01*
X152675001Y-71675001D02*
X152675001Y-76074999D01*
X147425001Y-71425001D02*
X147425001Y-76074999D01*
X147425001Y-76074999D02*
X147425001Y-80024999D01*
X156454999Y-76289999D02*
X156454999Y-80004999D01*
X156454999Y-80004999D02*
X157200000Y-80750000D01*
X157200000Y-71250000D02*
X157200000Y-75544998D01*
X155472501Y-76122499D02*
X156622499Y-76122499D01*
X152675001Y-76074999D02*
X155425001Y-76074999D01*
X155425001Y-76074999D02*
X155472501Y-76122499D01*
X156622499Y-76122499D02*
X156454999Y-76289999D01*
X157200000Y-75544998D02*
X156622499Y-76122499D01*
X157448685Y-93148685D02*
X157448685Y-91433772D01*
X158500000Y-94200000D02*
X157448685Y-93148685D01*
X151950000Y-84950000D02*
X151950000Y-80750000D01*
X152500000Y-85500000D02*
X151950000Y-84950000D01*
X158200000Y-94500000D02*
X158500000Y-94200000D01*
X158200000Y-95750000D02*
X158200000Y-94500000D01*
%TO.N,Net-(C8-Pad1)*%
X176250000Y-93950000D02*
X176500000Y-94200000D01*
X173655000Y-93950000D02*
X176250000Y-93950000D01*
X176500000Y-94200000D02*
X179500000Y-94200000D01*
X167700000Y-71250000D02*
X168500000Y-71250000D01*
X168500000Y-79950000D02*
X167700000Y-80750000D01*
X172950000Y-71250000D02*
X173500000Y-71250000D01*
X173675001Y-80024999D02*
X172950000Y-80750000D01*
X173500000Y-71250000D02*
X173675001Y-71425001D01*
X173600002Y-76000000D02*
X173675001Y-75925001D01*
X168500000Y-76000000D02*
X173600002Y-76000000D01*
X173675001Y-71425001D02*
X173675001Y-75925001D01*
X173675001Y-75925001D02*
X173675001Y-80024999D01*
X168500000Y-71250000D02*
X168500000Y-76000000D01*
X168500000Y-76000000D02*
X168500000Y-79950000D01*
X177474999Y-80024999D02*
X178200000Y-80750000D01*
X177474999Y-76210003D02*
X177474999Y-80024999D01*
X178200000Y-71250000D02*
X178200000Y-75485002D01*
X177675001Y-75925001D02*
X177717501Y-75967501D01*
X173675001Y-75925001D02*
X177675001Y-75925001D01*
X177717501Y-75967501D02*
X177474999Y-76210003D01*
X178200000Y-75485002D02*
X177717501Y-75967501D01*
X178500003Y-93200003D02*
X178500003Y-91750000D01*
X179500000Y-94200000D02*
X178500003Y-93200003D01*
X172950000Y-84700000D02*
X172950000Y-80750000D01*
X173500000Y-85250000D02*
X172950000Y-84700000D01*
X179200000Y-94500000D02*
X179500000Y-94200000D01*
X179200000Y-95750000D02*
X179200000Y-94500000D01*
%TO.N,Net-(C9-Pad1)*%
X197250000Y-93950000D02*
X197500000Y-94200000D01*
X194655000Y-93950000D02*
X197250000Y-93950000D01*
X197500000Y-94200000D02*
X200500000Y-94200000D01*
X188700000Y-71250000D02*
X189250000Y-71250000D01*
X189425001Y-80024999D02*
X188700000Y-80750000D01*
X189250000Y-71250000D02*
X189425001Y-71425001D01*
X193950000Y-71250000D02*
X194750000Y-71250000D01*
X194750000Y-79950000D02*
X193950000Y-80750000D01*
X194574999Y-75824999D02*
X194750000Y-76000000D01*
X194750000Y-76000000D02*
X194750000Y-79950000D01*
X189425001Y-75824999D02*
X194574999Y-75824999D01*
X189425001Y-71425001D02*
X189425001Y-75824999D01*
X189425001Y-75824999D02*
X189425001Y-80024999D01*
X198474999Y-80024999D02*
X199200000Y-80750000D01*
X198474999Y-76289999D02*
X198474999Y-80024999D01*
X199200000Y-71250000D02*
X199200000Y-75564998D01*
X197510001Y-75775001D02*
X198989997Y-75775001D01*
X197485000Y-75750000D02*
X197510001Y-75775001D01*
X194750000Y-75750000D02*
X197485000Y-75750000D01*
X199007499Y-75757499D02*
X198474999Y-76289999D01*
X199200000Y-75564998D02*
X199007499Y-75757499D01*
X198989997Y-75775001D02*
X199007499Y-75757499D01*
X194750000Y-71250000D02*
X194750000Y-75750000D01*
X194750000Y-75750000D02*
X194750000Y-76000000D01*
X199500000Y-93200000D02*
X199500000Y-91750000D01*
X200500000Y-94200000D02*
X199500000Y-93200000D01*
X193950000Y-84950000D02*
X193950000Y-80750000D01*
X194750000Y-85750000D02*
X193950000Y-84950000D01*
X200250000Y-94450000D02*
X200500000Y-94200000D01*
X200250000Y-95750000D02*
X200250000Y-94450000D01*
%TO.N,Net-(C10-Pad1)*%
X215655000Y-93950000D02*
X218750000Y-93950000D01*
X218750000Y-93950000D02*
X221500000Y-93950000D01*
X209700000Y-71250000D02*
X210250000Y-71250000D01*
X210425001Y-80024999D02*
X209700000Y-80750000D01*
X210250000Y-71250000D02*
X210425001Y-71425001D01*
X214950000Y-71250000D02*
X215250000Y-71250000D01*
X215675001Y-80024999D02*
X214950000Y-80750000D01*
X215250000Y-71250000D02*
X215675001Y-71675001D01*
X213425001Y-75824999D02*
X215675001Y-75824999D01*
X213175001Y-76074999D02*
X213425001Y-75824999D01*
X210425001Y-76074999D02*
X213175001Y-76074999D01*
X215675001Y-71675001D02*
X215675001Y-75824999D01*
X215675001Y-75824999D02*
X215675001Y-80024999D01*
X210425001Y-71425001D02*
X210425001Y-76074999D01*
X210425001Y-76074999D02*
X210425001Y-80024999D01*
X219474999Y-80024999D02*
X220200000Y-80750000D01*
X219474999Y-76289999D02*
X219474999Y-80024999D01*
X220200000Y-71250000D02*
X220200000Y-75564998D01*
X218732501Y-75882499D02*
X219882499Y-75882499D01*
X218675001Y-75824999D02*
X218732501Y-75882499D01*
X215675001Y-75824999D02*
X218675001Y-75824999D01*
X219882499Y-75882499D02*
X219474999Y-76289999D01*
X220200000Y-75564998D02*
X219882499Y-75882499D01*
X221500000Y-93500000D02*
X220500000Y-92500000D01*
X221500000Y-93950000D02*
X221500000Y-93500000D01*
X214950000Y-84950000D02*
X214950000Y-80750000D01*
X215500000Y-85500000D02*
X214950000Y-84950000D01*
X221200000Y-94250000D02*
X221500000Y-93950000D01*
X221200000Y-95500000D02*
X221200000Y-94250000D01*
%TO.N,Net-(C11-Pad1)*%
X239250000Y-93950000D02*
X239500000Y-94200000D01*
X236655000Y-93950000D02*
X239250000Y-93950000D01*
X239500000Y-94200000D02*
X242500000Y-94200000D01*
X230700000Y-71250000D02*
X230750000Y-71250000D01*
X231425001Y-80024999D02*
X230700000Y-80750000D01*
X230750000Y-71250000D02*
X231425001Y-71925001D01*
X235950000Y-71250000D02*
X236250000Y-71250000D01*
X236675001Y-80024999D02*
X235950000Y-80750000D01*
X236250000Y-71250000D02*
X236675001Y-71675001D01*
X231425001Y-75925001D02*
X236675001Y-75925001D01*
X236675001Y-75925001D02*
X236675001Y-80024999D01*
X236675001Y-71675001D02*
X236675001Y-75925001D01*
X231425001Y-71925001D02*
X231425001Y-75925001D01*
X231425001Y-75925001D02*
X231425001Y-80024999D01*
X240474999Y-80024999D02*
X241200000Y-80750000D01*
X240474999Y-76289999D02*
X240474999Y-80024999D01*
X241200000Y-71250000D02*
X241200000Y-75564998D01*
X239617501Y-75882499D02*
X240882499Y-75882499D01*
X239574999Y-75925001D02*
X239617501Y-75882499D01*
X236675001Y-75925001D02*
X239574999Y-75925001D01*
X240882499Y-75882499D02*
X240474999Y-76289999D01*
X241200000Y-75564998D02*
X240882499Y-75882499D01*
X241500003Y-93200003D02*
X241500003Y-91750000D01*
X242500000Y-94200000D02*
X241500003Y-93200003D01*
X235950000Y-84950000D02*
X235950000Y-80750000D01*
X236500000Y-85500000D02*
X235950000Y-84950000D01*
X242200000Y-94500000D02*
X242500000Y-94200000D01*
X242200000Y-95750000D02*
X242200000Y-94500000D01*
%TO.N,Net-(C12-Pad1)*%
X260250000Y-93950000D02*
X260500000Y-94200000D01*
X257655000Y-93950000D02*
X260250000Y-93950000D01*
X260500000Y-94200000D02*
X263500000Y-94200000D01*
X251700000Y-71250000D02*
X252500000Y-71250000D01*
X252500000Y-79950000D02*
X251700000Y-80750000D01*
X256950000Y-71250000D02*
X257250000Y-71250000D01*
X257675001Y-80024999D02*
X256950000Y-80750000D01*
X257250000Y-71250000D02*
X257675001Y-71675001D01*
X255250000Y-76000000D02*
X255324999Y-76074999D01*
X252500000Y-76000000D02*
X255250000Y-76000000D01*
X257675001Y-76074999D02*
X257675001Y-80024999D01*
X257675001Y-71675001D02*
X257675001Y-76074999D01*
X252500000Y-71250000D02*
X252500000Y-76000000D01*
X255324999Y-76074999D02*
X257675001Y-76074999D01*
X252500000Y-76000000D02*
X252500000Y-79950000D01*
X261474999Y-76289999D02*
X261474999Y-80024999D01*
X261474999Y-80024999D02*
X262200000Y-80750000D01*
X262200000Y-71250000D02*
X262200000Y-75564998D01*
X261574999Y-76074999D02*
X261632499Y-76132499D01*
X261632499Y-76132499D02*
X261474999Y-76289999D01*
X257675001Y-76074999D02*
X261574999Y-76074999D01*
X262200000Y-75564998D02*
X261632499Y-76132499D01*
X262500000Y-93200000D02*
X262500000Y-92500000D01*
X263500000Y-94200000D02*
X262500000Y-93200000D01*
X256950000Y-84950000D02*
X256950000Y-80750000D01*
X257500000Y-85500000D02*
X256950000Y-84950000D01*
X263200000Y-94500000D02*
X263500000Y-94200000D01*
X263200000Y-95750000D02*
X263200000Y-94500000D01*
%TO.N,Net-(C13-Pad1)*%
X281250000Y-93950000D02*
X281500000Y-94200000D01*
X278655000Y-93950000D02*
X281250000Y-93950000D01*
X281500000Y-94200000D02*
X284500000Y-94200000D01*
X272700000Y-71250000D02*
X273250000Y-71250000D01*
X273425001Y-80024999D02*
X272700000Y-80750000D01*
X273250000Y-71250000D02*
X273425001Y-71425001D01*
X277950000Y-71250000D02*
X278250000Y-71250000D01*
X278675001Y-80024999D02*
X277950000Y-80750000D01*
X278250000Y-71250000D02*
X278675001Y-71675001D01*
X273425001Y-76074999D02*
X275574999Y-76074999D01*
X275574999Y-76074999D02*
X275675001Y-76175001D01*
X278675001Y-76175001D02*
X278675001Y-80024999D01*
X278675001Y-71675001D02*
X278675001Y-76175001D01*
X275675001Y-76175001D02*
X278675001Y-76175001D01*
X273425001Y-71425001D02*
X273425001Y-76074999D01*
X273425001Y-76074999D02*
X273425001Y-80024999D01*
X282474999Y-80024999D02*
X283200000Y-80750000D01*
X282474999Y-76210003D02*
X282474999Y-80024999D01*
X283200000Y-75485002D02*
X282474999Y-76210003D01*
X283200000Y-71250000D02*
X283200000Y-75485002D01*
X281324999Y-76175001D02*
X281360001Y-76210003D01*
X281360001Y-76210003D02*
X282474999Y-76210003D01*
X278675001Y-76175001D02*
X281324999Y-76175001D01*
X283448685Y-93148685D02*
X283448685Y-91433772D01*
X284500000Y-94200000D02*
X283448685Y-93148685D01*
X277950000Y-84950000D02*
X277950000Y-80750000D01*
X278500000Y-85500000D02*
X277950000Y-84950000D01*
X284200000Y-94500000D02*
X284500000Y-94200000D01*
X284200000Y-95750000D02*
X284200000Y-94500000D01*
%TO.N,Net-(C14-Pad1)*%
X302250000Y-93950000D02*
X302500000Y-94200000D01*
X299655000Y-93950000D02*
X302250000Y-93950000D01*
X302500000Y-94200000D02*
X305500000Y-94200000D01*
X293700000Y-71250000D02*
X294250000Y-71250000D01*
X294425001Y-80024999D02*
X293700000Y-80750000D01*
X294250000Y-71250000D02*
X294425001Y-71425001D01*
X298950000Y-71250000D02*
X299500000Y-71250000D01*
X299675001Y-80024999D02*
X298950000Y-80750000D01*
X299500000Y-71250000D02*
X299675001Y-71425001D01*
X297010003Y-76175001D02*
X299675001Y-76175001D01*
X296910001Y-76074999D02*
X297010003Y-76175001D01*
X299675001Y-76175001D02*
X299675001Y-80024999D01*
X299675001Y-71425001D02*
X299675001Y-76175001D01*
X294425001Y-71425001D02*
X294425001Y-76074999D01*
X294425001Y-76074999D02*
X296910001Y-76074999D01*
X294425001Y-76074999D02*
X294425001Y-80024999D01*
X303474999Y-76210003D02*
X303474999Y-80024999D01*
X303474999Y-80024999D02*
X304200000Y-80750000D01*
X304200000Y-71250000D02*
X304200000Y-75485002D01*
X302132501Y-75967501D02*
X303717501Y-75967501D01*
X301925001Y-76175001D02*
X302132501Y-75967501D01*
X299675001Y-76175001D02*
X301925001Y-76175001D01*
X303717501Y-75967501D02*
X303474999Y-76210003D01*
X304200000Y-75485002D02*
X303717501Y-75967501D01*
X304500000Y-93200000D02*
X304500000Y-91750000D01*
X305500000Y-94200000D02*
X304500000Y-93200000D01*
X298950000Y-85200000D02*
X298950000Y-80750000D01*
X299500000Y-85750000D02*
X298950000Y-85200000D01*
X305200000Y-94500000D02*
X305500000Y-94200000D01*
X305200000Y-95750000D02*
X305200000Y-94500000D01*
%TO.N,Net-(C15-Pad1)*%
X323250000Y-93950000D02*
X323500000Y-94200000D01*
X320655000Y-93950000D02*
X323250000Y-93950000D01*
X323500000Y-94200000D02*
X326500000Y-94200000D01*
X314700000Y-71250000D02*
X315250000Y-71250000D01*
X315425001Y-80024999D02*
X314700000Y-80750000D01*
X315250000Y-71250000D02*
X315425001Y-71425001D01*
X319950000Y-71250000D02*
X320250000Y-71250000D01*
X320675001Y-80024999D02*
X319950000Y-80750000D01*
X320250000Y-71250000D02*
X320675001Y-71675001D01*
X315425001Y-76074999D02*
X320525003Y-76074999D01*
X320525003Y-76074999D02*
X320675001Y-75925001D01*
X320675001Y-75925001D02*
X320675001Y-80024999D01*
X320675001Y-71675001D02*
X320675001Y-75925001D01*
X315425001Y-71425001D02*
X315425001Y-76074999D01*
X315425001Y-76074999D02*
X315425001Y-80024999D01*
X324474999Y-80024999D02*
X325200000Y-80750000D01*
X324474999Y-76289999D02*
X324474999Y-80024999D01*
X325200000Y-71250000D02*
X325200000Y-75564998D01*
X323657497Y-76007499D02*
X324757499Y-76007499D01*
X323574999Y-75925001D02*
X323657497Y-76007499D01*
X320675001Y-75925001D02*
X323574999Y-75925001D01*
X324757499Y-76007499D02*
X324474999Y-76289999D01*
X325200000Y-75564998D02*
X324757499Y-76007499D01*
X325500003Y-93200003D02*
X325500003Y-91750000D01*
X326500000Y-94200000D02*
X325500003Y-93200003D01*
X319950000Y-84950000D02*
X319950000Y-80750000D01*
X320750000Y-85750000D02*
X319950000Y-84950000D01*
X326250000Y-94450000D02*
X326500000Y-94200000D01*
X326250000Y-95750000D02*
X326250000Y-94450000D01*
%TO.N,Net-(C16-Pad1)*%
X344000000Y-93950000D02*
X344250000Y-94200000D01*
X341405000Y-93950000D02*
X344000000Y-93950000D01*
X344250000Y-94200000D02*
X347250000Y-94200000D01*
X335700000Y-71250000D02*
X336000000Y-71250000D01*
X336425001Y-80024999D02*
X335700000Y-80750000D01*
X336000000Y-71250000D02*
X336425001Y-71675001D01*
X340950000Y-71250000D02*
X341000000Y-71250000D01*
X341675001Y-80024999D02*
X340950000Y-80750000D01*
X341000000Y-71250000D02*
X341675001Y-71925001D01*
X336425001Y-75925001D02*
X341675001Y-75925001D01*
X341675001Y-75925001D02*
X341675001Y-80024999D01*
X341675001Y-71925001D02*
X341675001Y-75925001D01*
X336425001Y-71675001D02*
X336425001Y-75925001D01*
X336425001Y-75925001D02*
X336425001Y-80024999D01*
X345474999Y-80024999D02*
X346200000Y-80750000D01*
X345474999Y-76289999D02*
X345474999Y-80024999D01*
X346200000Y-71250000D02*
X346200000Y-75564998D01*
X344574999Y-75925001D02*
X344657497Y-76007499D01*
X341675001Y-75925001D02*
X344574999Y-75925001D01*
X344657497Y-76007499D02*
X345757499Y-76007499D01*
X345757499Y-76007499D02*
X345474999Y-76289999D01*
X346200000Y-75564998D02*
X345757499Y-76007499D01*
X346250000Y-93200000D02*
X346250000Y-92000000D01*
X347250000Y-94200000D02*
X346250000Y-93200000D01*
X340950000Y-85700000D02*
X340950000Y-80750000D01*
X341500000Y-86250000D02*
X340950000Y-85700000D01*
X346950000Y-94500000D02*
X347250000Y-94200000D01*
X346950000Y-95750000D02*
X346950000Y-94500000D01*
%TO.N,/AddressableLedDriver01/DIN*%
X17575001Y-63435001D02*
X16400000Y-62260000D01*
X17575001Y-86025001D02*
X17575001Y-63435001D01*
X19050000Y-87500000D02*
X17575001Y-86025001D01*
D19*
%TO.N,/AddressableLedDriver01/VIn*%
X16400000Y-59720000D02*
X18512000Y-59720000D01*
X32750001Y-58870001D02*
X33600000Y-59720000D01*
X19361999Y-58870001D02*
X32750001Y-58870001D01*
X18512000Y-59720000D02*
X19361999Y-58870001D01*
D18*
X32400000Y-63714998D02*
X32400000Y-91850000D01*
X32489999Y-63624999D02*
X32400000Y-63714998D01*
X33974003Y-63624999D02*
X32489999Y-63624999D01*
X34775001Y-62824001D02*
X33974003Y-63624999D01*
X34775001Y-60895001D02*
X34775001Y-62824001D01*
X33600000Y-59720000D02*
X34775001Y-60895001D01*
D19*
X37400000Y-59860000D02*
X39640000Y-59860000D01*
X39640000Y-59860000D02*
X40750000Y-58750000D01*
X53630000Y-58750000D02*
X54600000Y-59720000D01*
X40750000Y-58750000D02*
X53630000Y-58750000D01*
X58250000Y-59670000D02*
X60580000Y-59670000D01*
X60580000Y-59670000D02*
X61500000Y-58750000D01*
X74830000Y-58750000D02*
X75750000Y-59670000D01*
X61500000Y-58750000D02*
X74830000Y-58750000D01*
X79250000Y-59670000D02*
X81330000Y-59670000D01*
X81330000Y-59670000D02*
X82250000Y-58750000D01*
X95830000Y-58750000D02*
X96750000Y-59670000D01*
X82250000Y-58750000D02*
X95830000Y-58750000D01*
X100250000Y-59710000D02*
X102540000Y-59710000D01*
X102540000Y-59710000D02*
X103750000Y-58500000D01*
X116580000Y-58500000D02*
X117750000Y-59670000D01*
X103750000Y-58500000D02*
X116580000Y-58500000D01*
X121500000Y-59670000D02*
X123330000Y-59670000D01*
X123330000Y-59670000D02*
X124500000Y-58500000D01*
X137330000Y-58500000D02*
X138750000Y-59920000D01*
X124500000Y-58500000D02*
X137330000Y-58500000D01*
X142250000Y-59920000D02*
X144330000Y-59920000D01*
X144330000Y-59920000D02*
X145500000Y-58750000D01*
X158580000Y-58750000D02*
X159750000Y-59920000D01*
X145500000Y-58750000D02*
X158580000Y-58750000D01*
X163250000Y-59920000D02*
X164830000Y-59920000D01*
X164830000Y-59920000D02*
X166000000Y-58750000D01*
X179750000Y-58750000D02*
X180750000Y-59750000D01*
X166000000Y-58750000D02*
X179750000Y-58750000D01*
X184250000Y-59670000D02*
X185830000Y-59670000D01*
X185830000Y-59670000D02*
X186750000Y-58750000D01*
X200830000Y-58750000D02*
X201750000Y-59670000D01*
X186750000Y-58750000D02*
X200830000Y-58750000D01*
X205250000Y-59670000D02*
X206830000Y-59670000D01*
X206830000Y-59670000D02*
X207750000Y-58750000D01*
X221830000Y-58750000D02*
X222750000Y-59670000D01*
X207750000Y-58750000D02*
X221830000Y-58750000D01*
X226250000Y-59670000D02*
X227830000Y-59670000D01*
X227830000Y-59670000D02*
X229000000Y-58500000D01*
X242580000Y-58500000D02*
X243750000Y-59670000D01*
X229000000Y-58500000D02*
X242580000Y-58500000D01*
X247250000Y-59670000D02*
X248580000Y-59670000D01*
X248580000Y-59670000D02*
X249750000Y-58500000D01*
X263580000Y-58500000D02*
X264750000Y-59670000D01*
X249750000Y-58500000D02*
X263580000Y-58500000D01*
X268250000Y-59670000D02*
X270080000Y-59670000D01*
X270080000Y-59670000D02*
X271250000Y-58500000D01*
X284580000Y-58500000D02*
X285750000Y-59670000D01*
X271250000Y-58500000D02*
X284580000Y-58500000D01*
X289250000Y-59670000D02*
X290830000Y-59670000D01*
X290830000Y-59670000D02*
X292000000Y-58500000D01*
X305580000Y-58500000D02*
X306750000Y-59670000D01*
X292000000Y-58500000D02*
X305580000Y-58500000D01*
X310250000Y-59670000D02*
X311580000Y-59670000D01*
X311580000Y-59670000D02*
X312750000Y-58500000D01*
X326580000Y-58500000D02*
X327750000Y-59670000D01*
X312750000Y-58500000D02*
X326580000Y-58500000D01*
X331250000Y-59670000D02*
X333330000Y-59670000D01*
X333330000Y-59670000D02*
X334500000Y-58500000D01*
X347580000Y-58500000D02*
X348750000Y-59670000D01*
X334500000Y-58500000D02*
X347580000Y-58500000D01*
D18*
X53424999Y-63689999D02*
X53424999Y-66424999D01*
X53489999Y-63624999D02*
X53424999Y-63689999D01*
X54974003Y-63624999D02*
X53489999Y-63624999D01*
X55775001Y-62824001D02*
X54974003Y-63624999D01*
X55775001Y-60895001D02*
X55775001Y-62824001D01*
X54600000Y-59720000D02*
X55775001Y-60895001D01*
X53925010Y-91624990D02*
X53500000Y-92050000D01*
X53925010Y-66925010D02*
X53925010Y-91624990D01*
X53424999Y-66424999D02*
X53925010Y-66925010D01*
X74574999Y-67324999D02*
X75149990Y-67899990D01*
X74574999Y-63639999D02*
X74574999Y-67324999D01*
X74639999Y-63574999D02*
X74574999Y-63639999D01*
X76425001Y-63574999D02*
X74639999Y-63574999D01*
X76925001Y-63074999D02*
X76425001Y-63574999D01*
X76925001Y-60845001D02*
X76925001Y-63074999D01*
X75750000Y-59670000D02*
X76925001Y-60845001D01*
X75149990Y-91400010D02*
X74500000Y-92050000D01*
X75149990Y-67899990D02*
X75149990Y-91400010D01*
X95574999Y-66824999D02*
X96149990Y-67399990D01*
X95574999Y-63639999D02*
X95574999Y-66824999D01*
X95639999Y-63574999D02*
X95574999Y-63639999D01*
X97925001Y-62774001D02*
X97124003Y-63574999D01*
X97124003Y-63574999D02*
X95639999Y-63574999D01*
X97925001Y-60845001D02*
X97925001Y-62774001D01*
X96750000Y-59670000D02*
X97925001Y-60845001D01*
X96149990Y-91400010D02*
X95500000Y-92050000D01*
X96149990Y-67399990D02*
X96149990Y-91400010D01*
X116574999Y-63639999D02*
X116574999Y-66574999D01*
X116639999Y-63574999D02*
X116574999Y-63639999D01*
X118675001Y-63574999D02*
X116639999Y-63574999D01*
X118925001Y-63324999D02*
X118675001Y-63574999D01*
X118925001Y-60845001D02*
X118925001Y-63324999D01*
X117750000Y-59670000D02*
X118925001Y-60845001D01*
X116574999Y-66574999D02*
X117149990Y-67149990D01*
X117149990Y-91150010D02*
X116250000Y-92050000D01*
X117149990Y-67149990D02*
X117149990Y-91150010D01*
X137574999Y-63889999D02*
X137574999Y-67074999D01*
X137639999Y-63824999D02*
X137574999Y-63889999D01*
X139124003Y-63824999D02*
X137639999Y-63824999D01*
X139925001Y-63024001D02*
X139124003Y-63824999D01*
X139925001Y-61095001D02*
X139925001Y-63024001D01*
X138750000Y-59920000D02*
X139925001Y-61095001D01*
X137574999Y-67074999D02*
X138149990Y-67649990D01*
X138149990Y-91650010D02*
X137500000Y-92300000D01*
X138149990Y-67649990D02*
X138149990Y-91650010D01*
X158574999Y-66824999D02*
X159149990Y-67399990D01*
X158639999Y-63824999D02*
X158574999Y-63889999D01*
X160124003Y-63824999D02*
X158639999Y-63824999D01*
X158574999Y-63889999D02*
X158574999Y-66824999D01*
X160925001Y-63024001D02*
X160124003Y-63824999D01*
X160925001Y-61095001D02*
X160925001Y-63024001D01*
X159750000Y-59920000D02*
X160925001Y-61095001D01*
X159149990Y-91650010D02*
X158500000Y-92300000D01*
X159149990Y-67399990D02*
X159149990Y-91650010D01*
X179574999Y-67074999D02*
X180149990Y-67649990D01*
X179574999Y-63719999D02*
X179574999Y-67074999D01*
X181124003Y-63654999D02*
X179639999Y-63654999D01*
X179639999Y-63654999D02*
X179574999Y-63719999D01*
X181925001Y-62854001D02*
X181124003Y-63654999D01*
X181925001Y-60925001D02*
X181925001Y-62854001D01*
X180750000Y-59750000D02*
X181925001Y-60925001D01*
X180149990Y-91650010D02*
X179500000Y-92300000D01*
X180149990Y-67649990D02*
X180149990Y-91650010D01*
X200574999Y-63639999D02*
X200574999Y-67324999D01*
X200639999Y-63574999D02*
X200574999Y-63639999D01*
X202124003Y-63574999D02*
X200639999Y-63574999D01*
X202925001Y-62774001D02*
X202124003Y-63574999D01*
X200574999Y-67324999D02*
X201149990Y-67899990D01*
X202925001Y-60845001D02*
X202925001Y-62774001D01*
X201750000Y-59670000D02*
X202925001Y-60845001D01*
X201149990Y-91650010D02*
X200500000Y-92300000D01*
X201149990Y-67899990D02*
X201149990Y-91650010D01*
X221574999Y-67824999D02*
X222149990Y-68399990D01*
X221574999Y-63639999D02*
X221574999Y-67824999D01*
X221639999Y-63574999D02*
X221574999Y-63639999D01*
X223124003Y-63574999D02*
X221639999Y-63574999D01*
X223925001Y-62774001D02*
X223124003Y-63574999D01*
X223925001Y-60845001D02*
X223925001Y-62774001D01*
X222750000Y-59670000D02*
X223925001Y-60845001D01*
X222149990Y-86644978D02*
X222250000Y-86744988D01*
X222149990Y-68399990D02*
X222149990Y-86644978D01*
X222250000Y-91300000D02*
X221500000Y-92050000D01*
X222250000Y-86744988D02*
X222250000Y-91300000D01*
X243149990Y-67399990D02*
X243149990Y-91650010D01*
X242574999Y-66824999D02*
X243149990Y-67399990D01*
X242574999Y-63639999D02*
X242574999Y-66824999D01*
X242639999Y-63574999D02*
X242574999Y-63639999D01*
X244124003Y-63574999D02*
X242639999Y-63574999D01*
X243149990Y-91650010D02*
X242500000Y-92300000D01*
X244925001Y-60845001D02*
X244925001Y-62774001D01*
X244925001Y-62774001D02*
X244124003Y-63574999D01*
X243750000Y-59670000D02*
X244925001Y-60845001D01*
X263574999Y-67824999D02*
X263750000Y-68000000D01*
X263639999Y-63574999D02*
X263574999Y-63639999D01*
X265124003Y-63574999D02*
X263639999Y-63574999D01*
X265925001Y-62774001D02*
X265124003Y-63574999D01*
X265925001Y-60845001D02*
X265925001Y-62774001D01*
X263574999Y-63639999D02*
X263574999Y-67824999D01*
X264750000Y-59670000D02*
X265925001Y-60845001D01*
X263750000Y-92050000D02*
X263500000Y-92300000D01*
X263750000Y-68000000D02*
X263750000Y-92050000D01*
X285250000Y-91550000D02*
X284500000Y-92300000D01*
X285250000Y-86744988D02*
X285250000Y-91550000D01*
X285149990Y-67399990D02*
X285149990Y-86644978D01*
X284574999Y-66824999D02*
X285149990Y-67399990D01*
X285149990Y-86644978D02*
X285250000Y-86744988D01*
X284574999Y-63639999D02*
X284574999Y-66824999D01*
X284639999Y-63574999D02*
X284574999Y-63639999D01*
X286124003Y-63574999D02*
X284639999Y-63574999D01*
X286925001Y-62774001D02*
X286124003Y-63574999D01*
X286925001Y-60845001D02*
X286925001Y-62774001D01*
X285750000Y-59670000D02*
X286925001Y-60845001D01*
X305574999Y-66824999D02*
X306149990Y-67399990D01*
X305574999Y-63639999D02*
X305574999Y-66824999D01*
X305639999Y-63574999D02*
X305574999Y-63639999D01*
X307124003Y-63574999D02*
X305639999Y-63574999D01*
X307925001Y-62774001D02*
X307124003Y-63574999D01*
X307925001Y-60845001D02*
X307925001Y-62774001D01*
X306750000Y-59670000D02*
X307925001Y-60845001D01*
X306149990Y-91650010D02*
X305500000Y-92300000D01*
X306149990Y-67399990D02*
X306149990Y-91650010D01*
X326574999Y-66824999D02*
X327149990Y-67399990D01*
X326574999Y-63639999D02*
X326574999Y-66824999D01*
X326639999Y-63574999D02*
X326574999Y-63639999D01*
X328124003Y-63574999D02*
X326639999Y-63574999D01*
X328925001Y-62774001D02*
X328124003Y-63574999D01*
X328925001Y-60845001D02*
X328925001Y-62774001D01*
X327750000Y-59670000D02*
X328925001Y-60845001D01*
X327149990Y-91650010D02*
X326500000Y-92300000D01*
X327149990Y-67399990D02*
X327149990Y-91650010D01*
X347574999Y-63639999D02*
X347574999Y-66074999D01*
X347639999Y-63574999D02*
X347574999Y-63639999D01*
X349175001Y-63574999D02*
X347639999Y-63574999D01*
X349925001Y-62824999D02*
X349175001Y-63574999D01*
X349925001Y-60845001D02*
X349925001Y-62824999D01*
X348750000Y-59670000D02*
X349925001Y-60845001D01*
X347574999Y-66074999D02*
X348000000Y-66500000D01*
X348000000Y-91550000D02*
X347250000Y-92300000D01*
X348000000Y-66500000D02*
X348000000Y-91550000D01*
%TO.N,Net-(Qblueinv1-Pad1)*%
X18850000Y-82400000D02*
X18800000Y-82450000D01*
X18850000Y-77500000D02*
X18850000Y-80600000D01*
X18850000Y-83500000D02*
X18800000Y-83550000D01*
X18850000Y-80600000D02*
X18850000Y-83500000D01*
%TO.N,Net-(Rblue1-Pad2)*%
X24803000Y-87909000D02*
X23508000Y-86614000D01*
X24803000Y-88384000D02*
X24803000Y-87909000D01*
X19964000Y-86614000D02*
X18800000Y-85450000D01*
X23508000Y-86614000D02*
X19964000Y-86614000D01*
%TO.N,Net-(Qblueinv2-Pad1)*%
X40250000Y-77500000D02*
X40250000Y-80750000D01*
X40250000Y-83550000D02*
X40200000Y-83600000D01*
X40250000Y-80750000D02*
X40250000Y-83550000D01*
%TO.N,Net-(Rblue2-Pad2)*%
X45415000Y-87959998D02*
X45415000Y-88350000D01*
X42955002Y-85500000D02*
X45415000Y-87959998D01*
X40200000Y-85500000D02*
X42955002Y-85500000D01*
%TO.N,Net-(Qblueinv3-Pad1)*%
X61050000Y-80500000D02*
X61300000Y-80750000D01*
X61050000Y-77500000D02*
X61050000Y-80500000D01*
X61300000Y-83250000D02*
X61000000Y-83550000D01*
X61300000Y-80750000D02*
X61300000Y-83250000D01*
%TO.N,Net-(Rblue3-Pad2)*%
X65215001Y-86375001D02*
X66115000Y-87275000D01*
X61925001Y-86375001D02*
X65215001Y-86375001D01*
X66115000Y-87275000D02*
X66115000Y-88300000D01*
X61000000Y-85450000D02*
X61925001Y-86375001D01*
%TO.N,Net-(Qblueinv4-Pad1)*%
X81800000Y-77500000D02*
X81800000Y-80750000D01*
X81800000Y-83500000D02*
X81750000Y-83550000D01*
X81800000Y-80750000D02*
X81800000Y-83500000D01*
%TO.N,Net-(Rblue4-Pad2)*%
X87115000Y-87275000D02*
X87115000Y-88300000D01*
X85290000Y-85450000D02*
X87115000Y-87275000D01*
X81750000Y-85450000D02*
X85290000Y-85450000D01*
%TO.N,Net-(Qblueinv5-Pad1)*%
X103050000Y-77500000D02*
X103050000Y-80750000D01*
X103050000Y-83500000D02*
X103000000Y-83550000D01*
X103050000Y-80750000D02*
X103050000Y-83500000D01*
%TO.N,Net-(Rblue5-Pad2)*%
X108115000Y-87275000D02*
X108115000Y-88300000D01*
X107215001Y-86375001D02*
X108115000Y-87275000D01*
X103925001Y-86375001D02*
X107215001Y-86375001D01*
X103000000Y-85450000D02*
X103925001Y-86375001D01*
%TO.N,Net-(Qblueinv6-Pad1)*%
X124050000Y-77500000D02*
X124050000Y-80750000D01*
X124050000Y-83500000D02*
X124000000Y-83550000D01*
X124050000Y-80750000D02*
X124050000Y-83500000D01*
%TO.N,Net-(Rblue6-Pad2)*%
X129115000Y-88159998D02*
X129115000Y-88550000D01*
X126405002Y-85450000D02*
X129115000Y-88159998D01*
X124000000Y-85450000D02*
X126405002Y-85450000D01*
%TO.N,Net-(Qblueinv7-Pad1)*%
X144800000Y-77500000D02*
X144800000Y-80750000D01*
X144800000Y-83500000D02*
X144750000Y-83550000D01*
X144800000Y-80750000D02*
X144800000Y-83500000D01*
%TO.N,Net-(Rblue7-Pad2)*%
X150115000Y-87525000D02*
X150115000Y-88550000D01*
X148040000Y-85450000D02*
X150115000Y-87525000D01*
X144750000Y-85450000D02*
X148040000Y-85450000D01*
%TO.N,Net-(Qblueinv8-Pad1)*%
X165800000Y-77500000D02*
X165800000Y-80750000D01*
X165800000Y-83500000D02*
X165750000Y-83550000D01*
X165800000Y-80750000D02*
X165800000Y-83500000D01*
%TO.N,Net-(Rblue8-Pad2)*%
X171115000Y-87525000D02*
X171115000Y-88550000D01*
X169040000Y-85450000D02*
X171115000Y-87525000D01*
X165750000Y-85450000D02*
X169040000Y-85450000D01*
%TO.N,Net-(Qblueinv9-Pad1)*%
X186800000Y-77500000D02*
X186800000Y-80750000D01*
X186800000Y-83500000D02*
X186750000Y-83550000D01*
X186800000Y-80750000D02*
X186800000Y-83500000D01*
%TO.N,Net-(Rblue9-Pad2)*%
X192115000Y-87525000D02*
X192115000Y-88550000D01*
X190040000Y-85450000D02*
X192115000Y-87525000D01*
X186750000Y-85450000D02*
X190040000Y-85450000D01*
%TO.N,Net-(Qblueinv10-Pad1)*%
X207800000Y-77500000D02*
X207800000Y-80750000D01*
X207800000Y-83500000D02*
X207750000Y-83550000D01*
X207800000Y-80750000D02*
X207800000Y-83500000D01*
%TO.N,Net-(Rblue10-Pad2)*%
X213115000Y-87525000D02*
X213115000Y-88550000D01*
X211040000Y-85450000D02*
X213115000Y-87525000D01*
X207750000Y-85450000D02*
X211040000Y-85450000D01*
%TO.N,Net-(Qblueinv11-Pad1)*%
X228800000Y-77500000D02*
X228800000Y-80750000D01*
X228800000Y-83500000D02*
X228750000Y-83550000D01*
X228800000Y-80750000D02*
X228800000Y-83500000D01*
%TO.N,Net-(Rblue11-Pad2)*%
X234115000Y-87525000D02*
X234115000Y-88550000D01*
X232040000Y-85450000D02*
X234115000Y-87525000D01*
X228750000Y-85450000D02*
X232040000Y-85450000D01*
%TO.N,Net-(Qblueinv12-Pad1)*%
X249800000Y-77500000D02*
X249800000Y-80750000D01*
X249800000Y-83750000D02*
X249750000Y-83800000D01*
X249800000Y-80750000D02*
X249800000Y-83750000D01*
%TO.N,Net-(Rblue12-Pad2)*%
X255115000Y-87525000D02*
X255115000Y-88550000D01*
X253290000Y-85700000D02*
X255115000Y-87525000D01*
X249750000Y-85700000D02*
X253290000Y-85700000D01*
%TO.N,Net-(Qblueinv13-Pad1)*%
X270800000Y-77500000D02*
X270800000Y-80750000D01*
X270800000Y-83500000D02*
X270750000Y-83550000D01*
X270800000Y-80750000D02*
X270800000Y-83500000D01*
%TO.N,Net-(Rblue13-Pad2)*%
X276115000Y-87525000D02*
X276115000Y-88550000D01*
X274040000Y-85450000D02*
X276115000Y-87525000D01*
X270750000Y-85450000D02*
X274040000Y-85450000D01*
%TO.N,Net-(Qblueinv14-Pad1)*%
X291800000Y-77500000D02*
X291800000Y-80750000D01*
X291800000Y-83500000D02*
X291750000Y-83550000D01*
X291800000Y-80750000D02*
X291800000Y-83500000D01*
%TO.N,Net-(Rblue14-Pad2)*%
X297115000Y-87525000D02*
X297115000Y-88550000D01*
X295040000Y-85450000D02*
X297115000Y-87525000D01*
X291750000Y-85450000D02*
X295040000Y-85450000D01*
%TO.N,Net-(Qblueinv15-Pad1)*%
X312800000Y-77500000D02*
X312800000Y-80750000D01*
X312800000Y-83500000D02*
X312750000Y-83550000D01*
X312800000Y-80750000D02*
X312800000Y-83500000D01*
%TO.N,Net-(Rblue15-Pad2)*%
X318115000Y-87525000D02*
X318115000Y-88550000D01*
X316040000Y-85450000D02*
X318115000Y-87525000D01*
X312750000Y-85450000D02*
X316040000Y-85450000D01*
%TO.N,Net-(Qblueinv16-Pad1)*%
X333800000Y-77500000D02*
X333800000Y-80750000D01*
X333800000Y-83500000D02*
X333750000Y-83550000D01*
X333800000Y-80750000D02*
X333800000Y-83500000D01*
%TO.N,Net-(Rblue16-Pad2)*%
X338865000Y-87525000D02*
X338865000Y-88550000D01*
X336790000Y-85450000D02*
X338865000Y-87525000D01*
X333750000Y-85450000D02*
X336790000Y-85450000D01*
%TO.N,Net-(Qblueinv1-Pad3)*%
X19050000Y-67700000D02*
X19050000Y-71200000D01*
X19050000Y-73750000D02*
X19800000Y-74500000D01*
X19050000Y-71200000D02*
X19050000Y-73750000D01*
%TO.N,Net-(Qblueinv2-Pad3)*%
X40050000Y-71000000D02*
X40250000Y-71200000D01*
X40050000Y-67700000D02*
X40050000Y-71000000D01*
X40250000Y-73550000D02*
X41200000Y-74500000D01*
X40250000Y-71200000D02*
X40250000Y-73550000D01*
%TO.N,Net-(Qblueinv3-Pad3)*%
X60800000Y-71000000D02*
X61050000Y-71250000D01*
X60800000Y-67750000D02*
X60800000Y-71000000D01*
X61050000Y-73550000D02*
X62000000Y-74500000D01*
X61050000Y-71250000D02*
X61050000Y-73550000D01*
%TO.N,Net-(Qblueinv4-Pad3)*%
X81800000Y-67750000D02*
X81800000Y-71250000D01*
X81800000Y-73550000D02*
X82750000Y-74500000D01*
X81800000Y-71250000D02*
X81800000Y-73550000D01*
%TO.N,Net-(Qblueinv5-Pad3)*%
X103050000Y-67750000D02*
X103050000Y-71250000D01*
X103050000Y-73550000D02*
X104000000Y-74500000D01*
X103050000Y-71250000D02*
X103050000Y-73550000D01*
%TO.N,Net-(Qblueinv6-Pad3)*%
X124050000Y-67750000D02*
X124050000Y-71250000D01*
X124050000Y-73550000D02*
X125000000Y-74500000D01*
X124050000Y-71250000D02*
X124050000Y-73550000D01*
%TO.N,Net-(Qblueinv7-Pad3)*%
X144800000Y-67750000D02*
X144800000Y-71250000D01*
X144800000Y-73550000D02*
X145750000Y-74500000D01*
X144800000Y-71250000D02*
X144800000Y-73550000D01*
%TO.N,Net-(Qblueinv8-Pad3)*%
X165800000Y-67750000D02*
X165800000Y-71250000D01*
X165800000Y-73550000D02*
X166750000Y-74500000D01*
X165800000Y-71250000D02*
X165800000Y-73550000D01*
%TO.N,Net-(Qblueinv9-Pad3)*%
X186800000Y-67750000D02*
X186800000Y-71250000D01*
X186800000Y-73550000D02*
X187750000Y-74500000D01*
X186800000Y-71250000D02*
X186800000Y-73550000D01*
%TO.N,Net-(Qblueinv10-Pad3)*%
X207800000Y-67750000D02*
X207800000Y-71250000D01*
X207800000Y-73550000D02*
X208750000Y-74500000D01*
X207800000Y-71250000D02*
X207800000Y-73550000D01*
%TO.N,Net-(Qblueinv11-Pad3)*%
X228800000Y-67750000D02*
X228800000Y-71250000D01*
X228800000Y-73550000D02*
X229750000Y-74500000D01*
X228800000Y-71250000D02*
X228800000Y-73550000D01*
%TO.N,Net-(Qblueinv12-Pad3)*%
X249800000Y-67750000D02*
X249800000Y-71250000D01*
X249800000Y-73550000D02*
X250750000Y-74500000D01*
X249800000Y-71250000D02*
X249800000Y-73550000D01*
%TO.N,Net-(Qblueinv13-Pad3)*%
X270800000Y-67750000D02*
X270800000Y-71250000D01*
X270800000Y-73550000D02*
X271750000Y-74500000D01*
X270800000Y-71250000D02*
X270800000Y-73550000D01*
%TO.N,Net-(Qblueinv14-Pad3)*%
X291800000Y-67750000D02*
X291800000Y-71250000D01*
X291800000Y-73550000D02*
X292750000Y-74500000D01*
X291800000Y-71250000D02*
X291800000Y-73550000D01*
%TO.N,Net-(Qblueinv15-Pad3)*%
X312800000Y-67750000D02*
X312800000Y-71250000D01*
X312800000Y-73550000D02*
X313750000Y-74500000D01*
X312800000Y-71250000D02*
X312800000Y-73550000D01*
%TO.N,Net-(Qblueinv16-Pad3)*%
X333800000Y-67750000D02*
X333800000Y-71250000D01*
X333800000Y-73550000D02*
X334750000Y-74500000D01*
X333800000Y-71250000D02*
X333800000Y-73550000D01*
%TO.N,Net-(Rdin1-Pad1)*%
X24803000Y-93784000D02*
X24803000Y-93309000D01*
X24803000Y-91353000D02*
X24803000Y-93784000D01*
X20950000Y-87500000D02*
X24803000Y-91353000D01*
%TO.N,Net-(Rdin2-Pad1)*%
X45415000Y-91215000D02*
X45415000Y-93750000D01*
X41450000Y-87250000D02*
X45415000Y-91215000D01*
%TO.N,Net-(Rdin3-Pad1)*%
X66115000Y-91540000D02*
X66115000Y-93700000D01*
X62450000Y-87875000D02*
X66115000Y-91540000D01*
X62450000Y-87250000D02*
X62450000Y-87875000D01*
%TO.N,Net-(Rdin4-Pad1)*%
X87115000Y-91540000D02*
X87115000Y-93700000D01*
X83450000Y-87875000D02*
X87115000Y-91540000D01*
X83450000Y-87250000D02*
X83450000Y-87875000D01*
%TO.N,Net-(Rdin5-Pad1)*%
X108115000Y-92675000D02*
X108115000Y-93700000D01*
X104774999Y-89334999D02*
X108115000Y-92675000D01*
X104774999Y-87274999D02*
X104774999Y-89334999D01*
X104750000Y-87250000D02*
X104774999Y-87274999D01*
X104450000Y-87250000D02*
X104750000Y-87250000D01*
%TO.N,Net-(Rdin6-Pad1)*%
X129115000Y-91480002D02*
X129115000Y-93950000D01*
X125450000Y-87815002D02*
X129115000Y-91480002D01*
X125450000Y-87000000D02*
X125450000Y-87815002D01*
%TO.N,Net-(Rdin7-Pad1)*%
X150115000Y-91415000D02*
X150115000Y-93950000D01*
X146200000Y-87500000D02*
X150115000Y-91415000D01*
%TO.N,Net-(Rdin8-Pad1)*%
X171115000Y-91415000D02*
X171115000Y-93950000D01*
X167200000Y-87500000D02*
X171115000Y-91415000D01*
%TO.N,Net-(Rdin9-Pad1)*%
X192115000Y-91790000D02*
X192115000Y-93950000D01*
X188200000Y-87875000D02*
X192115000Y-91790000D01*
X188200000Y-87250000D02*
X188200000Y-87875000D01*
%TO.N,Net-(Rdin10-Pad1)*%
X213115000Y-92897998D02*
X213115000Y-93950000D01*
X209450000Y-89232998D02*
X213115000Y-92897998D01*
X209450000Y-87250000D02*
X209450000Y-89232998D01*
%TO.N,Net-(Rdin11-Pad1)*%
X234115000Y-91540000D02*
X234115000Y-93950000D01*
X230450000Y-87875000D02*
X234115000Y-91540000D01*
X230450000Y-87250000D02*
X230450000Y-87875000D01*
%TO.N,Net-(Rdin12-Pad1)*%
X255115000Y-91790000D02*
X255115000Y-93950000D01*
X251450000Y-88125000D02*
X255115000Y-91790000D01*
X251450000Y-87500000D02*
X251450000Y-88125000D01*
%TO.N,Net-(Rdin13-Pad1)*%
X276115000Y-91540000D02*
X276115000Y-93950000D01*
X272450000Y-87875000D02*
X276115000Y-91540000D01*
X272450000Y-87250000D02*
X272450000Y-87875000D01*
%TO.N,Net-(Rdin14-Pad1)*%
X297115000Y-91540000D02*
X297115000Y-93950000D01*
X293200000Y-87625000D02*
X297115000Y-91540000D01*
X293200000Y-87000000D02*
X293200000Y-87625000D01*
%TO.N,Net-(Rdin15-Pad1)*%
X318115000Y-91790000D02*
X318115000Y-93950000D01*
X314200000Y-87875000D02*
X318115000Y-91790000D01*
X314200000Y-87250000D02*
X314200000Y-87875000D01*
%TO.N,Net-(Rdin16-Pad1)*%
X338865000Y-92647998D02*
X338865000Y-93950000D01*
X335200000Y-88982998D02*
X338865000Y-92647998D01*
X335200000Y-87250000D02*
X335200000Y-88982998D01*
%TO.N,Net-(Qgreeninv1-Pad1)*%
X23800000Y-80650000D02*
X23850000Y-80600000D01*
X23850000Y-77550000D02*
X23800000Y-77500000D01*
X23800000Y-80550000D02*
X23850000Y-80600000D01*
X23800000Y-77500000D02*
X23800000Y-80550000D01*
X23850000Y-83500000D02*
X23800000Y-83550000D01*
X23850000Y-80600000D02*
X23850000Y-83500000D01*
%TO.N,Net-(Rgreen1-Pad2)*%
X25836000Y-87122000D02*
X24652410Y-87122000D01*
X26073000Y-87359000D02*
X25836000Y-87122000D01*
X26073000Y-88384000D02*
X26073000Y-87359000D01*
X23800000Y-86269590D02*
X23800000Y-85450000D01*
X24652410Y-87122000D02*
X23800000Y-86269590D01*
%TO.N,Net-(Qgreeninv2-Pad1)*%
X45050000Y-80550000D02*
X45250000Y-80750000D01*
X45050000Y-77500000D02*
X45050000Y-80550000D01*
X45250000Y-83550000D02*
X45200000Y-83600000D01*
X45250000Y-80750000D02*
X45250000Y-83550000D01*
%TO.N,Net-(Rgreen2-Pad2)*%
X46685000Y-86985000D02*
X46685000Y-88350000D01*
X45200000Y-85500000D02*
X46685000Y-86985000D01*
%TO.N,Net-(Qgreeninv3-Pad1)*%
X66050000Y-80500000D02*
X66300000Y-80750000D01*
X66050000Y-77500000D02*
X66050000Y-80500000D01*
X66300000Y-83250000D02*
X66000000Y-83550000D01*
X66300000Y-80750000D02*
X66300000Y-83250000D01*
%TO.N,Net-(Rgreen3-Pad2)*%
X67385000Y-86835000D02*
X67385000Y-88300000D01*
X66000000Y-85450000D02*
X67385000Y-86835000D01*
%TO.N,Net-(Qgreeninv4-Pad1)*%
X87050000Y-77500000D02*
X87050000Y-80750000D01*
X87050000Y-83500000D02*
X87000000Y-83550000D01*
X87050000Y-80750000D02*
X87050000Y-83500000D01*
%TO.N,Net-(Rgreen4-Pad2)*%
X88385000Y-86835000D02*
X88385000Y-88300000D01*
X87000000Y-85450000D02*
X88385000Y-86835000D01*
%TO.N,Net-(Qgreeninv5-Pad1)*%
X108050000Y-77500000D02*
X108050000Y-80750000D01*
X108050000Y-83500000D02*
X108000000Y-83550000D01*
X108050000Y-80750000D02*
X108050000Y-83500000D01*
%TO.N,Net-(Rgreen5-Pad2)*%
X109385000Y-86835000D02*
X109385000Y-88300000D01*
X108000000Y-85450000D02*
X109385000Y-86835000D01*
%TO.N,Net-(Qgreeninv6-Pad1)*%
X129050000Y-77500000D02*
X129050000Y-80750000D01*
X129050000Y-83500000D02*
X129000000Y-83550000D01*
X129050000Y-80750000D02*
X129050000Y-83500000D01*
%TO.N,Net-(Rgreen6-Pad2)*%
X130385000Y-87685000D02*
X130385000Y-88550000D01*
X129000000Y-86300000D02*
X130385000Y-87685000D01*
X129000000Y-85450000D02*
X129000000Y-86300000D01*
%TO.N,Net-(Qgreeninv7-Pad1)*%
X150050000Y-77500000D02*
X150050000Y-80750000D01*
X150050000Y-83500000D02*
X150000000Y-83550000D01*
X150050000Y-80750000D02*
X150050000Y-83500000D01*
%TO.N,Net-(Rgreen7-Pad2)*%
X151385000Y-86835000D02*
X151385000Y-88550000D01*
X150000000Y-85450000D02*
X151385000Y-86835000D01*
%TO.N,Net-(Qgreeninv8-Pad1)*%
X171050000Y-77500000D02*
X171050000Y-80750000D01*
X171050000Y-83500000D02*
X171000000Y-83550000D01*
X171050000Y-80750000D02*
X171050000Y-83500000D01*
%TO.N,Net-(Rgreen8-Pad2)*%
X172385000Y-86835000D02*
X172385000Y-88550000D01*
X171000000Y-85450000D02*
X172385000Y-86835000D01*
%TO.N,Net-(Qgreeninv9-Pad1)*%
X192050000Y-77500000D02*
X192050000Y-80750000D01*
X192050000Y-83500000D02*
X192000000Y-83550000D01*
X192050000Y-80750000D02*
X192050000Y-83500000D01*
%TO.N,Net-(Rgreen9-Pad2)*%
X193385000Y-86835000D02*
X193385000Y-88550000D01*
X192000000Y-85450000D02*
X193385000Y-86835000D01*
%TO.N,Net-(Qgreeninv10-Pad1)*%
X213050000Y-77500000D02*
X213050000Y-80750000D01*
X213050000Y-83450000D02*
X213000000Y-83500000D01*
X213050000Y-80750000D02*
X213050000Y-83450000D01*
%TO.N,Net-(Rgreen10-Pad2)*%
X214385000Y-86785000D02*
X214385000Y-88550000D01*
X213000000Y-85400000D02*
X214385000Y-86785000D01*
%TO.N,Net-(Qgreeninv11-Pad1)*%
X234050000Y-77500000D02*
X234050000Y-80750000D01*
X234050000Y-83500000D02*
X234000000Y-83550000D01*
X234050000Y-80750000D02*
X234050000Y-83500000D01*
%TO.N,Net-(Rgreen11-Pad2)*%
X235385000Y-86835000D02*
X235385000Y-88550000D01*
X234000000Y-85450000D02*
X235385000Y-86835000D01*
%TO.N,Net-(Qgreeninv12-Pad1)*%
X255050000Y-77500000D02*
X255050000Y-80750000D01*
X255050000Y-83500000D02*
X255000000Y-83550000D01*
X255050000Y-80750000D02*
X255050000Y-83500000D01*
%TO.N,Net-(Rgreen12-Pad2)*%
X256385000Y-86835000D02*
X256385000Y-88550000D01*
X255000000Y-85450000D02*
X256385000Y-86835000D01*
%TO.N,Net-(Qgreeninv13-Pad1)*%
X276050000Y-77500000D02*
X276050000Y-80750000D01*
X276050000Y-83500000D02*
X276000000Y-83550000D01*
X276050000Y-80750000D02*
X276050000Y-83500000D01*
%TO.N,Net-(Rgreen13-Pad2)*%
X277385000Y-86835000D02*
X277385000Y-88550000D01*
X276000000Y-85450000D02*
X277385000Y-86835000D01*
%TO.N,Net-(Qgreeninv14-Pad1)*%
X297050000Y-77500000D02*
X297050000Y-80750000D01*
X297050000Y-83500000D02*
X297000000Y-83550000D01*
X297050000Y-80750000D02*
X297050000Y-83500000D01*
%TO.N,Net-(Rgreen14-Pad2)*%
X298385000Y-86835000D02*
X298385000Y-88550000D01*
X297000000Y-85450000D02*
X298385000Y-86835000D01*
%TO.N,Net-(Qgreeninv15-Pad1)*%
X318050000Y-77500000D02*
X318050000Y-80750000D01*
X318050000Y-83500000D02*
X318000000Y-83550000D01*
X318050000Y-80750000D02*
X318050000Y-83500000D01*
%TO.N,Net-(Rgreen15-Pad2)*%
X319385000Y-86835000D02*
X319385000Y-88550000D01*
X318000000Y-85450000D02*
X319385000Y-86835000D01*
%TO.N,Net-(Qgreeninv16-Pad1)*%
X339050000Y-77500000D02*
X339050000Y-80750000D01*
X339050000Y-83500000D02*
X339000000Y-83550000D01*
X339050000Y-80750000D02*
X339050000Y-83500000D01*
%TO.N,Net-(Rgreen16-Pad2)*%
X340135000Y-86585000D02*
X340135000Y-88550000D01*
X339000000Y-85450000D02*
X340135000Y-86585000D01*
%TO.N,Net-(Qgreeninv1-Pad3)*%
X24000000Y-67700000D02*
X24000000Y-71150000D01*
X24000000Y-73750000D02*
X24750000Y-74500000D01*
X24000000Y-71150000D02*
X24000000Y-73750000D01*
%TO.N,Net-(Qgreeninv2-Pad3)*%
X45050000Y-67700000D02*
X45050000Y-71200000D01*
X45050000Y-73550000D02*
X46000000Y-74500000D01*
X45050000Y-71200000D02*
X45050000Y-73550000D01*
%TO.N,Net-(Qgreeninv3-Pad3)*%
X66050000Y-71000000D02*
X66300000Y-71250000D01*
X66050000Y-67750000D02*
X66050000Y-71000000D01*
X66300000Y-73800000D02*
X67000000Y-74500000D01*
X66300000Y-71250000D02*
X66300000Y-73800000D01*
%TO.N,Net-(Qgreeninv4-Pad3)*%
X87050000Y-67750000D02*
X87050000Y-71250000D01*
X87050000Y-73550000D02*
X88000000Y-74500000D01*
X87050000Y-71250000D02*
X87050000Y-73550000D01*
%TO.N,Net-(Qgreeninv5-Pad3)*%
X108050000Y-67750000D02*
X108050000Y-71250000D01*
X108050000Y-73550000D02*
X109000000Y-74500000D01*
X108050000Y-71250000D02*
X108050000Y-73550000D01*
%TO.N,Net-(Qgreeninv6-Pad3)*%
X129050000Y-67750000D02*
X129050000Y-71250000D01*
X129050000Y-73550000D02*
X130000000Y-74500000D01*
X129050000Y-71250000D02*
X129050000Y-73550000D01*
%TO.N,Net-(Qgreeninv7-Pad3)*%
X150050000Y-67750000D02*
X150050000Y-71250000D01*
X150050000Y-73550000D02*
X151000000Y-74500000D01*
X150050000Y-71250000D02*
X150050000Y-73550000D01*
%TO.N,Net-(Qgreeninv8-Pad3)*%
X171050000Y-67750000D02*
X171050000Y-71250000D01*
X171050000Y-73550000D02*
X172000000Y-74500000D01*
X171050000Y-71250000D02*
X171050000Y-73550000D01*
%TO.N,Net-(Qgreeninv9-Pad3)*%
X192050000Y-67750000D02*
X192050000Y-71250000D01*
X192050000Y-73550000D02*
X193000000Y-74500000D01*
X192050000Y-71250000D02*
X192050000Y-73550000D01*
%TO.N,Net-(Qgreeninv10-Pad3)*%
X213050000Y-67750000D02*
X213050000Y-71250000D01*
X213050000Y-73550000D02*
X214000000Y-74500000D01*
X213050000Y-71250000D02*
X213050000Y-73550000D01*
%TO.N,Net-(Qgreeninv11-Pad3)*%
X234050000Y-67750000D02*
X234050000Y-71250000D01*
X234050000Y-73550000D02*
X235000000Y-74500000D01*
X234050000Y-71250000D02*
X234050000Y-73550000D01*
%TO.N,Net-(Qgreeninv12-Pad3)*%
X255050000Y-67750000D02*
X255050000Y-71250000D01*
X255050000Y-73550000D02*
X256000000Y-74500000D01*
X255050000Y-71250000D02*
X255050000Y-73550000D01*
%TO.N,Net-(Qgreeninv13-Pad3)*%
X276050000Y-67750000D02*
X276050000Y-71250000D01*
X276050000Y-73550000D02*
X277000000Y-74500000D01*
X276050000Y-71250000D02*
X276050000Y-73550000D01*
%TO.N,Net-(Qgreeninv14-Pad3)*%
X297050000Y-67750000D02*
X297050000Y-71250000D01*
X297050000Y-73550000D02*
X298000000Y-74500000D01*
X297050000Y-71250000D02*
X297050000Y-73550000D01*
%TO.N,Net-(Qgreeninv15-Pad3)*%
X318050000Y-67750000D02*
X318050000Y-71250000D01*
X318050000Y-73550000D02*
X319000000Y-74500000D01*
X318050000Y-71250000D02*
X318050000Y-73550000D01*
%TO.N,Net-(Qgreeninv16-Pad3)*%
X339050000Y-67750000D02*
X339050000Y-71250000D01*
X339050000Y-73550000D02*
X340000000Y-74500000D01*
X339050000Y-71250000D02*
X339050000Y-73550000D01*
%TO.N,Net-(Qredinv1-Pad1)*%
X28750000Y-80650000D02*
X28800000Y-80600000D01*
X28800000Y-77500000D02*
X28800000Y-80600000D01*
X28800000Y-83600000D02*
X28750000Y-83650000D01*
X28800000Y-80600000D02*
X28800000Y-83600000D01*
%TO.N,Net-(Rred1-Pad2)*%
X27343000Y-88384000D02*
X27343000Y-87973000D01*
X28750000Y-86566000D02*
X28750000Y-85550000D01*
X27343000Y-87973000D02*
X28750000Y-86566000D01*
%TO.N,Net-(Qredinv2-Pad1)*%
X50250000Y-77500000D02*
X50250000Y-80750000D01*
X50250000Y-83550000D02*
X50200000Y-83600000D01*
X50250000Y-80750000D02*
X50250000Y-83550000D01*
%TO.N,Net-(Rred2-Pad2)*%
X48200000Y-88350000D02*
X47955000Y-88350000D01*
X50200000Y-86350000D02*
X48200000Y-88350000D01*
X50200000Y-85500000D02*
X50200000Y-86350000D01*
%TO.N,Net-(Qredinv3-Pad1)*%
X71550000Y-80500000D02*
X71800000Y-80750000D01*
X71550000Y-77500000D02*
X71550000Y-80500000D01*
X71800000Y-83500000D02*
X71750000Y-83550000D01*
X71800000Y-80750000D02*
X71800000Y-83500000D01*
%TO.N,Net-(Rred3-Pad2)*%
X68900000Y-88300000D02*
X71750000Y-85450000D01*
X68655000Y-88300000D02*
X68900000Y-88300000D01*
%TO.N,Net-(Qredinv4-Pad1)*%
X92550000Y-77500000D02*
X92550000Y-80750000D01*
X92550000Y-83500000D02*
X92500000Y-83550000D01*
X92550000Y-80750000D02*
X92550000Y-83500000D01*
%TO.N,Net-(Rred4-Pad2)*%
X89655000Y-88295000D02*
X92500000Y-85450000D01*
X89655000Y-88300000D02*
X89655000Y-88295000D01*
%TO.N,Net-(Qredinv5-Pad1)*%
X113300000Y-77500000D02*
X113300000Y-80750000D01*
X113300000Y-83500000D02*
X113250000Y-83550000D01*
X113300000Y-80750000D02*
X113300000Y-83500000D01*
%TO.N,Net-(Rred5-Pad2)*%
X110655000Y-88045000D02*
X113250000Y-85450000D01*
X110655000Y-88300000D02*
X110655000Y-88045000D01*
%TO.N,Net-(Qredinv6-Pad1)*%
X134300000Y-77500000D02*
X134300000Y-80750000D01*
X134300000Y-83500000D02*
X134250000Y-83550000D01*
X134300000Y-80750000D02*
X134300000Y-83500000D01*
%TO.N,Net-(Rred6-Pad2)*%
X131655000Y-88045000D02*
X134250000Y-85450000D01*
X131655000Y-88550000D02*
X131655000Y-88045000D01*
%TO.N,Net-(Qredinv7-Pad1)*%
X155280000Y-80730000D02*
X155300000Y-80750000D01*
X155280000Y-77500000D02*
X155280000Y-80730000D01*
X155300000Y-83500000D02*
X155250000Y-83550000D01*
X155300000Y-80750000D02*
X155300000Y-83500000D01*
%TO.N,Net-(Rred7-Pad2)*%
X152655000Y-88045000D02*
X155250000Y-85450000D01*
X152655000Y-88550000D02*
X152655000Y-88045000D01*
%TO.N,Net-(Qredinv8-Pad1)*%
X176300000Y-77500000D02*
X176300000Y-80750000D01*
X176300000Y-83500000D02*
X176250000Y-83550000D01*
X176300000Y-80750000D02*
X176300000Y-83500000D01*
%TO.N,Net-(Rred8-Pad2)*%
X176250000Y-85955000D02*
X173655000Y-88550000D01*
X176250000Y-85450000D02*
X176250000Y-85955000D01*
%TO.N,Net-(Qredinv9-Pad1)*%
X197300000Y-77500000D02*
X197300000Y-80750000D01*
X197300000Y-83500000D02*
X197250000Y-83550000D01*
X197300000Y-80750000D02*
X197300000Y-83500000D01*
%TO.N,Net-(Rred9-Pad2)*%
X197250000Y-85955000D02*
X194655000Y-88550000D01*
X197250000Y-85450000D02*
X197250000Y-85955000D01*
%TO.N,Net-(Qredinv10-Pad1)*%
X218300000Y-77500000D02*
X218300000Y-80750000D01*
X218300000Y-83500000D02*
X218250000Y-83550000D01*
X218300000Y-80750000D02*
X218300000Y-83500000D01*
%TO.N,Net-(Rred10-Pad2)*%
X218250000Y-85955000D02*
X215655000Y-88550000D01*
X218250000Y-85450000D02*
X218250000Y-85955000D01*
%TO.N,Net-(Qredinv11-Pad1)*%
X239300000Y-77500000D02*
X239300000Y-80750000D01*
X239300000Y-83500000D02*
X239250000Y-83550000D01*
X239300000Y-80750000D02*
X239300000Y-83500000D01*
%TO.N,Net-(Rred11-Pad2)*%
X239250000Y-85955000D02*
X236655000Y-88550000D01*
X239250000Y-85450000D02*
X239250000Y-85955000D01*
%TO.N,Net-(Qredinv12-Pad1)*%
X260300000Y-77500000D02*
X260300000Y-80750000D01*
X260300000Y-83500000D02*
X260250000Y-83550000D01*
X260300000Y-80750000D02*
X260300000Y-83500000D01*
%TO.N,Net-(Rred12-Pad2)*%
X260250000Y-85955000D02*
X257655000Y-88550000D01*
X260250000Y-85450000D02*
X260250000Y-85955000D01*
%TO.N,Net-(Qredinv13-Pad1)*%
X281300000Y-77500000D02*
X281300000Y-80750000D01*
X281300000Y-83500000D02*
X281250000Y-83550000D01*
X281300000Y-80750000D02*
X281300000Y-83500000D01*
%TO.N,Net-(Rred13-Pad2)*%
X281250000Y-85955000D02*
X278655000Y-88550000D01*
X281250000Y-85450000D02*
X281250000Y-85955000D01*
%TO.N,Net-(Qredinv14-Pad1)*%
X302300000Y-77500000D02*
X302300000Y-80750000D01*
X302300000Y-83500000D02*
X302250000Y-83550000D01*
X302300000Y-80750000D02*
X302300000Y-83500000D01*
%TO.N,Net-(Rred14-Pad2)*%
X299655000Y-88045000D02*
X302250000Y-85450000D01*
X299655000Y-88550000D02*
X299655000Y-88045000D01*
%TO.N,Net-(Qredinv15-Pad1)*%
X323300000Y-77500000D02*
X323300000Y-80750000D01*
X323300000Y-83500000D02*
X323250000Y-83550000D01*
X323300000Y-80750000D02*
X323300000Y-83500000D01*
%TO.N,Net-(Rred15-Pad2)*%
X323250000Y-85955000D02*
X320655000Y-88550000D01*
X323250000Y-85450000D02*
X323250000Y-85955000D01*
%TO.N,Net-(Qredinv16-Pad1)*%
X344300000Y-77500000D02*
X344300000Y-80750000D01*
X344300000Y-83500000D02*
X344250000Y-83550000D01*
X344300000Y-80750000D02*
X344300000Y-83500000D01*
%TO.N,Net-(Rred16-Pad2)*%
X341405000Y-88295000D02*
X344250000Y-85450000D01*
X341405000Y-88550000D02*
X341405000Y-88295000D01*
%TO.N,Net-(Qredinv1-Pad3)*%
X29000000Y-73750000D02*
X29750000Y-74500000D01*
X29000000Y-71200000D02*
X29000000Y-73750000D01*
X29000000Y-71200000D02*
X29000000Y-68000000D01*
%TO.N,Net-(Qredinv2-Pad3)*%
X50050000Y-71000000D02*
X50250000Y-71200000D01*
X50050000Y-67700000D02*
X50050000Y-71000000D01*
X50250000Y-73550000D02*
X51200000Y-74500000D01*
X50250000Y-71200000D02*
X50250000Y-73550000D01*
%TO.N,Net-(Qredinv3-Pad3)*%
X71300000Y-71000000D02*
X71550000Y-71250000D01*
X71300000Y-67750000D02*
X71300000Y-71000000D01*
X71550000Y-73550000D02*
X72500000Y-74500000D01*
X71550000Y-71250000D02*
X71550000Y-73550000D01*
%TO.N,Net-(Qredinv4-Pad3)*%
X92300000Y-71000000D02*
X92550000Y-71250000D01*
X92300000Y-67750000D02*
X92300000Y-71000000D01*
X92550000Y-73550000D02*
X93500000Y-74500000D01*
X92550000Y-71250000D02*
X92550000Y-73550000D01*
%TO.N,Net-(Qredinv5-Pad3)*%
X113300000Y-67750000D02*
X113300000Y-71250000D01*
X113300000Y-73550000D02*
X114250000Y-74500000D01*
X113300000Y-71250000D02*
X113300000Y-73550000D01*
%TO.N,Net-(Qredinv6-Pad3)*%
X134300000Y-67830000D02*
X134300000Y-71250000D01*
X134300000Y-73550000D02*
X135250000Y-74500000D01*
X134300000Y-71250000D02*
X134300000Y-73550000D01*
%TO.N,Net-(Qredinv7-Pad3)*%
X155280000Y-71230000D02*
X155300000Y-71250000D01*
X155280000Y-67800000D02*
X155280000Y-71230000D01*
X155300000Y-73570000D02*
X156230000Y-74500000D01*
X155300000Y-71250000D02*
X155300000Y-73570000D01*
%TO.N,Net-(Qredinv8-Pad3)*%
X176300000Y-67750000D02*
X176300000Y-71250000D01*
X176300000Y-73550000D02*
X177250000Y-74500000D01*
X176300000Y-71250000D02*
X176300000Y-73550000D01*
%TO.N,Net-(Qredinv9-Pad3)*%
X197210000Y-71160000D02*
X197300000Y-71250000D01*
X197210000Y-67750000D02*
X197210000Y-71160000D01*
X197300000Y-73550000D02*
X198250000Y-74500000D01*
X197300000Y-71250000D02*
X197300000Y-73550000D01*
%TO.N,Net-(Qredinv10-Pad3)*%
X218300000Y-67750000D02*
X218300000Y-71250000D01*
X218300000Y-73550000D02*
X219250000Y-74500000D01*
X218300000Y-71250000D02*
X218300000Y-73550000D01*
%TO.N,Net-(Qredinv11-Pad3)*%
X239300000Y-67750000D02*
X239300000Y-71250000D01*
X239300000Y-73550000D02*
X240250000Y-74500000D01*
X239300000Y-71250000D02*
X239300000Y-73550000D01*
%TO.N,Net-(Qredinv12-Pad3)*%
X260300000Y-67750000D02*
X260300000Y-71250000D01*
X260300000Y-73550000D02*
X261250000Y-74500000D01*
X260300000Y-71250000D02*
X260300000Y-73550000D01*
%TO.N,Net-(Qredinv13-Pad3)*%
X281300000Y-67750000D02*
X281300000Y-71250000D01*
X281300000Y-73550000D02*
X282250000Y-74500000D01*
X281300000Y-71250000D02*
X281300000Y-73550000D01*
%TO.N,Net-(Qredinv14-Pad3)*%
X302300000Y-67750000D02*
X302300000Y-71250000D01*
X302300000Y-73550000D02*
X303250000Y-74500000D01*
X302300000Y-71250000D02*
X302300000Y-73550000D01*
%TO.N,Net-(Qredinv15-Pad3)*%
X323300000Y-67750000D02*
X323300000Y-71250000D01*
X323300000Y-73550000D02*
X324250000Y-74500000D01*
X323300000Y-71250000D02*
X323300000Y-73550000D01*
%TO.N,Net-(Qredinv16-Pad3)*%
X344300000Y-67750000D02*
X344300000Y-71250000D01*
X344300000Y-73550000D02*
X345250000Y-74500000D01*
X344300000Y-71250000D02*
X344300000Y-73550000D01*
D19*
%TO.N,/AddressableLedDriver01/GndIn*%
X25900000Y-65200000D02*
X26300000Y-64800000D01*
X25900000Y-67700000D02*
X25900000Y-65200000D01*
X20950000Y-65150000D02*
X21300000Y-64800000D01*
X20950000Y-67700000D02*
X20950000Y-65150000D01*
D18*
X20750000Y-78950000D02*
X20600000Y-79100000D01*
X20750000Y-77500000D02*
X20750000Y-78950000D01*
X25700000Y-78600000D02*
X25200000Y-79100000D01*
X25700000Y-77500000D02*
X25700000Y-78600000D01*
X30200000Y-77500000D02*
X29800000Y-77900000D01*
X30700000Y-77500000D02*
X30200000Y-77500000D01*
X30000000Y-91300000D02*
X31500000Y-89800000D01*
X30000000Y-91850000D02*
X30000000Y-91300000D01*
X23245000Y-88384000D02*
X22200000Y-87339000D01*
X23533000Y-88384000D02*
X23245000Y-88384000D01*
D19*
X41950000Y-65050000D02*
X42060000Y-64940000D01*
X41950000Y-67700000D02*
X41950000Y-65050000D01*
X46950000Y-64990002D02*
X47000002Y-64940000D01*
X46950000Y-67700000D02*
X46950000Y-64990002D01*
X51950000Y-65180000D02*
X52190000Y-64940000D01*
X51950000Y-67700000D02*
X51950000Y-65180000D01*
X62700000Y-65050000D02*
X63000000Y-64750000D01*
X62700000Y-67750000D02*
X62700000Y-65050000D01*
X67950000Y-64800000D02*
X68000000Y-64750000D01*
X67950000Y-67750000D02*
X67950000Y-64800000D01*
X73200000Y-64800000D02*
X73250000Y-64750000D01*
X73200000Y-67750000D02*
X73200000Y-64800000D01*
X83700000Y-65050000D02*
X84000000Y-64750000D01*
X83700000Y-67750000D02*
X83700000Y-65050000D01*
X88950000Y-65050000D02*
X89250000Y-64750000D01*
X88950000Y-67750000D02*
X88950000Y-65050000D01*
X94200000Y-64800000D02*
X94250000Y-64750000D01*
X94200000Y-67750000D02*
X94200000Y-64800000D01*
X104950000Y-64880000D02*
X105040000Y-64790000D01*
X104950000Y-67750000D02*
X104950000Y-64880000D01*
X109950000Y-67750000D02*
X109950000Y-64880000D01*
X109950000Y-64880000D02*
X110040000Y-64790000D01*
X115200000Y-64840002D02*
X115250002Y-64790000D01*
X115200000Y-67750000D02*
X115200000Y-64840002D01*
X125950000Y-65050000D02*
X126250000Y-64750000D01*
X125950000Y-67750000D02*
X125950000Y-65050000D01*
X130950000Y-64800000D02*
X131000000Y-64750000D01*
X130950000Y-67750000D02*
X130950000Y-64800000D01*
X136200000Y-64800000D02*
X136250000Y-64750000D01*
X136200000Y-67830000D02*
X136200000Y-64800000D01*
X146700000Y-65300000D02*
X147000000Y-65000000D01*
X146700000Y-67750000D02*
X146700000Y-65300000D01*
X151950000Y-65050000D02*
X152000000Y-65000000D01*
X151950000Y-67750000D02*
X151950000Y-65050000D01*
X157180000Y-65070000D02*
X157250000Y-65000000D01*
X157180000Y-67800000D02*
X157180000Y-65070000D01*
X167700000Y-65050000D02*
X167750000Y-65000000D01*
X167700000Y-67750000D02*
X167700000Y-65050000D01*
X172950000Y-65050000D02*
X173000000Y-65000000D01*
X172950000Y-67750000D02*
X172950000Y-65050000D01*
X188700000Y-65050000D02*
X189000000Y-64750000D01*
X188700000Y-67750000D02*
X188700000Y-65050000D01*
X193950000Y-64800000D02*
X194000000Y-64750000D01*
X193950000Y-67750000D02*
X193950000Y-64800000D01*
X199110000Y-67750000D02*
X199110000Y-64890000D01*
X199110000Y-64890000D02*
X199250000Y-64750000D01*
X209700000Y-64800000D02*
X209750000Y-64750000D01*
X209700000Y-67750000D02*
X209700000Y-64800000D01*
X214950000Y-64800000D02*
X215000000Y-64750000D01*
X214950000Y-67750000D02*
X214950000Y-64800000D01*
X220200000Y-64800000D02*
X220250000Y-64750000D01*
X220200000Y-67750000D02*
X220200000Y-64800000D01*
X230700000Y-64800000D02*
X230750000Y-64750000D01*
X230700000Y-67750000D02*
X230700000Y-64800000D01*
X235950000Y-64800000D02*
X236000000Y-64750000D01*
X235950000Y-67750000D02*
X235950000Y-64800000D01*
X241200000Y-64800000D02*
X241250000Y-64750000D01*
X241200000Y-67750000D02*
X241200000Y-64800000D01*
X251700000Y-64800000D02*
X251750000Y-64750000D01*
X251700000Y-67750000D02*
X251700000Y-64800000D01*
X256950000Y-64800000D02*
X257000000Y-64750000D01*
X256950000Y-67750000D02*
X256950000Y-64800000D01*
X262200000Y-64800000D02*
X262250000Y-64750000D01*
X262200000Y-67750000D02*
X262200000Y-64800000D01*
X272700000Y-64800000D02*
X272750000Y-64750000D01*
X272700000Y-67750000D02*
X272700000Y-64800000D01*
X277950000Y-64800000D02*
X278000000Y-64750000D01*
X277950000Y-67750000D02*
X277950000Y-64800000D01*
X283200000Y-64800000D02*
X283250000Y-64750000D01*
X283200000Y-67750000D02*
X283200000Y-64800000D01*
X293700000Y-67750000D02*
X293700000Y-64800000D01*
X293700000Y-64800000D02*
X293750000Y-64750000D01*
X298950000Y-64800000D02*
X299000000Y-64750000D01*
X298950000Y-67750000D02*
X298950000Y-64800000D01*
X304200000Y-64800000D02*
X304250000Y-64750000D01*
X304200000Y-67750000D02*
X304200000Y-64800000D01*
X314700000Y-64800000D02*
X314750000Y-64750000D01*
X314700000Y-67750000D02*
X314700000Y-64800000D01*
X319950000Y-67750000D02*
X319950000Y-64800000D01*
X319950000Y-64800000D02*
X320000000Y-64750000D01*
X325200000Y-64800000D02*
X325250000Y-64750000D01*
X325200000Y-67750000D02*
X325200000Y-64800000D01*
X335700000Y-65050000D02*
X336000000Y-64750000D01*
X335700000Y-67750000D02*
X335700000Y-65050000D01*
X340950000Y-67750000D02*
X340950000Y-64800000D01*
X340950000Y-64800000D02*
X341000000Y-64750000D01*
X346200000Y-67750000D02*
X346200000Y-64800000D01*
X346200000Y-64800000D02*
X346250000Y-64750000D01*
D18*
X44145000Y-88145000D02*
X43000000Y-87000000D01*
X44145000Y-88350000D02*
X44145000Y-88145000D01*
X42150000Y-78600000D02*
X41750000Y-79000000D01*
X42150000Y-77500000D02*
X42150000Y-78600000D01*
X47000000Y-77550000D02*
X46950000Y-77500000D01*
X47000000Y-79000000D02*
X47000000Y-77550000D01*
X52150000Y-78400000D02*
X52750000Y-79000000D01*
X52150000Y-77500000D02*
X52150000Y-78400000D01*
X62950000Y-78550000D02*
X62500000Y-79000000D01*
X62950000Y-77500000D02*
X62950000Y-78550000D01*
X67950000Y-78550000D02*
X67500000Y-79000000D01*
X67950000Y-77500000D02*
X67950000Y-78550000D01*
X73450000Y-78700000D02*
X73750000Y-79000000D01*
X73450000Y-77500000D02*
X73450000Y-78700000D01*
X83700000Y-78550000D02*
X83250000Y-79000000D01*
X83700000Y-77500000D02*
X83700000Y-78550000D01*
X88500000Y-77950000D02*
X88950000Y-77500000D01*
X88500000Y-79000000D02*
X88500000Y-77950000D01*
X104950000Y-78300000D02*
X104250000Y-79000000D01*
X104950000Y-77500000D02*
X104950000Y-78300000D01*
X109500000Y-77950000D02*
X109950000Y-77500000D01*
X109500000Y-79000000D02*
X109500000Y-77950000D01*
X115200000Y-78450000D02*
X115750000Y-79000000D01*
X115200000Y-77500000D02*
X115200000Y-78450000D01*
X125950000Y-78550000D02*
X125500000Y-79000000D01*
X125950000Y-77500000D02*
X125950000Y-78550000D01*
X130500000Y-77950000D02*
X130950000Y-77500000D01*
X130500000Y-79000000D02*
X130500000Y-77950000D01*
X136200000Y-78450000D02*
X136750000Y-79000000D01*
X136200000Y-77500000D02*
X136200000Y-78450000D01*
X146700000Y-78800000D02*
X146250000Y-79250000D01*
X146700000Y-77500000D02*
X146700000Y-78800000D01*
X151500000Y-77950000D02*
X151950000Y-77500000D01*
X151500000Y-79250000D02*
X151500000Y-77950000D01*
X157180000Y-78680000D02*
X157750000Y-79250000D01*
X157180000Y-77500000D02*
X157180000Y-78680000D01*
X167700000Y-78800000D02*
X167250000Y-79250000D01*
X167700000Y-77500000D02*
X167700000Y-78800000D01*
X172500000Y-77950000D02*
X172950000Y-77500000D01*
X172500000Y-79250000D02*
X172500000Y-77950000D01*
X178200000Y-78950000D02*
X178500000Y-79250000D01*
X178200000Y-77500000D02*
X178200000Y-78950000D01*
X188700000Y-79050000D02*
X188500000Y-79250000D01*
X188700000Y-77500000D02*
X188700000Y-79050000D01*
X193500000Y-77950000D02*
X193950000Y-77500000D01*
X193500000Y-79250000D02*
X193500000Y-77950000D01*
X199200000Y-78950000D02*
X199500000Y-79250000D01*
X199200000Y-77500000D02*
X199200000Y-78950000D01*
X209700000Y-79050000D02*
X209500000Y-79250000D01*
X209700000Y-77500000D02*
X209700000Y-79050000D01*
X214500000Y-77950000D02*
X214950000Y-77500000D01*
X214500000Y-79250000D02*
X214500000Y-77950000D01*
X230700000Y-78800000D02*
X230250000Y-79250000D01*
X230700000Y-77500000D02*
X230700000Y-78800000D01*
X235500000Y-77950000D02*
X235950000Y-77500000D01*
X235500000Y-79250000D02*
X235500000Y-77950000D01*
X241200000Y-78700000D02*
X241750000Y-79250000D01*
X241200000Y-77500000D02*
X241200000Y-78700000D01*
X251700000Y-78800000D02*
X251250000Y-79250000D01*
X251700000Y-77500000D02*
X251700000Y-78800000D01*
X256500000Y-77950000D02*
X256950000Y-77500000D01*
X256500000Y-79250000D02*
X256500000Y-77950000D01*
X272700000Y-79050000D02*
X272500000Y-79250000D01*
X272700000Y-77500000D02*
X272700000Y-79050000D01*
X277500000Y-77950000D02*
X277950000Y-77500000D01*
X277500000Y-79250000D02*
X277500000Y-77950000D01*
X293700000Y-79050000D02*
X293500000Y-79250000D01*
X293700000Y-77500000D02*
X293700000Y-79050000D01*
X298250000Y-78200000D02*
X298950000Y-77500000D01*
X298250000Y-79250000D02*
X298250000Y-78200000D01*
X304200000Y-78700000D02*
X304750000Y-79250000D01*
X304200000Y-77500000D02*
X304200000Y-78700000D01*
X314700000Y-78800000D02*
X314250000Y-79250000D01*
X314700000Y-77500000D02*
X314700000Y-78800000D01*
X319500000Y-77950000D02*
X319950000Y-77500000D01*
X319500000Y-79250000D02*
X319500000Y-77950000D01*
X325200000Y-78700000D02*
X325750000Y-79250000D01*
X325200000Y-77500000D02*
X325200000Y-78700000D01*
X335700000Y-79050000D02*
X335500000Y-79250000D01*
X335700000Y-77500000D02*
X335700000Y-79050000D01*
X340500000Y-77950000D02*
X340950000Y-77500000D01*
X340500000Y-79250000D02*
X340500000Y-77950000D01*
X346200000Y-78700000D02*
X346750000Y-79250000D01*
X346200000Y-77500000D02*
X346200000Y-78700000D01*
X94450000Y-78450000D02*
X94450000Y-77500000D01*
X94750000Y-79000000D02*
X94450000Y-78450000D01*
D19*
X178200000Y-65300000D02*
X178200000Y-67750000D01*
X178250000Y-65000000D02*
X178200000Y-65300000D01*
D18*
X220200000Y-78450000D02*
X220200000Y-77500000D01*
X220750000Y-79250000D02*
X220200000Y-78450000D01*
X283200000Y-78700000D02*
X283200000Y-77500000D01*
X283750000Y-79250000D02*
X283200000Y-78700000D01*
X262200000Y-78700000D02*
X262200000Y-77500000D01*
X262500000Y-79250000D02*
X262200000Y-78700000D01*
X64845000Y-88195001D02*
X63750000Y-87100001D01*
X64845000Y-88300000D02*
X64845000Y-88195001D01*
X72200000Y-92050000D02*
X72500000Y-91750000D01*
X71500000Y-92050000D02*
X72200000Y-92050000D01*
X85845000Y-88095000D02*
X84750000Y-87000000D01*
X85845000Y-88300000D02*
X85845000Y-88095000D01*
X92500000Y-90750000D02*
X91250000Y-89500000D01*
X92500000Y-92050000D02*
X92500000Y-90750000D01*
X113500000Y-91749999D02*
X112000000Y-90249999D01*
X113500000Y-92050000D02*
X113500000Y-91749999D01*
X127800000Y-88550000D02*
X126750000Y-87500000D01*
X127845000Y-88550000D02*
X127800000Y-88550000D01*
X134500000Y-91825304D02*
X135037652Y-91287652D01*
X134500000Y-92300000D02*
X134500000Y-91825304D01*
X148550000Y-88550000D02*
X147500000Y-87500000D01*
X148845000Y-88550000D02*
X148550000Y-88550000D01*
X155950000Y-92300000D02*
X156500000Y-91750000D01*
X155500000Y-92300000D02*
X155950000Y-92300000D01*
X169550000Y-88550000D02*
X168500000Y-87500000D01*
X169845000Y-88550000D02*
X169550000Y-88550000D01*
X176950000Y-92300000D02*
X177500000Y-91750000D01*
X176500000Y-92300000D02*
X176950000Y-92300000D01*
X190800000Y-88550000D02*
X189500000Y-87250000D01*
X190845000Y-88550000D02*
X190800000Y-88550000D01*
X197950000Y-92300000D02*
X198500000Y-91750000D01*
X197500000Y-92300000D02*
X197950000Y-92300000D01*
X211800000Y-88550000D02*
X210750000Y-87500000D01*
X211845000Y-88550000D02*
X211800000Y-88550000D01*
X219450000Y-92050000D02*
X219750000Y-91750000D01*
X218750000Y-92050000D02*
X219450000Y-92050000D01*
X232845000Y-88345000D02*
X231750000Y-87250000D01*
X232845000Y-88550000D02*
X232845000Y-88345000D01*
X239950000Y-92300000D02*
X240500000Y-91750000D01*
X239500000Y-92300000D02*
X239950000Y-92300000D01*
X253800000Y-88550000D02*
X252750000Y-87500000D01*
X253845000Y-88550000D02*
X253800000Y-88550000D01*
X261200000Y-92300000D02*
X261750000Y-91750000D01*
X260500000Y-92300000D02*
X261200000Y-92300000D01*
X274550000Y-88550000D02*
X273750000Y-87750000D01*
X274845000Y-88550000D02*
X274550000Y-88550000D01*
X281950000Y-92300000D02*
X282500000Y-91750000D01*
X281500000Y-92300000D02*
X281950000Y-92300000D01*
X295800000Y-88550000D02*
X294750000Y-87500000D01*
X295845000Y-88550000D02*
X295800000Y-88550000D01*
X302950000Y-92300000D02*
X303500000Y-91750000D01*
X302500000Y-92300000D02*
X302950000Y-92300000D01*
X316800000Y-88550000D02*
X315750000Y-87500000D01*
X316845000Y-88550000D02*
X316800000Y-88550000D01*
X323950000Y-92300000D02*
X324500000Y-91750000D01*
X323500000Y-92300000D02*
X323950000Y-92300000D01*
X337595000Y-88095000D02*
X336500000Y-87000000D01*
X337595000Y-88550000D02*
X337595000Y-88095000D01*
X344950000Y-92300000D02*
X345250000Y-92000000D01*
X344250000Y-92300000D02*
X344950000Y-92300000D01*
X51450000Y-92050000D02*
X51750000Y-91750000D01*
X50750000Y-92050000D02*
X51450000Y-92050000D01*
D19*
X30900000Y-64574990D02*
X31224990Y-64250000D01*
X30900000Y-68000000D02*
X30900000Y-64574990D01*
D18*
X106300000Y-88300000D02*
X106845000Y-88300000D01*
X105750000Y-87500000D02*
X106300000Y-88300000D01*
%TO.N,/AddressableLedDriver03/DIN*%
X53475001Y-88774999D02*
X51750000Y-90500000D01*
X48274998Y-90500000D02*
X51750000Y-90500000D01*
X46059999Y-92714999D02*
X48274998Y-90500000D01*
X45975001Y-94850001D02*
X46059999Y-94765003D01*
X46059999Y-94765003D02*
X46059999Y-92714999D01*
X44220001Y-94850001D02*
X45975001Y-94850001D01*
X44145000Y-94775000D02*
X44220001Y-94850001D01*
X44145000Y-93750000D02*
X44145000Y-94775000D01*
X60074999Y-64034999D02*
X58250000Y-62210000D01*
X60074999Y-86774999D02*
X60074999Y-64034999D01*
X60550000Y-87250000D02*
X60074999Y-86774999D01*
X53397919Y-62260000D02*
X54600000Y-62260000D01*
X52974989Y-62682930D02*
X53397919Y-62260000D01*
X52974989Y-66611399D02*
X52974989Y-62682930D01*
X53475001Y-67111411D02*
X52974989Y-66611399D01*
X53475001Y-88774999D02*
X53475001Y-67111411D01*
%TO.N,/AddressableLedDriver04/DIN*%
X74625001Y-68625001D02*
X74625001Y-88124999D01*
X74124989Y-68124989D02*
X74625001Y-68625001D01*
X74124989Y-62632930D02*
X74124989Y-68124989D01*
X74547919Y-62210000D02*
X74124989Y-62632930D01*
X75750000Y-62210000D02*
X74547919Y-62210000D01*
X74625001Y-88124999D02*
X71750000Y-91000000D01*
X68424998Y-91000000D02*
X71750000Y-91000000D01*
X66759999Y-92664999D02*
X68424998Y-91000000D01*
X66759999Y-94715003D02*
X66759999Y-92664999D01*
X66675001Y-94800001D02*
X66759999Y-94715003D01*
X64920001Y-94800001D02*
X66675001Y-94800001D01*
X64845000Y-94725000D02*
X64920001Y-94800001D01*
X64845000Y-93700000D02*
X64845000Y-94725000D01*
X80874999Y-63834999D02*
X79250000Y-62210000D01*
X80874999Y-86574999D02*
X80874999Y-63834999D01*
X81550000Y-87250000D02*
X80874999Y-86574999D01*
%TO.N,/AddressableLedDriver05/DIN*%
X95124989Y-67624989D02*
X95500000Y-68000000D01*
X95124989Y-62632930D02*
X95124989Y-67624989D01*
X95547919Y-62210000D02*
X95124989Y-62632930D01*
X96750000Y-62210000D02*
X95547919Y-62210000D01*
X95500000Y-68000000D02*
X95500000Y-84115002D01*
X87759999Y-94715003D02*
X87759999Y-91740001D01*
X87675001Y-94800001D02*
X87759999Y-94715003D01*
X85920001Y-94800001D02*
X87675001Y-94800001D01*
X85845000Y-94725000D02*
X85920001Y-94800001D01*
X85845000Y-93700000D02*
X85845000Y-94725000D01*
X87875001Y-91740001D02*
X90307501Y-89307501D01*
X87759999Y-91740001D02*
X87875001Y-91740001D01*
X90307501Y-89307501D02*
X90215001Y-89400001D01*
X95500000Y-84115002D02*
X90307501Y-89307501D01*
X102124999Y-64124999D02*
X100250000Y-62250000D01*
X102124999Y-86824999D02*
X102124999Y-64124999D01*
X102550000Y-87250000D02*
X102124999Y-86824999D01*
%TO.N,/AddressableLedDriver06/DIN*%
X116475001Y-67975001D02*
X116475001Y-86774999D01*
X116124989Y-67624989D02*
X116475001Y-67975001D01*
X116124989Y-62632930D02*
X116124989Y-67624989D01*
X116547919Y-62210000D02*
X116124989Y-62632930D01*
X117750000Y-62210000D02*
X116547919Y-62210000D01*
X116475001Y-86774999D02*
X113725001Y-89524999D01*
X111651998Y-89524999D02*
X113725001Y-89524999D01*
X108759999Y-92416998D02*
X111651998Y-89524999D01*
X108759999Y-94715003D02*
X108759999Y-92416998D01*
X106920001Y-94800001D02*
X108675001Y-94800001D01*
X106845000Y-94725000D02*
X106920001Y-94800001D01*
X108675001Y-94800001D02*
X108759999Y-94715003D01*
X106845000Y-93700000D02*
X106845000Y-94725000D01*
X122675001Y-86125001D02*
X122675001Y-63385001D01*
X122675001Y-63385001D02*
X121500000Y-62210000D01*
X123550000Y-87000000D02*
X122675001Y-86125001D01*
%TO.N,/AddressableLedDriver07/DIN*%
X137475001Y-68975001D02*
X137475001Y-88024999D01*
X137124989Y-68624989D02*
X137475001Y-68975001D01*
X137124989Y-62882930D02*
X137124989Y-68624989D01*
X137547919Y-62460000D02*
X137124989Y-62882930D01*
X138750000Y-62460000D02*
X137547919Y-62460000D01*
X137475001Y-88024999D02*
X137275000Y-88024999D01*
X129759999Y-92914999D02*
X131274998Y-91400000D01*
X129759999Y-94965003D02*
X129759999Y-92914999D01*
X129675001Y-95050001D02*
X129759999Y-94965003D01*
X127920001Y-95050001D02*
X129675001Y-95050001D01*
X127845000Y-94975000D02*
X127920001Y-95050001D01*
X131274998Y-91400000D02*
X133900000Y-91400000D01*
X127845000Y-93950000D02*
X127845000Y-94975000D01*
X133900000Y-91400000D02*
X133799999Y-91500000D01*
X137275000Y-88024999D02*
X133900000Y-91400000D01*
X143425001Y-63635001D02*
X142250000Y-62460000D01*
X143425001Y-86000001D02*
X143425001Y-63635001D01*
X144300000Y-86875000D02*
X143425001Y-86000001D01*
X144300000Y-87500000D02*
X144300000Y-86875000D01*
%TO.N,/AddressableLedDriver08/DIN*%
X158475001Y-67475001D02*
X158475001Y-87524999D01*
X158124989Y-67124989D02*
X158475001Y-67475001D01*
X158124989Y-62882930D02*
X158124989Y-67124989D01*
X158547919Y-62460000D02*
X158124989Y-62882930D01*
X159750000Y-62460000D02*
X158547919Y-62460000D01*
X150759999Y-94965003D02*
X150759999Y-92914999D01*
X150675001Y-95050001D02*
X150759999Y-94965003D01*
X150759999Y-92914999D02*
X152549998Y-91125000D01*
X148920001Y-95050001D02*
X150675001Y-95050001D01*
X148845000Y-94975000D02*
X148920001Y-95050001D01*
X148845000Y-93950000D02*
X148845000Y-94975000D01*
X152549998Y-91125000D02*
X154875000Y-91125000D01*
X154875000Y-91125000D02*
X154750000Y-91250000D01*
X158475001Y-87524999D02*
X154875000Y-91125000D01*
X164874999Y-64084999D02*
X163250000Y-62460000D01*
X164874999Y-87074999D02*
X164874999Y-64084999D01*
X165300000Y-87500000D02*
X164874999Y-87074999D01*
%TO.N,/AddressableLedDriver09/DIN*%
X179225001Y-67975001D02*
X179225001Y-86024999D01*
X179225001Y-86024999D02*
X175599999Y-89650001D01*
X180750000Y-62290000D02*
X179547919Y-62290000D01*
X179547919Y-62290000D02*
X179124989Y-62712930D01*
X179124989Y-62712930D02*
X179124989Y-67874989D01*
X179124989Y-67874989D02*
X179225001Y-67975001D01*
X175024997Y-89650001D02*
X175599999Y-89650001D01*
X171759999Y-92914999D02*
X175024997Y-89650001D01*
X171759999Y-94965003D02*
X171759999Y-92914999D01*
X171675001Y-95050001D02*
X171759999Y-94965003D01*
X169920001Y-95050001D02*
X171675001Y-95050001D01*
X169845000Y-94975000D02*
X169920001Y-95050001D01*
X169845000Y-93950000D02*
X169845000Y-94975000D01*
X185874999Y-63834999D02*
X184250000Y-62210000D01*
X185874999Y-86824999D02*
X185874999Y-63834999D01*
X186300000Y-87250000D02*
X185874999Y-86824999D01*
%TO.N,/AddressableLedDriver10/DIN*%
X200225001Y-68725001D02*
X200225001Y-85774999D01*
X200124989Y-68624989D02*
X200225001Y-68725001D01*
X200124989Y-62632930D02*
X200124989Y-68624989D01*
X200547919Y-62210000D02*
X200124989Y-62632930D01*
X201750000Y-62210000D02*
X200547919Y-62210000D01*
X192759999Y-92914999D02*
X196174998Y-89500000D01*
X192759999Y-94965003D02*
X192759999Y-92914999D01*
X192675001Y-95050001D02*
X192759999Y-94965003D01*
X190920001Y-95050001D02*
X192675001Y-95050001D01*
X196174998Y-89500000D02*
X196500000Y-89500000D01*
X190845000Y-94975000D02*
X190920001Y-95050001D01*
X190845000Y-93950000D02*
X190845000Y-94975000D01*
X196500000Y-89500000D02*
X196349999Y-89650001D01*
X200225001Y-85774999D02*
X196500000Y-89500000D01*
X206425001Y-63385001D02*
X205250000Y-62210000D01*
X206425001Y-86125001D02*
X206425001Y-63385001D01*
X207550000Y-87250000D02*
X206425001Y-86125001D01*
%TO.N,/AddressableLedDriver11/DIN*%
X221475001Y-68361411D02*
X221475001Y-86774999D01*
X221124990Y-62632929D02*
X221124990Y-68011400D01*
X221547919Y-62210000D02*
X221124990Y-62632929D01*
X221124990Y-68011400D02*
X221475001Y-68361411D01*
X222750000Y-62210000D02*
X221547919Y-62210000D01*
X215799998Y-90875000D02*
X217375000Y-90875000D01*
X213759999Y-94965003D02*
X213759999Y-92914999D01*
X213675001Y-95050001D02*
X213759999Y-94965003D01*
X211920001Y-95050001D02*
X213675001Y-95050001D01*
X213759999Y-92914999D02*
X215799998Y-90875000D01*
X211845000Y-94975000D02*
X211920001Y-95050001D01*
X211845000Y-93950000D02*
X211845000Y-94975000D01*
X217375000Y-90875000D02*
X217250000Y-91000000D01*
X221475001Y-86774999D02*
X217375000Y-90875000D01*
X227874999Y-63834999D02*
X226250000Y-62210000D01*
X227874999Y-86574999D02*
X227874999Y-63834999D01*
X228550000Y-87250000D02*
X227874999Y-86574999D01*
%TO.N,/AddressableLedDriver12/DIN*%
X242475001Y-68475001D02*
X242475001Y-88774999D01*
X242124989Y-68124989D02*
X242475001Y-68475001D01*
X242124989Y-62632930D02*
X242124989Y-68124989D01*
X242547919Y-62210000D02*
X242124989Y-62632930D01*
X243750000Y-62210000D02*
X242547919Y-62210000D01*
X237049998Y-90625000D02*
X240625000Y-90625000D01*
X234759999Y-94965003D02*
X234759999Y-92914999D01*
X234675001Y-95050001D02*
X234759999Y-94965003D01*
X232920001Y-95050001D02*
X234675001Y-95050001D01*
X232845000Y-94975000D02*
X232920001Y-95050001D01*
X234759999Y-92914999D02*
X237049998Y-90625000D01*
X232845000Y-93950000D02*
X232845000Y-94975000D01*
X240625000Y-90625000D02*
X240500000Y-90750000D01*
X242475001Y-88774999D02*
X240625000Y-90625000D01*
X248874999Y-63834999D02*
X247250000Y-62210000D01*
X248874999Y-86824999D02*
X248874999Y-63834999D01*
X249550000Y-87500000D02*
X248874999Y-86824999D01*
%TO.N,/AddressableLedDriver13/DIN*%
X263299990Y-68299990D02*
X263299990Y-86700010D01*
X263124989Y-68124989D02*
X263299990Y-68299990D01*
X263124989Y-62632930D02*
X263124989Y-68124989D01*
X263547919Y-62210000D02*
X263124989Y-62632930D01*
X264750000Y-62210000D02*
X263547919Y-62210000D01*
X259174998Y-89500000D02*
X260500000Y-89500000D01*
X255759999Y-92914999D02*
X259174998Y-89500000D01*
X255759999Y-94965003D02*
X255759999Y-92914999D01*
X255675001Y-95050001D02*
X255759999Y-94965003D01*
X253920001Y-95050001D02*
X255675001Y-95050001D01*
X253845000Y-94975000D02*
X253920001Y-95050001D01*
X253845000Y-93950000D02*
X253845000Y-94975000D01*
X260500000Y-89500000D02*
X260349999Y-89650001D01*
X263299990Y-86700010D02*
X260500000Y-89500000D01*
X269874999Y-63834999D02*
X268250000Y-62210000D01*
X269874999Y-86574999D02*
X269874999Y-63834999D01*
X270550000Y-87250000D02*
X269874999Y-86574999D01*
%TO.N,/AddressableLedDriver14/DIN*%
X284124990Y-67124990D02*
X284500000Y-67500000D01*
X284124990Y-62632929D02*
X284124990Y-67124990D01*
X284547919Y-62210000D02*
X284124990Y-62632929D01*
X285750000Y-62210000D02*
X284547919Y-62210000D01*
X284500000Y-67500000D02*
X284500000Y-88500000D01*
X284500000Y-88500000D02*
X283799999Y-88500000D01*
X276759999Y-94965003D02*
X276759999Y-92914999D01*
X276675001Y-95050001D02*
X276759999Y-94965003D01*
X276759999Y-92914999D02*
X280149999Y-89524999D01*
X274920001Y-95050001D02*
X276675001Y-95050001D01*
X274845000Y-94975000D02*
X274920001Y-95050001D01*
X280149999Y-89524999D02*
X282774999Y-89524999D01*
X274845000Y-93950000D02*
X274845000Y-94975000D01*
X282774999Y-89524999D02*
X282649998Y-89650001D01*
X283799999Y-88500000D02*
X282774999Y-89524999D01*
X290425001Y-63385001D02*
X289250000Y-62210000D01*
X290425001Y-86125001D02*
X290425001Y-63385001D01*
X291300000Y-87000000D02*
X290425001Y-86125001D01*
%TO.N,/AddressableLedDriver15/DIN*%
X305547919Y-62210000D02*
X305124989Y-62632930D01*
X305124989Y-62632930D02*
X305124989Y-68374989D01*
X305124989Y-68374989D02*
X305699980Y-68949980D01*
X305699980Y-68949980D02*
X305699980Y-86300020D01*
X306750000Y-62210000D02*
X305547919Y-62210000D01*
X297759999Y-92914999D02*
X301174998Y-89500000D01*
X297675001Y-95050001D02*
X297759999Y-94965003D01*
X295920001Y-95050001D02*
X297675001Y-95050001D01*
X295845000Y-94975000D02*
X295920001Y-95050001D01*
X295845000Y-93950000D02*
X295845000Y-94975000D01*
X302500000Y-89500000D02*
X302349999Y-89650001D01*
X301174998Y-89500000D02*
X302500000Y-89500000D01*
X297759999Y-94965003D02*
X297759999Y-92914999D01*
X305699980Y-86300020D02*
X302500000Y-89500000D01*
X311874999Y-63834999D02*
X310250000Y-62210000D01*
X311874999Y-86824999D02*
X311874999Y-63834999D01*
X312300000Y-87250000D02*
X311874999Y-86824999D01*
%TO.N,/AddressableLedDriver16/DIN*%
X326124989Y-69624989D02*
X326500000Y-70000000D01*
X326547919Y-62210000D02*
X326124989Y-62632930D01*
X326124989Y-62632930D02*
X326124989Y-69624989D01*
X327750000Y-62210000D02*
X326547919Y-62210000D01*
X326500000Y-70000000D02*
X326500000Y-84365002D01*
X318759999Y-92105003D02*
X321307501Y-89557501D01*
X318759999Y-94965003D02*
X318759999Y-92105003D01*
X318675001Y-95050001D02*
X318759999Y-94965003D01*
X316920001Y-95050001D02*
X318675001Y-95050001D01*
X316845000Y-94975000D02*
X316920001Y-95050001D01*
X316845000Y-93950000D02*
X316845000Y-94975000D01*
X321307501Y-89557501D02*
X321215001Y-89650001D01*
X326500000Y-84365002D02*
X321307501Y-89557501D01*
X332425001Y-63385001D02*
X331250000Y-62210000D01*
X332425001Y-85750001D02*
X332425001Y-63385001D01*
X333300000Y-86625000D02*
X332425001Y-85750001D01*
X333300000Y-87250000D02*
X333300000Y-86625000D01*
%TO.N,/AddressableLedDriver16/DOUT*%
X347475001Y-67475001D02*
X347475001Y-88274999D01*
X347124989Y-67124989D02*
X347475001Y-67475001D01*
X347124989Y-62632930D02*
X347124989Y-67124989D01*
X347547919Y-62210000D02*
X347124989Y-62632930D01*
X348750000Y-62210000D02*
X347547919Y-62210000D01*
X347475001Y-88274999D02*
X346775000Y-88274999D01*
X341774998Y-90650000D02*
X344400000Y-90650000D01*
X339509999Y-92914999D02*
X341774998Y-90650000D01*
X339509999Y-94965003D02*
X339509999Y-92914999D01*
X339425001Y-95050001D02*
X339509999Y-94965003D01*
X337670001Y-95050001D02*
X339425001Y-95050001D01*
X337595000Y-94975000D02*
X337670001Y-95050001D01*
X337595000Y-93950000D02*
X337595000Y-94975000D01*
X344400000Y-90650000D02*
X344299999Y-90750000D01*
X346775000Y-88274999D02*
X344400000Y-90650000D01*
D19*
%TO.N,Net-(Jrgb1-Pad2)*%
X29710000Y-65000000D02*
X27460000Y-62750000D01*
X29950000Y-65000000D02*
X29710000Y-65000000D01*
%TO.N,Net-(Jrgb1-Pad3)*%
X24950000Y-62780000D02*
X24920000Y-62750000D01*
X24950000Y-64700000D02*
X24950000Y-62780000D01*
%TO.N,Net-(Jrgb1-Pad4)*%
X21950000Y-62750000D02*
X22380000Y-62750000D01*
X20000000Y-64700000D02*
X21950000Y-62750000D01*
%TO.N,Net-(Jrgb2-Pad2)*%
X51000000Y-64700000D02*
X50410000Y-64700000D01*
X50410000Y-64700000D02*
X48460000Y-62750000D01*
%TO.N,Net-(Jrgb2-Pad3)*%
X46000000Y-64700000D02*
X46000000Y-62830000D01*
X46000000Y-62830000D02*
X45920000Y-62750000D01*
%TO.N,Net-(Jrgb2-Pad4)*%
X41000000Y-64700000D02*
X42950000Y-62750000D01*
X42950000Y-62750000D02*
X43380000Y-62750000D01*
%TO.N,Net-(Jrgb3-Pad2)*%
X71460000Y-64750000D02*
X69460000Y-62750000D01*
X72250000Y-64750000D02*
X71460000Y-64750000D01*
%TO.N,Net-(Jrgb3-Pad3)*%
X67000000Y-62830000D02*
X66920000Y-62750000D01*
X67000000Y-64750000D02*
X67000000Y-62830000D01*
%TO.N,Net-(Jrgb3-Pad4)*%
X62200000Y-62750000D02*
X64380000Y-62750000D01*
X61750000Y-63200000D02*
X62200000Y-62750000D01*
X61750000Y-64750000D02*
X61750000Y-63200000D01*
%TO.N,Net-(Jrgb4-Pad2)*%
X92460000Y-64750000D02*
X90460000Y-62750000D01*
X93250000Y-64750000D02*
X92460000Y-64750000D01*
%TO.N,Net-(Jrgb4-Pad3)*%
X88000000Y-62830000D02*
X87920000Y-62750000D01*
X88000000Y-64750000D02*
X88000000Y-62830000D01*
%TO.N,Net-(Jrgb4-Pad4)*%
X84667998Y-62750000D02*
X85380000Y-62750000D01*
X83099999Y-64317999D02*
X84667998Y-62750000D01*
X83099999Y-64400001D02*
X83099999Y-64317999D01*
X82750000Y-64750000D02*
X83099999Y-64400001D01*
%TO.N,Net-(Jrgb5-Pad2)*%
X113460000Y-64750000D02*
X111460000Y-62750000D01*
X114250000Y-64750000D02*
X113460000Y-64750000D01*
%TO.N,Net-(Jrgb5-Pad3)*%
X109000000Y-62830000D02*
X108920000Y-62750000D01*
X109000000Y-64750000D02*
X109000000Y-62830000D01*
%TO.N,Net-(Jrgb5-Pad4)*%
X104000000Y-64497998D02*
X105747998Y-62750000D01*
X105747998Y-62750000D02*
X106380000Y-62750000D01*
X104000000Y-64750000D02*
X104000000Y-64497998D01*
%TO.N,Net-(Jrgb6-Pad2)*%
X134540000Y-64830000D02*
X132460000Y-62750000D01*
X135250000Y-64830000D02*
X134540000Y-64830000D01*
%TO.N,Net-(Jrgb6-Pad3)*%
X130000000Y-62830000D02*
X129920000Y-62750000D01*
X130000000Y-64750000D02*
X130000000Y-62830000D01*
%TO.N,Net-(Jrgb6-Pad4)*%
X126177919Y-62750000D02*
X127380000Y-62750000D01*
X125349999Y-63577920D02*
X126177919Y-62750000D01*
X125349999Y-64400001D02*
X125349999Y-63577920D01*
X125000000Y-64750000D02*
X125349999Y-64400001D01*
%TO.N,Net-(Jrgb7-Pad2)*%
X155510000Y-64800000D02*
X153460000Y-62750000D01*
X156230000Y-64800000D02*
X155510000Y-64800000D01*
%TO.N,Net-(Jrgb7-Pad3)*%
X151000000Y-62830000D02*
X150920000Y-62750000D01*
X151000000Y-64750000D02*
X151000000Y-62830000D01*
%TO.N,Net-(Jrgb7-Pad4)*%
X147750000Y-62750000D02*
X148380000Y-62750000D01*
X145750000Y-64750000D02*
X147750000Y-62750000D01*
%TO.N,Net-(Jrgb8-Pad2)*%
X176460000Y-64750000D02*
X174460000Y-62750000D01*
X177250000Y-64750000D02*
X176460000Y-64750000D01*
%TO.N,Net-(Jrgb8-Pad3)*%
X172000000Y-62830000D02*
X171920000Y-62750000D01*
X172000000Y-64750000D02*
X172000000Y-62830000D01*
%TO.N,Net-(Jrgb8-Pad4)*%
X168667998Y-62750000D02*
X169380000Y-62750000D01*
X166750000Y-64667998D02*
X168667998Y-62750000D01*
X166750000Y-64750000D02*
X166750000Y-64667998D01*
%TO.N,Net-(Jrgb9-Pad2)*%
X197460000Y-64750000D02*
X195460000Y-62750000D01*
X198160000Y-64750000D02*
X197460000Y-64750000D01*
%TO.N,Net-(Jrgb9-Pad3)*%
X193000000Y-62830000D02*
X192920000Y-62750000D01*
X193000000Y-64750000D02*
X193000000Y-62830000D01*
%TO.N,Net-(Jrgb9-Pad4)*%
X189667998Y-62750000D02*
X190380000Y-62750000D01*
X188099999Y-64400001D02*
X188099999Y-64317999D01*
X188099999Y-64317999D02*
X189667998Y-62750000D01*
X187750000Y-64750000D02*
X188099999Y-64400001D01*
%TO.N,Net-(Jrgb10-Pad2)*%
X218460000Y-64750000D02*
X216460000Y-62750000D01*
X219250000Y-64750000D02*
X218460000Y-64750000D01*
%TO.N,Net-(Jrgb10-Pad3)*%
X214000000Y-62830000D02*
X213920000Y-62750000D01*
X214000000Y-64750000D02*
X214000000Y-62830000D01*
%TO.N,Net-(Jrgb10-Pad4)*%
X210417998Y-62750000D02*
X211380000Y-62750000D01*
X208750000Y-64417998D02*
X210417998Y-62750000D01*
X208750000Y-64750000D02*
X208750000Y-64417998D01*
%TO.N,Net-(Jrgb11-Pad2)*%
X239460000Y-64750000D02*
X237460000Y-62750000D01*
X240250000Y-64750000D02*
X239460000Y-64750000D01*
%TO.N,Net-(Jrgb11-Pad3)*%
X235000000Y-62830000D02*
X234920000Y-62750000D01*
X235000000Y-64750000D02*
X235000000Y-62830000D01*
%TO.N,Net-(Jrgb11-Pad4)*%
X231417998Y-62750000D02*
X232380000Y-62750000D01*
X229849999Y-64317999D02*
X231417998Y-62750000D01*
X229849999Y-64650001D02*
X229849999Y-64317999D01*
X229750000Y-64750000D02*
X229849999Y-64650001D01*
%TO.N,Net-(Jrgb12-Pad2)*%
X260460000Y-64750000D02*
X258460000Y-62750000D01*
X261250000Y-64750000D02*
X260460000Y-64750000D01*
%TO.N,Net-(Jrgb12-Pad3)*%
X256000000Y-62830000D02*
X255920000Y-62750000D01*
X256000000Y-64750000D02*
X256000000Y-62830000D01*
%TO.N,Net-(Jrgb12-Pad4)*%
X252417998Y-62750000D02*
X253380000Y-62750000D01*
X250750000Y-64417998D02*
X252417998Y-62750000D01*
X250750000Y-64750000D02*
X250750000Y-64417998D01*
%TO.N,Net-(Jrgb13-Pad2)*%
X281460000Y-64750000D02*
X279460000Y-62750000D01*
X282250000Y-64750000D02*
X281460000Y-64750000D01*
%TO.N,Net-(Jrgb13-Pad3)*%
X277000000Y-62830000D02*
X276920000Y-62750000D01*
X277000000Y-64750000D02*
X277000000Y-62830000D01*
%TO.N,Net-(Jrgb13-Pad4)*%
X273417998Y-62750000D02*
X274380000Y-62750000D01*
X271849999Y-64317999D02*
X273417998Y-62750000D01*
X271849999Y-64650001D02*
X271849999Y-64317999D01*
X271750000Y-64750000D02*
X271849999Y-64650001D01*
%TO.N,Net-(Jrgb14-Pad2)*%
X302460000Y-64750000D02*
X300460000Y-62750000D01*
X303250000Y-64750000D02*
X302460000Y-64750000D01*
%TO.N,Net-(Jrgb14-Pad3)*%
X298000000Y-62830000D02*
X297920000Y-62750000D01*
X298000000Y-64750000D02*
X298000000Y-62830000D01*
%TO.N,Net-(Jrgb14-Pad4)*%
X294417998Y-62750000D02*
X295380000Y-62750000D01*
X292750000Y-64417998D02*
X294417998Y-62750000D01*
X292750000Y-64750000D02*
X292750000Y-64417998D01*
%TO.N,Net-(Jrgb15-Pad2)*%
X323460000Y-64750000D02*
X321460000Y-62750000D01*
X324250000Y-64750000D02*
X323460000Y-64750000D01*
%TO.N,Net-(Jrgb15-Pad3)*%
X319000000Y-62830000D02*
X318920000Y-62750000D01*
X319000000Y-64750000D02*
X319000000Y-62830000D01*
%TO.N,Net-(Jrgb15-Pad4)*%
X315417998Y-62750000D02*
X316380000Y-62750000D01*
X313849999Y-64317999D02*
X315417998Y-62750000D01*
X313849999Y-64650001D02*
X313849999Y-64317999D01*
X313750000Y-64750000D02*
X313849999Y-64650001D01*
%TO.N,Net-(Jrgb16-Pad2)*%
X344460000Y-64750000D02*
X342460000Y-62750000D01*
X345250000Y-64750000D02*
X344460000Y-64750000D01*
%TO.N,Net-(Jrgb16-Pad3)*%
X340000000Y-62830000D02*
X339920000Y-62750000D01*
X340000000Y-64750000D02*
X340000000Y-62830000D01*
%TO.N,Net-(Jrgb16-Pad4)*%
X336667998Y-62750000D02*
X337380000Y-62750000D01*
X335099999Y-64317999D02*
X336667998Y-62750000D01*
X335099999Y-64400001D02*
X335099999Y-64317999D01*
X334750000Y-64750000D02*
X335099999Y-64400001D01*
D18*
%TO.N,Net-(Rset1-Pad2)*%
X29824999Y-95725001D02*
X30300000Y-95250000D01*
X26989001Y-95725001D02*
X29824999Y-95725001D01*
X26073000Y-94809000D02*
X26989001Y-95725001D01*
X26073000Y-93784000D02*
X26073000Y-94809000D01*
%TO.N,Net-(Rset2-Pad2)*%
X47410000Y-95500000D02*
X51300000Y-95500000D01*
X46685000Y-94775000D02*
X47410000Y-95500000D01*
X46685000Y-93750000D02*
X46685000Y-94775000D01*
%TO.N,Net-(Rset3-Pad2)*%
X67385000Y-94725000D02*
X67385000Y-93700000D01*
X68160000Y-95500000D02*
X67385000Y-94725000D01*
X72300000Y-95500000D02*
X68160000Y-95500000D01*
%TO.N,Net-(Rset4-Pad2)*%
X89160000Y-95500000D02*
X93300000Y-95500000D01*
X88385000Y-94725000D02*
X89160000Y-95500000D01*
X88385000Y-93700000D02*
X88385000Y-94725000D01*
%TO.N,Net-(Rset5-Pad2)*%
X110160000Y-95500000D02*
X114050000Y-95500000D01*
X109385000Y-94725000D02*
X110160000Y-95500000D01*
X109385000Y-93700000D02*
X109385000Y-94725000D01*
%TO.N,Net-(Rset6-Pad2)*%
X131160000Y-95750000D02*
X135300000Y-95750000D01*
X130385000Y-94975000D02*
X131160000Y-95750000D01*
X130385000Y-93950000D02*
X130385000Y-94975000D01*
%TO.N,Net-(Rset7-Pad2)*%
X152160000Y-95750000D02*
X156300000Y-95750000D01*
X151385000Y-94975000D02*
X152160000Y-95750000D01*
X151385000Y-93950000D02*
X151385000Y-94975000D01*
%TO.N,Net-(Rset8-Pad2)*%
X173160000Y-95750000D02*
X177300000Y-95750000D01*
X172385000Y-94975000D02*
X173160000Y-95750000D01*
X172385000Y-93950000D02*
X172385000Y-94975000D01*
%TO.N,Net-(Rset9-Pad2)*%
X194158588Y-95750000D02*
X198350000Y-95750000D01*
X193385000Y-94976412D02*
X194158588Y-95750000D01*
X193385000Y-93950000D02*
X193385000Y-94976412D01*
%TO.N,Net-(Rset10-Pad2)*%
X214910000Y-95500000D02*
X219300000Y-95500000D01*
X214385000Y-94975000D02*
X214910000Y-95500000D01*
X214385000Y-93950000D02*
X214385000Y-94975000D01*
%TO.N,Net-(Rset11-Pad2)*%
X236160000Y-95750000D02*
X240300000Y-95750000D01*
X235385000Y-94975000D02*
X236160000Y-95750000D01*
X235385000Y-93950000D02*
X235385000Y-94975000D01*
%TO.N,Net-(Rset12-Pad2)*%
X257160000Y-95750000D02*
X261300000Y-95750000D01*
X256385000Y-94975000D02*
X257160000Y-95750000D01*
X256385000Y-93950000D02*
X256385000Y-94975000D01*
%TO.N,Net-(Rset13-Pad2)*%
X278160000Y-95750000D02*
X282300000Y-95750000D01*
X277385000Y-94975000D02*
X278160000Y-95750000D01*
X277385000Y-93950000D02*
X277385000Y-94975000D01*
%TO.N,Net-(Rset14-Pad2)*%
X299160000Y-95750000D02*
X303300000Y-95750000D01*
X298385000Y-94975000D02*
X299160000Y-95750000D01*
X298385000Y-93950000D02*
X298385000Y-94975000D01*
%TO.N,Net-(Rset15-Pad2)*%
X320160000Y-95750000D02*
X324350000Y-95750000D01*
X319385000Y-94975000D02*
X320160000Y-95750000D01*
X319385000Y-93950000D02*
X319385000Y-94975000D01*
%TO.N,Net-(Rset16-Pad2)*%
X340910000Y-95750000D02*
X345050000Y-95750000D01*
X340135000Y-94975000D02*
X340910000Y-95750000D01*
X340135000Y-93950000D02*
X340135000Y-94975000D01*
%TD*%
M02*
