%TF.GenerationSoftware,KiCad,Pcbnew,(5.1.9)-1*%
%TF.CreationDate,2021-01-26T01:31:28+01:00*%
%TF.ProjectId,StripArray,53747269-7041-4727-9261-792e6b696361,rev?*%
%TF.SameCoordinates,Original*%
%TF.FileFunction,Profile,NP*%
%FSLAX46Y46*%
G04 Gerber Fmt 4.6, Leading zero omitted, Abs format (unit mm)*
G04 Created by KiCad (PCBNEW (5.1.9)-1) date 2021-01-26 01:31:28*
%MOMM*%
%LPD*%
G01*
G04 APERTURE LIST*
%TA.AperFunction,Profile*%
%ADD10C,0.050000*%
%TD*%
G04 APERTURE END LIST*
D10*
X327500000Y-86500000D02*
X327500000Y-67500000D01*
X327500000Y-67500000D02*
X331500000Y-67500000D01*
X331500000Y-86500000D02*
X327500000Y-86500000D01*
X331500000Y-67500000D02*
X331500000Y-86500000D01*
X306500000Y-86500000D02*
X306500000Y-67500000D01*
X306500000Y-67500000D02*
X310500000Y-67500000D01*
X310500000Y-86500000D02*
X306500000Y-86500000D01*
X310500000Y-67500000D02*
X310500000Y-86500000D01*
X285500000Y-86500000D02*
X285500000Y-67500000D01*
X285500000Y-67500000D02*
X289500000Y-67500000D01*
X289500000Y-86500000D02*
X285500000Y-86500000D01*
X289500000Y-67500000D02*
X289500000Y-86500000D01*
X264500000Y-86500000D02*
X264500000Y-67500000D01*
X264500000Y-67500000D02*
X268500000Y-67500000D01*
X268500000Y-86500000D02*
X264500000Y-86500000D01*
X268500000Y-67500000D02*
X268500000Y-86500000D01*
X243500000Y-86500000D02*
X243500000Y-67500000D01*
X243500000Y-67500000D02*
X247500000Y-67500000D01*
X247500000Y-86500000D02*
X243500000Y-86500000D01*
X247500000Y-67500000D02*
X247500000Y-86500000D01*
X222500000Y-86500000D02*
X222500000Y-67500000D01*
X222500000Y-67500000D02*
X226500000Y-67500000D01*
X226500000Y-86500000D02*
X222500000Y-86500000D01*
X226500000Y-67500000D02*
X226500000Y-86500000D01*
X201500000Y-86500000D02*
X201500000Y-67500000D01*
X201500000Y-67500000D02*
X205500000Y-67500000D01*
X205500000Y-86500000D02*
X201500000Y-86500000D01*
X205500000Y-67500000D02*
X205500000Y-86500000D01*
X180500000Y-86500000D02*
X180500000Y-67500000D01*
X180500000Y-67500000D02*
X184500000Y-67500000D01*
X184500000Y-86500000D02*
X180500000Y-86500000D01*
X184500000Y-67500000D02*
X184500000Y-86500000D01*
X159500000Y-86500000D02*
X159500000Y-67500000D01*
X159500000Y-67500000D02*
X163500000Y-67500000D01*
X163500000Y-86500000D02*
X159500000Y-86500000D01*
X163500000Y-67500000D02*
X163500000Y-86500000D01*
X138500000Y-86500000D02*
X138500000Y-67500000D01*
X138500000Y-67500000D02*
X142500000Y-67500000D01*
X142500000Y-86500000D02*
X138500000Y-86500000D01*
X142500000Y-67500000D02*
X142500000Y-86500000D01*
X117500000Y-86500000D02*
X117500000Y-67500000D01*
X117500000Y-67500000D02*
X121500000Y-67500000D01*
X121500000Y-86500000D02*
X117500000Y-86500000D01*
X121500000Y-67500000D02*
X121500000Y-86500000D01*
X96500000Y-86500000D02*
X96500000Y-67500000D01*
X96500000Y-67500000D02*
X100500000Y-67500000D01*
X100500000Y-86500000D02*
X96500000Y-86500000D01*
X100500000Y-67500000D02*
X100500000Y-86500000D01*
X75500000Y-86500000D02*
X75500000Y-67500000D01*
X75500000Y-67500000D02*
X79500000Y-67500000D01*
X79500000Y-86500000D02*
X75500000Y-86500000D01*
X79500000Y-67500000D02*
X79500000Y-86500000D01*
X54500000Y-86500000D02*
X54500000Y-67500000D01*
X54500000Y-67500000D02*
X58500000Y-67500000D01*
X58500000Y-86500000D02*
X54500000Y-86500000D01*
X58500000Y-67500000D02*
X58500000Y-86500000D01*
X33500000Y-86500000D02*
X33500000Y-67500000D01*
X37500000Y-86500000D02*
X33500000Y-86500000D01*
X37500000Y-67500000D02*
X37500000Y-86500000D01*
X33500000Y-67500000D02*
X37500000Y-67500000D01*
X14500000Y-96500000D02*
X14500000Y-56500000D01*
X350500000Y-96500000D02*
X14500000Y-96500000D01*
X350500000Y-56500000D02*
X350500000Y-96500000D01*
X14500000Y-56500000D02*
X350500000Y-56500000D01*
M02*
