%TF.GenerationSoftware,KiCad,Pcbnew,(5.1.9)-1*%
%TF.CreationDate,2021-01-24T21:22:54+01:00*%
%TF.ProjectId,StripArray,53747269-7041-4727-9261-792e6b696361,rev?*%
%TF.SameCoordinates,Original*%
%TF.FileFunction,Soldermask,Bot*%
%TF.FilePolarity,Negative*%
%FSLAX46Y46*%
G04 Gerber Fmt 4.6, Leading zero omitted, Abs format (unit mm)*
G04 Created by KiCad (PCBNEW (5.1.9)-1) date 2021-01-24 21:22:54*
%MOMM*%
%LPD*%
G01*
G04 APERTURE LIST*
%ADD10R,1.700000X1.700000*%
%ADD11O,1.700000X1.700000*%
%ADD12C,6.400000*%
%ADD13O,1.524000X4.267200*%
G04 APERTURE END LIST*
D10*
%TO.C,Jrgb16*%
X345000000Y-62750000D03*
D11*
X342460000Y-62750000D03*
X339920000Y-62750000D03*
X337380000Y-62750000D03*
%TD*%
D10*
%TO.C,Jrgb15*%
X324000000Y-62750000D03*
D11*
X321460000Y-62750000D03*
X318920000Y-62750000D03*
X316380000Y-62750000D03*
%TD*%
D10*
%TO.C,Jrgb14*%
X303000000Y-62750000D03*
D11*
X300460000Y-62750000D03*
X297920000Y-62750000D03*
X295380000Y-62750000D03*
%TD*%
D10*
%TO.C,Jrgb13*%
X282000000Y-62750000D03*
D11*
X279460000Y-62750000D03*
X276920000Y-62750000D03*
X274380000Y-62750000D03*
%TD*%
D10*
%TO.C,Jrgb12*%
X261000000Y-62750000D03*
D11*
X258460000Y-62750000D03*
X255920000Y-62750000D03*
X253380000Y-62750000D03*
%TD*%
D10*
%TO.C,Jrgb11*%
X240000000Y-62750000D03*
D11*
X237460000Y-62750000D03*
X234920000Y-62750000D03*
X232380000Y-62750000D03*
%TD*%
D10*
%TO.C,Jrgb10*%
X219000000Y-62750000D03*
D11*
X216460000Y-62750000D03*
X213920000Y-62750000D03*
X211380000Y-62750000D03*
%TD*%
D10*
%TO.C,Jrgb9*%
X198000000Y-62750000D03*
D11*
X195460000Y-62750000D03*
X192920000Y-62750000D03*
X190380000Y-62750000D03*
%TD*%
D10*
%TO.C,Jrgb8*%
X177000000Y-62750000D03*
D11*
X174460000Y-62750000D03*
X171920000Y-62750000D03*
X169380000Y-62750000D03*
%TD*%
D10*
%TO.C,Jrgb7*%
X156000000Y-62750000D03*
D11*
X153460000Y-62750000D03*
X150920000Y-62750000D03*
X148380000Y-62750000D03*
%TD*%
D10*
%TO.C,Jrgb6*%
X135000000Y-62750000D03*
D11*
X132460000Y-62750000D03*
X129920000Y-62750000D03*
X127380000Y-62750000D03*
%TD*%
D10*
%TO.C,Jrgb5*%
X114000000Y-62750000D03*
D11*
X111460000Y-62750000D03*
X108920000Y-62750000D03*
X106380000Y-62750000D03*
%TD*%
D10*
%TO.C,Jrgb4*%
X93000000Y-62750000D03*
D11*
X90460000Y-62750000D03*
X87920000Y-62750000D03*
X85380000Y-62750000D03*
%TD*%
D10*
%TO.C,Jrgb3*%
X72000000Y-62750000D03*
D11*
X69460000Y-62750000D03*
X66920000Y-62750000D03*
X64380000Y-62750000D03*
%TD*%
D10*
%TO.C,Jrgb2*%
X51000000Y-62750000D03*
D11*
X48460000Y-62750000D03*
X45920000Y-62750000D03*
X43380000Y-62750000D03*
%TD*%
D10*
%TO.C,Jrgb1*%
X30000000Y-62750000D03*
D11*
X27460000Y-62750000D03*
X24920000Y-62750000D03*
X22380000Y-62750000D03*
%TD*%
D12*
%TO.C,Hbottomleft16*%
X333500000Y-92500000D03*
%TD*%
%TO.C,Hbottomleft15*%
X312500000Y-92500000D03*
%TD*%
%TO.C,Hbottomleft14*%
X291500000Y-92500000D03*
%TD*%
%TO.C,Hbottomleft13*%
X270500000Y-92500000D03*
%TD*%
%TO.C,Hbottomleft12*%
X249500000Y-92500000D03*
%TD*%
%TO.C,Hbottomleft11*%
X228500000Y-92500000D03*
%TD*%
%TO.C,Hbottomleft10*%
X207500000Y-92500000D03*
%TD*%
%TO.C,Hbottomleft9*%
X186500000Y-92500000D03*
%TD*%
%TO.C,Hbottomleft8*%
X165500000Y-92500000D03*
%TD*%
%TO.C,Hbottomleft7*%
X144500000Y-92500000D03*
%TD*%
%TO.C,Hbottomleft6*%
X123500000Y-92500000D03*
%TD*%
%TO.C,Hbottomleft5*%
X102500000Y-92500000D03*
%TD*%
%TO.C,Hbottomleft4*%
X81500000Y-92500000D03*
%TD*%
%TO.C,Hbottomleft3*%
X60500000Y-92500000D03*
%TD*%
%TO.C,Hbottomleft2*%
X39500000Y-92500000D03*
%TD*%
%TO.C,Hbottomleft1*%
X18500000Y-92500000D03*
%TD*%
D13*
%TO.C,LedStrip16*%
X336130000Y-60000000D03*
X338670000Y-60000000D03*
X341210000Y-60000000D03*
X343750000Y-60000000D03*
%TD*%
%TO.C,LedStrip15*%
X315130000Y-60000000D03*
X317670000Y-60000000D03*
X320210000Y-60000000D03*
X322750000Y-60000000D03*
%TD*%
%TO.C,LedStrip14*%
X294130000Y-60000000D03*
X296670000Y-60000000D03*
X299210000Y-60000000D03*
X301750000Y-60000000D03*
%TD*%
%TO.C,LedStrip13*%
X273130000Y-60000000D03*
X275670000Y-60000000D03*
X278210000Y-60000000D03*
X280750000Y-60000000D03*
%TD*%
%TO.C,LedStrip12*%
X252170000Y-60000000D03*
X254710000Y-60000000D03*
X257250000Y-60000000D03*
X259790000Y-60000000D03*
%TD*%
%TO.C,LedStrip11*%
X231170000Y-60000000D03*
X233710000Y-60000000D03*
X236250000Y-60000000D03*
X238790000Y-60000000D03*
%TD*%
%TO.C,LedStrip10*%
X210130000Y-60000000D03*
X212670000Y-60000000D03*
X215210000Y-60000000D03*
X217750000Y-60000000D03*
%TD*%
%TO.C,LedStrip9*%
X189130000Y-60000000D03*
X191670000Y-60000000D03*
X194210000Y-60000000D03*
X196750000Y-60000000D03*
%TD*%
%TO.C,LedStrip8*%
X168130000Y-60000000D03*
X170670000Y-60000000D03*
X173210000Y-60000000D03*
X175750000Y-60000000D03*
%TD*%
%TO.C,LedStrip7*%
X147130000Y-60000000D03*
X149670000Y-60000000D03*
X152210000Y-60000000D03*
X154750000Y-60000000D03*
%TD*%
%TO.C,LedStrip6*%
X126130000Y-60000000D03*
X128670000Y-60000000D03*
X131210000Y-60000000D03*
X133750000Y-60000000D03*
%TD*%
%TO.C,LedStrip5*%
X105130000Y-60000000D03*
X107670000Y-60000000D03*
X110210000Y-60000000D03*
X112750000Y-60000000D03*
%TD*%
%TO.C,LedStrip4*%
X84170000Y-60000000D03*
X86710000Y-60000000D03*
X89250000Y-60000000D03*
X91790000Y-60000000D03*
%TD*%
%TO.C,LedStrip3*%
X63130000Y-60000000D03*
X65670000Y-60000000D03*
X68210000Y-60000000D03*
X70750000Y-60000000D03*
%TD*%
%TO.C,LedStrip2*%
X42180000Y-60000000D03*
X44720000Y-60000000D03*
X47260000Y-60000000D03*
X49800000Y-60000000D03*
%TD*%
%TO.C,LedStrip1*%
X21180000Y-60000000D03*
X23720000Y-60000000D03*
X26260000Y-60000000D03*
X28800000Y-60000000D03*
%TD*%
D10*
%TO.C,Jout16*%
X348750000Y-64750000D03*
D11*
X348750000Y-62210000D03*
X348750000Y-59670000D03*
%TD*%
D10*
%TO.C,Jout15*%
X327750000Y-64750000D03*
D11*
X327750000Y-62210000D03*
X327750000Y-59670000D03*
%TD*%
D10*
%TO.C,Jout14*%
X306750000Y-64750000D03*
D11*
X306750000Y-62210000D03*
X306750000Y-59670000D03*
%TD*%
D10*
%TO.C,Jout13*%
X285750000Y-64750000D03*
D11*
X285750000Y-62210000D03*
X285750000Y-59670000D03*
%TD*%
D10*
%TO.C,Jout12*%
X264750000Y-64750000D03*
D11*
X264750000Y-62210000D03*
X264750000Y-59670000D03*
%TD*%
D10*
%TO.C,Jout11*%
X243750000Y-64750000D03*
D11*
X243750000Y-62210000D03*
X243750000Y-59670000D03*
%TD*%
D10*
%TO.C,Jout10*%
X222750000Y-64750000D03*
D11*
X222750000Y-62210000D03*
X222750000Y-59670000D03*
%TD*%
D10*
%TO.C,Jout9*%
X201750000Y-64750000D03*
D11*
X201750000Y-62210000D03*
X201750000Y-59670000D03*
%TD*%
D10*
%TO.C,Jout8*%
X180750000Y-64830000D03*
D11*
X180750000Y-62290000D03*
X180750000Y-59750000D03*
%TD*%
D10*
%TO.C,Jout7*%
X159750000Y-65000000D03*
D11*
X159750000Y-62460000D03*
X159750000Y-59920000D03*
%TD*%
D10*
%TO.C,Jout6*%
X138750000Y-65000000D03*
D11*
X138750000Y-62460000D03*
X138750000Y-59920000D03*
%TD*%
D10*
%TO.C,Jout5*%
X117750000Y-64750000D03*
D11*
X117750000Y-62210000D03*
X117750000Y-59670000D03*
%TD*%
D10*
%TO.C,Jout4*%
X96750000Y-64750000D03*
D11*
X96750000Y-62210000D03*
X96750000Y-59670000D03*
%TD*%
D10*
%TO.C,Jout3*%
X75750000Y-64750000D03*
D11*
X75750000Y-62210000D03*
X75750000Y-59670000D03*
%TD*%
D10*
%TO.C,Jout2*%
X54600000Y-64800000D03*
D11*
X54600000Y-62260000D03*
X54600000Y-59720000D03*
%TD*%
D10*
%TO.C,Jout1*%
X33600000Y-64800000D03*
D11*
X33600000Y-62260000D03*
X33600000Y-59720000D03*
%TD*%
D10*
%TO.C,Jin16*%
X331250000Y-64750000D03*
D11*
X331250000Y-62210000D03*
X331250000Y-59670000D03*
%TD*%
D10*
%TO.C,Jin15*%
X310250000Y-64750000D03*
D11*
X310250000Y-62210000D03*
X310250000Y-59670000D03*
%TD*%
D10*
%TO.C,Jin14*%
X289250000Y-64750000D03*
D11*
X289250000Y-62210000D03*
X289250000Y-59670000D03*
%TD*%
D10*
%TO.C,Jin13*%
X268250000Y-64750000D03*
D11*
X268250000Y-62210000D03*
X268250000Y-59670000D03*
%TD*%
D10*
%TO.C,Jin12*%
X247250000Y-64750000D03*
D11*
X247250000Y-62210000D03*
X247250000Y-59670000D03*
%TD*%
D10*
%TO.C,Jin11*%
X226250000Y-64750000D03*
D11*
X226250000Y-62210000D03*
X226250000Y-59670000D03*
%TD*%
D10*
%TO.C,Jin10*%
X205250000Y-64750000D03*
D11*
X205250000Y-62210000D03*
X205250000Y-59670000D03*
%TD*%
D10*
%TO.C,Jin9*%
X184250000Y-64750000D03*
D11*
X184250000Y-62210000D03*
X184250000Y-59670000D03*
%TD*%
D10*
%TO.C,Jin8*%
X163250000Y-65000000D03*
D11*
X163250000Y-62460000D03*
X163250000Y-59920000D03*
%TD*%
D10*
%TO.C,Jin7*%
X142250000Y-65000000D03*
D11*
X142250000Y-62460000D03*
X142250000Y-59920000D03*
%TD*%
D10*
%TO.C,Jin6*%
X121500000Y-64750000D03*
D11*
X121500000Y-62210000D03*
X121500000Y-59670000D03*
%TD*%
D10*
%TO.C,Jin5*%
X100250000Y-64790000D03*
D11*
X100250000Y-62250000D03*
X100250000Y-59710000D03*
%TD*%
D10*
%TO.C,Jin4*%
X79250000Y-64750000D03*
D11*
X79250000Y-62210000D03*
X79250000Y-59670000D03*
%TD*%
D10*
%TO.C,Jin3*%
X58250000Y-64750000D03*
D11*
X58250000Y-62210000D03*
X58250000Y-59670000D03*
%TD*%
D10*
%TO.C,Jin2*%
X37400000Y-64940000D03*
D11*
X37400000Y-62400000D03*
X37400000Y-59860000D03*
%TD*%
D10*
%TO.C,Jin1*%
X16400000Y-64800000D03*
D11*
X16400000Y-62260000D03*
X16400000Y-59720000D03*
%TD*%
M02*
